<svg width="269" height="78" viewBox="0 0 269 78" fill="none" xmlns="http://www.w3.org/2000/svg">
<path d="M259.037 78H9.96296C4.48582 78 0 73.6101 0 68.25V9.75C0 4.38994 4.48582 2.86102e-06 9.96296 2.86102e-06H259.037C264.514 2.86102e-06 269 4.38994 269 9.75V68.25C269 73.6101 264.514 78 259.037 78Z" fill="white"/>
<path d="M259.037 1.56244C263.65 1.56244 267.403 5.23575 267.403 9.75V68.25C267.403 72.7642 263.65 76.4376 259.037 76.4376H9.96296C5.35011 76.4376 1.59656 72.7642 1.59656 68.25V9.75C1.59656 5.23575 5.35011 1.56244 9.96296 1.56244H259.037ZM259.037 2.86102e-06H9.96296C4.48582 2.86102e-06 0 4.38994 0 9.75V68.25C0 73.6101 4.48582 78 9.96296 78H259.037C264.514 78 269 73.6101 269 68.25V9.75C269 4.38994 264.514 2.86102e-06 259.037 2.86102e-06Z" fill="#A6A6A6"/>
<path d="M20.7932 14.7012C20.2079 15.3008 19.8691 16.2343 19.8691 17.4433V60.5676C19.8691 61.7766 20.2079 62.7102 20.7932 63.3098L20.9377 63.4414L45.6309 39.2858V38.7154L20.9377 14.5598L20.7932 14.7012Z" fill="url(#paint0_linear_3180_42875)"/>
<path d="M53.8528 47.3418L45.6309 39.2859V38.7155L53.8628 30.6595L54.0471 30.7644L63.7958 36.1927C66.578 37.7332 66.578 40.2682 63.7958 41.8184L54.0471 47.237L53.8528 47.3418Z" fill="url(#paint1_linear_3180_42875)"/>
<path d="M54.0468 47.2363L45.6306 39L20.793 63.3092C21.717 64.2598 23.2239 64.3744 24.9376 63.4238L54.0468 47.2363Z" fill="url(#paint2_linear_3180_42875)"/>
<path d="M54.0468 30.7637L24.9376 14.5763C23.2239 13.6354 21.717 13.7499 20.793 14.7006L45.6306 39L54.0468 30.7637Z" fill="url(#paint3_linear_3180_42875)"/>
<path d="M94.4835 19.9753C94.4835 21.6035 93.9854 22.9076 93.004 23.8802C91.8757 25.0331 90.4062 25.6132 88.6054 25.6132C86.8843 25.6132 85.4147 25.0233 84.2092 23.8607C83.0012 22.6809 82.3984 21.233 82.3984 19.5C82.3984 17.7669 83.0012 16.319 84.2092 15.149C85.4147 13.9766 86.8843 13.3867 88.6054 13.3867C89.4622 13.3867 90.2791 13.5598 91.0587 13.8815C91.8358 14.2057 92.4685 14.6445 92.9268 15.1856L91.8857 16.2142C91.0861 15.2904 89.9977 14.8346 88.6054 14.8346C87.35 14.8346 86.2616 15.2636 85.3375 16.1289C84.4234 16.9967 83.9651 18.1203 83.9651 19.5C83.9651 20.8796 84.4234 22.013 85.3375 22.8808C86.2616 23.7363 87.35 24.1751 88.6054 24.1751C89.9379 24.1751 91.0587 23.7363 91.943 22.871C92.5258 22.2982 92.8571 21.5085 92.9442 20.4993H88.6054V19.0905H94.3938C94.4636 19.3952 94.4835 19.6901 94.4835 19.9753Z" fill="black" stroke="black" stroke-width="0.16" stroke-miterlimit="10"/>
<path d="M103.666 15.09H98.2287V18.795H103.131V20.2039H98.2287V23.9089H103.666V25.3445H96.6895V13.6543H103.666V15.09Z" fill="black" stroke="black" stroke-width="0.16" stroke-miterlimit="10"/>
<path d="M110.148 25.3445H108.609V15.09H105.273V13.6543H113.485V15.09H110.148V25.3445Z" fill="black" stroke="black" stroke-width="0.16" stroke-miterlimit="10"/>
<path d="M119.428 25.3445V13.6543H120.965V25.3445H119.428Z" fill="black" stroke="black" stroke-width="0.16" stroke-miterlimit="10"/>
<path d="M127.777 25.3445H126.25V15.09H122.902V13.6543H131.124V15.09H127.777V25.3445Z" fill="black" stroke="black" stroke-width="0.16" stroke-miterlimit="10"/>
<path d="M146.673 23.8412C145.495 25.0233 144.035 25.6132 142.294 25.6132C140.543 25.6132 139.084 25.0233 137.905 23.8412C136.73 22.6614 136.145 21.2135 136.145 19.5C136.145 17.7864 136.73 16.3385 137.905 15.1588C139.084 13.9766 140.543 13.3867 142.294 13.3867C144.025 13.3867 145.485 13.9766 146.663 15.1685C147.849 16.358 148.434 17.7962 148.434 19.5C148.434 21.2135 147.849 22.6614 146.673 23.8412ZM139.044 22.8613C139.93 23.7363 141.009 24.1751 142.294 24.1751C143.569 24.1751 144.658 23.7363 145.535 22.8613C146.419 21.9862 146.867 20.8625 146.867 19.5C146.867 18.1374 146.419 17.0137 145.535 16.1387C144.658 15.2636 143.569 14.8248 142.294 14.8248C141.009 14.8248 139.93 15.2636 139.044 16.1387C138.16 17.0137 137.711 18.1374 137.711 19.5C137.711 20.8625 138.16 21.9862 139.044 22.8613Z" fill="black" stroke="black" stroke-width="0.16" stroke-miterlimit="10"/>
<path d="M150.592 25.3445V13.6543H152.46L158.268 22.7462H158.336L158.268 20.4988V13.6543H159.805V25.3445H158.201L152.119 15.8042H152.051L152.119 18.0613V25.3445H150.592Z" fill="black" stroke="black" stroke-width="0.16" stroke-miterlimit="10"/>
<path d="M135.765 42.4174C131.085 42.4174 127.261 45.9031 127.261 50.7122C127.261 55.4824 131.085 59.0046 135.765 59.0046C140.455 59.0046 144.278 55.4824 144.278 50.7122C144.278 45.9031 140.455 42.4174 135.765 42.4174ZM135.765 55.7384C133.197 55.7384 130.987 53.6641 130.987 50.7122C130.987 47.7214 133.197 45.6837 135.765 45.6837C138.333 45.6837 140.552 47.7214 140.552 50.7122C140.552 53.6641 138.333 55.7384 135.765 55.7384ZM117.211 42.4174C112.521 42.4174 108.708 45.9031 108.708 50.7122C108.708 55.4824 112.521 59.0046 117.211 59.0046C121.899 59.0046 125.715 55.4824 125.715 50.7122C125.715 45.9031 121.899 42.4174 117.211 42.4174ZM117.211 55.7384C114.641 55.7384 112.424 53.6641 112.424 50.7122C112.424 47.7214 114.641 45.6837 117.211 45.6837C119.779 45.6837 121.988 47.7214 121.988 50.7122C121.988 53.6641 119.779 55.7384 117.211 55.7384ZM95.1332 44.9597V48.4844H103.734C103.482 50.4539 102.81 51.9017 101.779 52.9109C100.523 54.1296 98.568 55.4824 95.1332 55.4824C89.8404 55.4824 85.6958 51.3021 85.6958 46.1224C85.6958 40.9427 89.8404 36.7624 95.1332 36.7624C97.9951 36.7624 100.077 37.8569 101.614 39.2755L104.152 36.7917C102.003 34.7832 99.1433 33.2402 95.1332 33.2402C87.8752 33.2402 81.7754 39.0196 81.7754 46.1224C81.7754 53.2253 87.8752 59.0046 95.1332 59.0046C99.0561 59.0046 102.003 57.7469 104.319 55.3874C106.693 53.0644 107.432 49.7982 107.432 47.1608C107.432 46.3418 107.363 45.5886 107.238 44.9597H95.1332ZM185.413 47.6922C184.713 45.8372 182.553 42.4174 178.155 42.4174C173.796 42.4174 170.167 45.7787 170.167 50.7122C170.167 55.3581 173.758 59.0046 178.573 59.0046C182.466 59.0046 184.713 56.6817 185.637 55.3289L182.747 53.4447C181.784 54.8243 180.471 55.7384 178.573 55.7384C176.688 55.7384 175.335 54.8926 174.468 53.2253L185.804 48.6355L185.413 47.6922ZM173.856 50.4539C173.758 47.2559 176.394 45.6179 178.282 45.6179C179.761 45.6179 181.016 46.3418 181.435 47.3777L173.856 50.4539ZM164.642 58.5H168.368V34.1251H164.642V58.5ZM158.54 44.2651H158.415C157.579 43.2949 155.982 42.4174 153.96 42.4174C149.715 42.4174 145.835 46.0639 145.835 50.7391C145.835 55.3874 149.715 59.0046 153.96 59.0046C155.982 59.0046 157.579 58.1198 158.415 57.1204H158.54V58.3099C158.54 61.4811 156.809 63.1849 154.017 63.1849C151.74 63.1849 150.328 61.5762 149.745 60.2234L146.505 61.5469C147.439 63.7455 149.912 66.4512 154.017 66.4512C158.386 66.4512 162.072 63.9357 162.072 57.8151V42.922H158.54V44.2651ZM154.278 55.7384C151.71 55.7384 149.561 53.6348 149.561 50.7391C149.561 47.8165 151.71 45.6837 154.278 45.6837C156.809 45.6837 158.804 47.8165 158.804 50.7391C158.804 53.6348 156.809 55.7384 154.278 55.7384ZM202.858 34.1251H193.946V58.5H197.662V49.2644H202.858C206.985 49.2644 211.032 46.3418 211.032 41.6935C211.032 37.0476 206.975 34.1251 202.858 34.1251ZM202.955 45.8738H197.662V37.5156H202.955C205.73 37.5156 207.314 39.7703 207.314 41.6935C207.314 43.5801 205.73 45.8738 202.955 45.8738ZM225.927 42.3711C223.242 42.3711 220.45 43.5314 219.302 46.1029L222.599 47.4557C223.309 46.1029 224.614 45.6642 225.994 45.6642C227.922 45.6642 229.877 46.7976 229.907 48.7988V49.0547C229.235 48.6745 227.795 48.1114 226.024 48.1114C222.472 48.1114 218.853 50.0249 218.853 53.5958C218.853 56.8621 221.762 58.9656 225.033 58.9656C227.533 58.9656 228.913 57.8614 229.78 56.5769H229.907V58.461H233.496V49.1108C233.496 44.7891 230.199 42.3711 225.927 42.3711ZM225.479 55.7286C224.263 55.7286 222.569 55.1387 222.569 53.6641C222.569 51.7774 224.682 51.0535 226.51 51.0535C228.146 51.0535 228.913 51.4069 229.907 51.8725C229.616 54.1296 227.631 55.7286 225.479 55.7286ZM246.573 42.9049L242.301 53.4715H242.174L237.758 42.9049H233.75L240.386 57.6713L236.6 65.8881H240.483L250.707 42.9049H246.573ZM213.075 58.5H216.801V34.1251H213.075V58.5Z" fill="black"/>
<defs>
<linearGradient id="paint0_linear_3180_42875" x1="43.4384" y1="61.0167" x2="10.7204" y2="27.584" gradientUnits="userSpaceOnUse">
<stop stop-color="#00A0FF"/>
<stop offset="0.0066" stop-color="#00A1FF"/>
<stop offset="0.2601" stop-color="#00BEFF"/>
<stop offset="0.5122" stop-color="#00D2FF"/>
<stop offset="0.7604" stop-color="#00DFFF"/>
<stop offset="1" stop-color="#00E3FF"/>
</linearGradient>
<linearGradient id="paint1_linear_3180_42875" x1="67.4187" y1="38.9979" x2="19.2041" y2="38.9979" gradientUnits="userSpaceOnUse">
<stop stop-color="#FFE000"/>
<stop offset="0.4087" stop-color="#FFBD00"/>
<stop offset="0.7754" stop-color="#FFA500"/>
<stop offset="1" stop-color="#FF9C00"/>
</linearGradient>
<linearGradient id="paint2_linear_3180_42875" x1="49.4704" y1="34.5226" x2="5.10203" y2="-10.8148" gradientUnits="userSpaceOnUse">
<stop stop-color="#FF3A44"/>
<stop offset="1" stop-color="#C31162"/>
</linearGradient>
<linearGradient id="paint3_linear_3180_42875" x1="14.5408" y1="77.6564" x2="34.3533" y2="57.4114" gradientUnits="userSpaceOnUse">
<stop stop-color="#32A071"/>
<stop offset="0.0685" stop-color="#2DA771"/>
<stop offset="0.4762" stop-color="#15CF74"/>
<stop offset="0.8009" stop-color="#06E775"/>
<stop offset="1" stop-color="#00F076"/>
</linearGradient>
</defs>
</svg>
