<?xml version="1.0" standalone="no"?>
<!DOCTYPE svg PUBLIC "-//W3C//DTD SVG 20010904//EN"
 "http://www.w3.org/TR/2001/REC-SVG-20010904/DTD/svg10.dtd">
<svg version="1.0" xmlns="http://www.w3.org/2000/svg"
 width="323.000000pt" height="363.000000pt" viewBox="0 0 323.000000 363.000000"
 preserveAspectRatio="xMidYMid meet">
<metadata>
Created by potrace 1.10, written by Peter Selinger 2001-2011
</metadata>
<g transform="translate(0.000000,363.000000) scale(0.050000,-0.050000)"
fill="#27a776" stroke="none">
<path d="M3088 6942 c-111 -68 -105 -211 12 -278 73 -42 73 -30 0 -291 -212
-756 -518 -810 -957 -167 l-107 157 42 45 c129 137 -74 312 -234 201 -105 -74
-27 -249 112 -249 44 0 70 -72 104 -290 83 -517 -208 -648 -600 -270 -107 103
-119 122 -98 156 61 97 -40 193 -160 152 -114 -40 -57 -208 71 -208 79 0 364
-375 519 -684 l69 -136 1336 0 1336 0 58 124 c146 309 441 696 530 696 100 0
162 129 95 196 -83 83 -241 -13 -200 -121 58 -155 -394 -451 -565 -369 -185
88 -180 719 6 756 201 41 171 278 -35 278 -137 0 -202 -123 -121 -227 138
-175 -488 -733 -700 -624 -124 65 -283 395 -358 745 -18 81 -16 85 59 146 185
148 -11 386 -214 262z"/>
<path d="M1380 4275 l0 -565 561 -561 560 -561 -5 -258 -6 -259 -275 356
c-238 309 -275 367 -275 430 0 68 -22 96 -280 353 l-280 279 0 -455 0 -455
835 -1079 835 -1079 5 1204 5 1204 -561 562 -561 561 6 159 6 159 275 6 275 5
0 -346 0 -346 280 -279 280 -279 0 904 0 905 -840 0 -840 0 0 -565z"/>
<path d="M3320 2627 c0 -1218 5 -2209 11 -2203 5 6 131 167 279 358 l270 348
0 733 0 733 275 264 275 265 5 -634 6 -635 279 362 280 361 0 1130 0 1131
-840 0 -840 0 0 -2213z m1116 1483 l5 -160 -280 -280 -281 -279 0 445 0 445
275 -5 275 -6 6 -160z"/>
</g>
</svg>
