<svg xmlns="http://www.w3.org/2000/svg" xmlns:xlink="http://www.w3.org/1999/xlink" viewBox="0 0 101 102.23"><defs><style>.cls-1,.cls-7{fill:none;}.cls-2{fill:#f5f5f5;}.cls-3{clip-path:url(#clip-path);}.cls-4,.cls-6{fill:#fff;}.cls-4,.cls-7{stroke:#666669;}.cls-5{fill:#666669;}</style><clipPath id="clip-path"><circle class="cls-1" cx="50.02" cy="50.04" r="49.23"/></clipPath></defs><title>Therapist 1</title><g id="Layer_2" data-name="Layer 2"><g id="Layer_1-2" data-name="Layer 1"><circle id="Ellipse_51" data-name="Ellipse 51" class="cls-2" cx="50.64" cy="50.67" r="49.86"/><g class="cls-3"><g id="Mask_Group_25" data-name="Mask Group 25"><g id="Group_31" data-name="Group 31"><g id="Group_30" data-name="Group 30"><path id="Path_24" data-name="Path 24" class="cls-4" d="M89.4,89.84v11.89H10.63V89.84a7.63,7.63,0,0,1,4.84-7.12l16.62-6.56,13,14.31,4.07-8.32v0l.9-1.86L51,82.13,55,90.47,68,76.16l16.63,6.56a7.66,7.66,0,0,1,4.82,7.12"/><path id="Path_25" data-name="Path 25" class="cls-5" d="M61.63,73.7h0V66.93a36.5,36.5,0,0,1-3,4L57,72.68a7.81,7.81,0,0,1-5.76,2.55H48.79A7.85,7.85,0,0,1,43,72.68L41.42,70.9a35.11,35.11,0,0,1-3.05-4v6.81h0l10.12,5.73,1.5.84,1.49-.84Z"/><g id="Group_26" data-name="Group 26"><g id="Group_21" data-name="Group 21"><path id="Path_8" data-name="Path 8" class="cls-5" d="M45.86,74.63h0l0,0-.05,0,6.18,4.62,9.72-5.5h0V67s-2.31,3-3,3.93L57,72.67a7.86,7.86,0,0,1-5.76,2.56H48.79a6.62,6.62,0,0,1-1.47-.16,6.82,6.82,0,0,1-1.46-.44"/></g></g><g id="Group_27" data-name="Group 27"><path id="Path_9" data-name="Path 9" class="cls-5" d="M38.5,53.13c.25,3-1.18,5.5-3.2,5.68s-3.86-2.08-4.12-5,1.17-5.49,3.19-5.67,3.87,2.07,4.13,5"/><path id="Path_10" data-name="Path 10" class="cls-5" d="M68.87,53.77c-.26,3-2.11,5.21-4.13,5s-3.45-2.72-3.19-5.68,2.1-5.21,4.12-5,3.45,2.72,3.2,5.67"/></g><path id="Path_26" data-name="Path 26" class="cls-4" d="M66.76,53.14A32.35,32.35,0,0,1,58.62,70.9L57,72.68a7.83,7.83,0,0,1-5.76,2.55H48.79A7.81,7.81,0,0,1,43,72.68L41.42,70.9a32.49,32.49,0,0,1-8.14-17.76,63.5,63.5,0,0,1,0-11.86,17,17,0,0,1,33.48,0,65.26,65.26,0,0,1,0,11.86"/><path id="Path_27" data-name="Path 27" class="cls-5" d="M37.23,31.21s.11-11.09,16.18-7.55a27.89,27.89,0,0,1,13.09,10s4.81,7,2.19,12.93A14.15,14.15,0,0,0,67,52.41s-.9-3.74-1.43-6.86a14.61,14.61,0,0,0-3.27-7.07l-.05-.06A11.23,11.23,0,0,0,51,34.74,20.28,20.28,0,0,0,44.38,38s-6.69-4.51-10,3.38a42.84,42.84,0,0,0-1.27,10.33S23.9,32.36,37.23,31.21"/><g id="Group_29" data-name="Group 29"><path id="Path_17" data-name="Path 17" class="cls-4" d="M68,76.17,55.84,92.11,50,80.27l1.5-.84,10.12-5.74h0Z"/><path id="Path_18" data-name="Path 18" class="cls-4" d="M32.08,76.17,44.2,92.11,50,80.27l-1.49-.84L38.39,73.69h0Z"/></g><path id="Path_30" data-name="Path 30" class="cls-5" d="M44.2,101.74l3.32-7.58-1.43-2.11L45,90.47l4.07-8.33.9-1.87.93,1.87h0L55,90.47,53.94,92l-1.43,2.12,3.33,7.58Z"/><path id="Path_31" data-name="Path 31" class="cls-4" d="M55,90.46,53.94,92,50,84l-3.94,8L45,90.46l4.07-8.33.9-1.86.93,1.86v0Z"/><path id="Path_33" data-name="Path 33" class="cls-6" d="M30.19,93.58a2.5,2.5,0,1,1-2.49-2.5,2.49,2.49,0,0,1,2.49,2.5h0"/></g></g></g></g><circle class="cls-7" cx="50.5" cy="50.5" r="50"/></g></g></svg>