<svg xmlns="http://www.w3.org/2000/svg" xmlns:xlink="http://www.w3.org/1999/xlink" viewBox="0 0 104 105"><defs><style>.cls-1{fill:none;}.cls-2{fill:#d8eef3;}.cls-3{fill:#3da8c0;}.cls-4{clip-path:url(#clip-path);}.cls-5,.cls-6{fill:#fff;}.cls-5{stroke:#3da8c0;}</style><clipPath id="clip-path"><circle class="cls-1" cx="52" cy="52" r="50"/></clipPath></defs><title>therapist 2</title><g id="Layer_2" data-name="Layer 2"><g id="Layer_1-2" data-name="Layer 1"><g id="Ellipse_51" data-name="Ellipse 51"><circle class="cls-2" cx="52" cy="52" r="51" transform="translate(-15.94 23.86) rotate(-22.5)"/><path class="cls-3" d="M52,2A50,50,0,1,1,2,52,50,50,0,0,1,52,2m0-2a52,52,0,1,0,52,52A52.06,52.06,0,0,0,52,0Z"/></g><g class="cls-4"><g id="Mask_Group_25" data-name="Mask Group 25"><g id="Group_31" data-name="Group 31"><g id="Group_30" data-name="Group 30"><path id="Path_24" data-name="Path 24" class="cls-5" d="M92,92.42V104.5H12V92.42a7.74,7.74,0,0,1,4.92-7.23l16.87-6.66L47,93.06l4.13-8.45v0L52,82.7,53,84.59l4.13,8.47L70.23,78.53l16.88,6.66A7.78,7.78,0,0,1,92,92.42"/><path id="Path_25" data-name="Path 25" class="cls-3" d="M63.8,76h0V69.15a37.37,37.37,0,0,1-3.07,4L59.11,75a8,8,0,0,1-5.85,2.6h-2.5A8,8,0,0,1,44.91,75l-1.64-1.8a38.43,38.43,0,0,1-3.1-4.08V76l0,0,10.28,5.82L52,82.7l1.52-.85Z"/><g id="Group_26" data-name="Group 26"><g id="Group_21" data-name="Group 21"><path id="Path_8" data-name="Path 8" class="cls-3" d="M47.78,77h0l0,0h-.06l6.29,4.68L63.8,76h0V69.18s-2.35,3.09-3.08,4L59.1,75a8,8,0,0,1-5.85,2.59h-2.5a6.71,6.71,0,0,1-1.48-.16A7.75,7.75,0,0,1,47.78,77"/></g></g><g id="Group_27" data-name="Group 27"><path id="Path_9" data-name="Path 9" class="cls-3" d="M40.3,55.14c.26,3-1.19,5.58-3.24,5.76s-3.93-2.11-4.19-5.11,1.19-5.58,3.24-5.76,3.93,2.1,4.19,5.11"/><path id="Path_10" data-name="Path 10" class="cls-3" d="M71.15,55.79c-.26,3-2.14,5.29-4.2,5.11s-3.5-2.76-3.24-5.76S65.85,49.85,67.9,50s3.51,2.76,3.25,5.76"/></g><path id="Path_26" data-name="Path 26" class="cls-5" d="M69,55.15a32.79,32.79,0,0,1-8.26,18L59.11,75a8,8,0,0,1-5.85,2.6h-2.5A8,8,0,0,1,44.91,75l-1.64-1.81a33,33,0,0,1-8.27-18,65.55,65.55,0,0,1,0-12,17.22,17.22,0,0,1,34,0,63.83,63.83,0,0,1,0,12"/><path id="Path_27" data-name="Path 27" class="cls-3" d="M39,32.88s.12-11.27,16.43-7.67a28.19,28.19,0,0,1,13.3,10.11S73.62,42.44,71,48.44a14.33,14.33,0,0,0-1.68,6s-.91-3.8-1.45-7a14.84,14.84,0,0,0-3.32-7.18l0-.06A11.39,11.39,0,0,0,53,36.46a20.4,20.4,0,0,0-6.76,3.32s-6.79-4.58-10.16,3.43A43.67,43.67,0,0,0,34.83,53.7S25.48,34,39,32.88"/><g id="Group_29" data-name="Group 29"><path id="Path_17" data-name="Path 17" class="cls-5" d="M70.21,78.53,57.92,94.73,52,82.7l1.51-.86L63.8,76h0l0,0Z"/><path id="Path_18" data-name="Path 18" class="cls-5" d="M33.78,78.53,46.1,94.73l5.9-12-1.52-.86L40.2,76l0,0Z"/></g><path id="Path_30" data-name="Path 30" class="cls-3" d="M46.1,104.51l3.36-7.7L48,94.67,47,93.06l4.13-8.46L52,82.7l.93,1.9h0l4.14,8.45L56,94.65l-1.45,2.16,3.39,7.7Z"/><path id="Path_31" data-name="Path 31" class="cls-5" d="M57.07,93.05,56,94.65,52,86.5l-4,8.16L47,93.05l4.13-8.46L52,82.7l.94,1.89v0Z"/><path id="Path_33" data-name="Path 33" class="cls-6" d="M31.87,96.22a2.54,2.54,0,1,1-2.53-2.54,2.55,2.55,0,0,1,2.53,2.54h0"/></g></g></g></g></g></g></svg>