<svg width="268" height="78" viewBox="0 0 268 78" fill="none" xmlns="http://www.w3.org/2000/svg">
<path d="M266.51 69.0055C266.51 73.1622 263.099 76.5293 258.879 76.5293H9.1299C4.91198 76.5293 1.48828 73.1622 1.48828 69.0055V9.00621C1.48828 4.85146 4.91198 1.47266 9.1299 1.47266H258.877C263.099 1.47266 266.509 4.85146 266.509 9.00621L266.51 69.0055Z" fill="white"/>
<path d="M258.074 1.56244C262.67 1.56244 266.409 5.23576 266.409 9.75001V68.25C266.409 72.7643 262.67 76.4376 258.074 76.4376H9.92593C5.33022 76.4376 1.59063 72.7643 1.59063 68.25V9.75001C1.59063 5.23576 5.33022 1.56244 9.92593 1.56244H258.074ZM258.074 7.62939e-06H9.92593C4.46915 7.62939e-06 0 4.38995 0 9.75001V68.25C0 73.6101 4.46915 78 9.92593 78H258.074C263.531 78 268 73.6101 268 68.25V9.75001C268 4.38995 263.531 7.62939e-06 258.074 7.62939e-06Z" fill="#A6A6A6"/>
<path d="M59.8099 38.5787C59.7523 32.2938 65.0488 29.2362 65.291 29.0939C62.2914 24.798 57.6421 24.2111 56.0083 24.1643C52.1034 23.7606 48.3157 26.4594 46.3265 26.4594C44.2977 26.4594 41.2345 24.2033 37.9332 24.2696C33.6849 24.3339 29.7105 26.75 27.5308 30.5018C23.0324 38.1516 26.3873 49.3934 30.6972 55.5768C32.8531 58.6052 35.3723 61.9865 38.6697 61.8675C41.8956 61.7369 43.1006 59.8473 46.9935 59.8473C50.8508 59.8473 51.9823 61.8675 55.3452 61.7915C58.8074 61.7369 60.9871 58.7495 63.0676 55.6938C65.559 52.2228 66.5595 48.8045 66.5992 48.629C66.5178 48.6017 59.8754 46.1115 59.8099 38.5787Z" fill="black"/>
<path d="M53.4573 20.0966C55.1923 17.9652 56.3795 15.0656 56.0499 12.123C53.5387 12.2322 50.3981 13.8293 48.5896 15.9138C46.9896 17.7507 45.5602 20.7615 45.9295 23.5929C48.7504 23.7996 51.6468 22.1948 53.4573 20.0966Z" fill="black"/>
<path d="M97.3735 19.5194C97.3735 21.8146 96.6727 23.5423 95.2731 24.7025C93.9768 25.7731 92.1346 26.3093 89.7484 26.3093C88.5652 26.3093 87.5528 26.2586 86.7051 26.1572V13.6168C87.8108 13.4413 89.0019 13.3516 90.2883 13.3516C92.5614 13.3516 94.2746 13.8371 95.43 14.8082C96.7243 15.9061 97.3735 17.4758 97.3735 19.5194ZM95.1798 19.576C95.1798 18.0881 94.7788 16.9474 93.9768 16.1518C93.1748 15.3581 92.0035 14.9603 90.4611 14.9603C89.8059 14.9603 89.2481 15.0032 88.7856 15.0929V24.6265C89.0416 24.6655 89.5101 24.683 90.1911 24.683C91.7832 24.683 93.012 24.2482 93.8776 23.3785C94.7431 22.5088 95.1798 21.2413 95.1798 19.576Z" fill="black"/>
<path d="M109.005 21.5237C109.005 22.9375 108.595 24.0958 107.773 25.0045C106.911 25.9385 105.77 26.4046 104.344 26.4046C102.97 26.4046 101.877 25.958 101.061 25.061C100.247 24.166 99.8398 23.0369 99.8398 21.6758C99.8398 20.2523 100.259 19.0843 101.1 18.1775C101.942 17.2708 103.074 16.8164 104.499 16.8164C105.873 16.8164 106.977 17.263 107.812 18.158C108.606 19.0277 109.005 20.1509 109.005 21.5237ZM106.848 21.59C106.848 20.7418 106.661 20.0144 106.29 19.408C105.853 18.6748 105.232 18.3082 104.424 18.3082C103.588 18.3082 102.953 18.6748 102.516 19.408C102.143 20.0144 101.958 20.7535 101.958 21.6271C101.958 22.4753 102.145 23.2027 102.516 23.8091C102.967 24.5423 103.594 24.9089 104.404 24.9089C105.198 24.9089 105.821 24.5365 106.27 23.7896C106.655 23.1715 106.848 22.4383 106.848 21.59Z" fill="black"/>
<path d="M124.6 17.0039L121.672 26.1962H119.766L118.553 22.2046C118.245 21.2081 117.995 20.2175 117.801 19.2347H117.763C117.582 20.2448 117.332 21.2335 117.01 22.2046L115.722 26.1962H113.794L111.041 17.0039H113.179L114.237 21.3739C114.493 22.4074 114.704 23.3921 114.872 24.3242H114.91C115.065 23.5559 115.321 22.577 115.682 21.3934L117.01 17.0059H118.706L119.978 21.2998C120.286 22.3469 120.536 23.3551 120.729 24.3262H120.786C120.927 23.3804 121.14 22.3723 121.422 21.2998L122.557 17.0059H124.6V17.0039Z" fill="black"/>
<path d="M135.386 26.1959H133.306V20.9309C133.306 19.3085 132.679 18.4973 131.42 18.4973C130.803 18.4973 130.304 18.7196 129.917 19.1661C129.534 19.6127 129.339 20.1392 129.339 20.7417V26.194H127.259V19.6302C127.259 18.8229 127.233 17.9474 127.184 16.9997H129.012L129.109 18.4368H129.167C129.409 17.9903 129.77 17.6217 130.245 17.3273C130.809 16.9841 131.44 16.8105 132.131 16.8105C133.004 16.8105 133.731 17.0874 134.308 17.6432C135.027 18.3237 135.386 19.3397 135.386 20.6891V26.1959Z" fill="black"/>
<path d="M141.123 26.1953H139.045V12.7852H141.123V26.1953Z" fill="black"/>
<path d="M153.371 21.5237C153.371 22.9375 152.96 24.0958 152.138 25.0045C151.276 25.9385 150.133 26.4046 148.709 26.4046C147.334 26.4046 146.24 25.958 145.426 25.061C144.612 24.166 144.205 23.0369 144.205 21.6758C144.205 20.2523 144.624 19.0843 145.466 18.1775C146.307 17.2708 147.439 16.8164 148.862 16.8164C150.238 16.8164 151.34 17.263 152.178 18.158C152.972 19.0277 153.371 20.1509 153.371 21.5237ZM151.211 21.59C151.211 20.7418 151.024 20.0144 150.653 19.408C150.218 18.6748 149.595 18.3082 148.789 18.3082C147.951 18.3082 147.316 18.6748 146.881 19.408C146.508 20.0144 146.323 20.7535 146.323 21.6271C146.323 22.4753 146.51 23.2027 146.881 23.8091C147.332 24.5423 147.959 24.9089 148.769 24.9089C149.563 24.9089 150.184 24.5365 150.633 23.7896C151.02 23.1715 151.211 22.4383 151.211 21.59Z" fill="black"/>
<path d="M163.44 26.1959H161.572L161.418 25.1371H161.36C160.721 25.9814 159.81 26.4046 158.626 26.4046C157.743 26.4046 157.028 26.1257 156.49 25.5719C156.002 25.0688 155.758 24.4429 155.758 23.6999C155.758 22.5767 156.234 21.7207 157.193 21.1279C158.15 20.5351 159.496 20.2445 161.229 20.2582V20.0866C161.229 18.8756 160.582 18.2711 159.285 18.2711C158.362 18.2711 157.548 18.4993 156.846 18.9517L156.423 17.6101C157.292 17.0816 158.366 16.8164 159.633 16.8164C162.079 16.8164 163.305 18.0839 163.305 20.6189V24.0041C163.305 24.9226 163.351 25.6538 163.44 26.1959ZM161.281 23.0369V21.6193C158.986 21.5803 157.838 22.1984 157.838 23.4718C157.838 23.9515 157.969 24.3103 158.237 24.5501C158.505 24.79 158.847 24.9089 159.254 24.9089C159.71 24.9089 160.137 24.7666 160.526 24.4838C160.917 24.1991 161.158 23.8384 161.247 23.3957C161.269 23.2963 161.281 23.1754 161.281 23.0369Z" fill="black"/>
<path d="M175.261 26.1953H173.415L173.318 24.7192H173.26C172.671 25.8424 171.666 26.404 170.255 26.404C169.127 26.404 168.188 25.9691 167.444 25.0994C166.699 24.2297 166.328 23.1007 166.328 21.7142C166.328 20.2264 166.731 19.0213 167.541 18.1009C168.325 17.2429 169.286 16.8139 170.429 16.8139C171.686 16.8139 172.566 17.2292 173.066 18.0619H173.106V12.7852H175.188V23.7188C175.188 24.6139 175.212 25.4387 175.261 26.1953ZM173.106 22.3187V20.786C173.106 20.5208 173.086 20.3063 173.048 20.1425C172.931 19.6511 172.679 19.2377 172.296 18.9043C171.908 18.5708 171.442 18.4031 170.904 18.4031C170.128 18.4031 169.52 18.7054 169.074 19.3118C168.631 19.9183 168.407 20.6924 168.407 21.6382C168.407 22.5469 168.619 23.284 169.046 23.8514C169.496 24.4559 170.104 24.7582 170.864 24.7582C171.547 24.7582 172.093 24.5066 172.508 24.0016C172.909 23.5355 173.106 22.9739 173.106 22.3187Z" fill="black"/>
<path d="M193.056 21.5237C193.056 22.9375 192.645 24.0958 191.823 25.0045C190.962 25.9385 189.822 26.4046 188.395 26.4046C187.023 26.4046 185.929 25.958 185.112 25.061C184.298 24.166 183.891 23.0369 183.891 21.6758C183.891 20.2523 184.31 19.0843 185.151 18.1775C185.993 17.2708 187.124 16.8164 188.552 16.8164C189.924 16.8164 191.029 17.263 191.863 18.158C192.657 19.0277 193.056 20.1509 193.056 21.5237ZM190.9 21.59C190.9 20.7418 190.714 20.0144 190.342 19.408C189.904 18.6748 189.284 18.3082 188.474 18.3082C187.641 18.3082 187.005 18.6748 186.567 19.408C186.193 20.0144 186.009 20.7535 186.009 21.6271C186.009 22.4753 186.195 23.2027 186.567 23.8091C187.017 24.5423 187.645 24.9089 188.455 24.9089C189.249 24.9089 189.874 24.5365 190.323 23.7896C190.706 23.1715 190.9 22.4383 190.9 21.59Z" fill="black"/>
<path d="M204.242 26.1959H202.163V20.9309C202.163 19.3085 201.536 18.4973 200.275 18.4973C199.658 18.4973 199.16 18.7196 198.775 19.1661C198.389 19.6127 198.197 20.1392 198.197 20.7417V26.194H196.114V19.6302C196.114 18.8229 196.091 17.9474 196.041 16.9997H197.867L197.965 18.4368H198.022C198.266 17.9903 198.628 17.6217 199.1 17.3273C199.666 16.9841 200.295 16.8105 200.988 16.8105C201.86 16.8105 202.586 17.0874 203.164 17.6432C203.884 18.3237 204.242 19.3397 204.242 20.6891V26.1959Z" fill="black"/>
<path d="M218.244 18.5329H215.953V22.9984C215.953 24.1333 216.36 24.7008 217.166 24.7008C217.54 24.7008 217.849 24.6696 218.094 24.6052L218.147 26.1555C217.736 26.3076 217.196 26.3836 216.531 26.3836C215.709 26.3836 215.07 26.1379 214.608 25.6465C214.143 25.1551 213.913 24.3283 213.913 23.1681V18.5329H212.545V17.0022H213.913V15.3174L215.951 14.7129V17.0002H218.242V18.5329H218.244Z" fill="black"/>
<path d="M229.258 26.1953H227.176V20.9693C227.176 19.3216 226.548 18.4967 225.292 18.4967C224.327 18.4967 223.668 18.9745 223.307 19.93C223.245 20.1308 223.209 20.3765 223.209 20.6651V26.1934H221.131V12.7852H223.209V18.3251H223.249C223.904 17.317 224.843 16.8139 226.06 16.8139C226.922 16.8139 227.634 17.0908 228.2 17.6465C228.905 18.3388 229.258 19.3684 229.258 20.7295V26.1953Z" fill="black"/>
<path d="M240.619 21.1649C240.619 21.5315 240.591 21.8396 240.541 22.0911H234.302C234.33 22.9998 234.627 23.6921 235.205 24.1718C235.733 24.6008 236.414 24.8153 237.248 24.8153C238.171 24.8153 239.013 24.671 239.771 24.3804L240.097 25.8C239.209 26.1783 238.165 26.3675 236.956 26.3675C235.507 26.3675 234.365 25.9482 233.54 25.1097C232.71 24.2712 232.299 23.1461 232.299 21.7343C232.299 20.3478 232.682 19.1934 233.454 18.273C234.26 17.2902 235.35 16.7988 236.726 16.7988C238.072 16.7988 239.094 17.2902 239.785 18.273C240.343 19.053 240.619 20.0183 240.619 21.1649ZM238.634 20.6364C238.649 20.03 238.512 19.5074 238.231 19.0667C237.869 18.4992 237.319 18.2145 236.575 18.2145C235.896 18.2145 235.342 18.4914 234.919 19.0472C234.574 19.4898 234.369 20.0183 234.302 20.6364H238.634Z" fill="black"/>
<path d="M106.495 61.433H101.987L99.517 53.8105H90.9331L88.5806 61.433H84.1914L92.6959 35.4824H97.9487L106.495 61.433ZM98.7726 50.6125L96.5393 43.8362C96.303 43.144 95.8603 41.5138 95.2072 38.9476H95.1278C94.8677 40.0513 94.4489 41.6815 93.8731 43.8362L91.6795 50.6125H98.7726Z" fill="black"/>
<path d="M128.367 51.8461C128.367 55.0285 127.491 57.544 125.74 59.3906C124.172 61.0345 122.224 61.8554 119.9 61.8554C117.39 61.8554 115.588 60.9701 114.49 59.1995H114.411V69.0568H110.178V48.8801C110.178 46.8794 110.125 44.8261 110.021 42.7201H113.744L113.98 45.686H114.059C115.471 43.4513 117.613 42.3359 120.487 42.3359C122.735 42.3359 124.611 43.2076 126.111 44.9528C127.616 46.7 128.367 48.9971 128.367 51.8461ZM124.055 51.9982C124.055 50.1769 123.638 48.6754 122.8 47.4937C121.885 46.2613 120.656 45.6451 119.116 45.6451C118.071 45.6451 117.122 45.9883 116.275 46.6649C115.425 47.3474 114.869 48.2386 114.609 49.3423C114.478 49.8571 114.413 50.2783 114.413 50.6098V53.7298C114.413 55.0909 114.838 56.2394 115.687 57.1774C116.537 58.1153 117.641 58.5833 118.998 58.5833C120.593 58.5833 121.833 57.9788 122.721 56.7737C123.61 55.5667 124.055 53.9755 124.055 51.9982Z" fill="black"/>
<path d="M150.277 51.8461C150.277 55.0285 149.401 57.544 147.648 59.3906C146.082 61.0345 144.135 61.8554 141.81 61.8554C139.301 61.8554 137.498 60.9701 136.402 59.1995H136.323V69.0568H132.09V48.8801C132.09 46.8794 132.037 44.8261 131.934 42.7201H135.656L135.892 45.686H135.971C137.381 43.4513 139.523 42.3359 142.399 42.3359C144.645 42.3359 146.521 43.2076 148.026 44.9528C149.524 46.7 150.277 48.9971 150.277 51.8461ZM145.965 51.9982C145.965 50.1769 145.546 48.6754 144.708 47.4937C143.793 46.2613 142.568 45.6451 141.026 45.6451C139.98 45.6451 139.033 45.9883 138.183 46.6649C137.333 47.3474 136.779 48.2386 136.519 49.3423C136.39 49.8571 136.323 50.2783 136.323 50.6098V53.7298C136.323 55.0909 136.748 56.2394 137.593 57.1774C138.443 58.1134 139.547 58.5833 140.909 58.5833C142.503 58.5833 143.743 57.9788 144.631 56.7737C145.52 55.5667 145.965 53.9755 145.965 51.9982Z" fill="black"/>
<path d="M174.773 54.155C174.773 56.3624 173.992 58.1584 172.426 59.5448C170.705 61.06 168.309 61.8166 165.23 61.8166C162.387 61.8166 160.108 61.2784 158.383 60.2L159.364 56.7349C161.222 57.8386 163.26 58.3924 165.482 58.3924C167.076 58.3924 168.317 58.0375 169.208 57.3316C170.095 56.6257 170.538 55.678 170.538 54.4963C170.538 53.4433 170.173 52.556 169.44 51.8365C168.712 51.1169 167.495 50.4481 165.795 49.8299C161.17 48.1354 158.859 45.653 158.859 42.3887C158.859 40.2554 159.669 38.5063 161.291 37.1452C162.907 35.7821 165.063 35.1016 167.759 35.1016C170.163 35.1016 172.16 35.513 173.754 36.334L172.696 39.7231C171.207 38.9275 169.524 38.5297 167.64 38.5297C166.151 38.5297 164.988 38.8904 164.154 39.608C163.449 40.2496 163.096 41.0315 163.096 41.9578C163.096 42.9835 163.499 43.8317 164.309 44.4986C165.013 45.1148 166.294 45.7817 168.152 46.5013C170.425 47.4002 172.094 48.4513 173.168 49.6564C174.238 50.8576 174.773 52.361 174.773 54.155Z" fill="black"/>
<path d="M188.767 45.841H184.102V54.9261C184.102 57.2368 184.924 58.3912 186.572 58.3912C187.328 58.3912 187.955 58.3269 188.452 58.1982L188.569 61.3552C187.735 61.6614 186.637 61.8154 185.277 61.8154C183.606 61.8154 182.3 61.3143 181.357 60.3139C180.418 59.3116 179.945 57.6307 179.945 55.2693V45.8371H177.166V42.7171H179.945V39.291L184.102 38.0586V42.7171H188.767V45.841Z" fill="black"/>
<path d="M209.815 51.9221C209.815 54.7984 208.977 57.1598 207.306 59.0065C205.553 60.9077 203.226 61.8554 200.326 61.8554C197.531 61.8554 195.305 60.9448 193.646 59.1235C191.986 57.3022 191.156 55.0031 191.156 52.2322C191.156 49.3325 192.01 46.9574 193.723 45.1108C195.432 43.2622 197.739 42.3379 200.639 42.3379C203.435 42.3379 205.684 43.2485 207.381 45.0718C209.005 46.8404 209.815 49.1239 209.815 51.9221ZM205.424 52.0567C205.424 50.3309 205.049 48.8509 204.288 47.6165C203.401 46.1228 202.132 45.3779 200.489 45.3779C198.787 45.3779 197.495 46.1248 196.608 47.6165C195.847 48.8528 195.472 50.3563 195.472 52.1347C195.472 53.8604 195.847 55.3405 196.608 56.5729C197.523 58.0666 198.801 58.8115 200.451 58.8115C202.067 58.8115 203.335 58.051 204.251 56.5339C205.031 55.2761 205.424 53.7805 205.424 52.0567Z" fill="black"/>
<path d="M223.573 46.3763C223.154 46.3003 222.707 46.2613 222.239 46.2613C220.75 46.2613 219.598 46.8131 218.789 47.9188C218.084 48.8938 217.73 50.1262 217.73 51.614V61.4323H213.5L213.54 48.613C213.54 46.4563 213.486 44.4926 213.381 42.722H217.067L217.222 46.3022H217.339C217.786 45.0718 218.491 44.0812 219.456 43.3382C220.399 42.6694 221.417 42.3359 222.515 42.3359C222.906 42.3359 223.259 42.3632 223.573 42.412V46.3763Z" fill="black"/>
<path d="M242.502 51.1908C242.502 51.9357 242.452 52.5636 242.347 53.0765H229.65C229.699 54.9251 230.313 56.3388 231.492 57.3138C232.562 58.1855 233.946 58.6223 235.645 58.6223C237.525 58.6223 239.24 58.3278 240.783 57.737L241.446 60.623C239.643 61.3952 237.515 61.7793 235.059 61.7793C232.106 61.7793 229.787 60.9252 228.099 59.219C226.416 57.5127 225.572 55.2215 225.572 52.3472C225.572 49.5255 226.356 47.1758 227.927 45.3018C229.57 43.3011 231.792 42.3008 234.587 42.3008C237.332 42.3008 239.411 43.3011 240.822 45.3018C241.94 46.8911 242.502 48.8567 242.502 51.1908ZM238.466 50.1125C238.494 48.8801 238.218 47.8154 237.644 46.9164C236.912 45.7601 235.786 45.1829 234.271 45.1829C232.888 45.1829 231.762 45.7464 230.902 46.8774C230.198 47.7764 229.779 48.8547 229.65 50.1105H238.466V50.1125Z" fill="black"/>
</svg>
