<svg width="36" height="22" viewBox="0 0 36 22" fill="none" xmlns="http://www.w3.org/2000/svg">
<g clip-path="url(#clip0_2941_41783)">
<path d="M23.1901 2.35352H13.7266V19.648H23.1901V2.35352Z" fill="#FF5F00"/>
<path d="M14.3281 11C14.3281 7.48611 15.9504 4.36945 18.444 2.35278C16.6113 0.886115 14.298 0 11.7744 0C5.7959 0 0.958984 4.91944 0.958984 11C0.958984 17.0806 5.7959 22 11.7744 22C14.298 22 16.6113 21.1139 18.444 19.6472C15.9504 17.6611 14.3281 14.5139 14.3281 11Z" fill="#EB001B"/>
<path d="M35.9596 11C35.9596 17.0806 31.1227 22 25.1441 22C22.6205 22 20.3072 21.1139 18.4746 19.6472C20.9982 17.6306 22.5905 14.5139 22.5905 11C22.5905 7.48611 20.9682 4.36945 18.4746 2.35278C20.3072 0.886115 22.6205 0 25.1441 0C31.1227 0 35.9596 4.95 35.9596 11Z" fill="#F79E1B"/>
</g>
<defs>
<clipPath id="clip0_2941_41783">
<rect width="35" height="22" fill="white" transform="translate(0.958984)"/>
</clipPath>
</defs>
</svg>
