<svg width="463" height="368" viewBox="0 0 463 368" fill="none" xmlns="http://www.w3.org/2000/svg">
<g clip-path="url(#clip0_3180_42879)">
<path d="M0 308.773H462.778V309.316H0V308.773Z" fill="#4D4D4F"/>
<path d="M308.963 91.5659H243.927V14.3189H208.715V13.8262H244.42V91.0748H308.962L308.963 91.5659Z" fill="#4D4D4F"/>
<path d="M90.4776 80.6953H161.421C162.403 80.6953 163.344 81.0846 164.039 81.7775C164.733 82.4704 165.123 83.4102 165.123 84.3902V105.096C165.123 106.076 164.733 107.016 164.039 107.709C163.344 108.402 162.403 108.791 161.421 108.791H90.4776C89.4957 108.791 88.554 108.402 87.8597 107.709C87.1654 107.016 86.7754 106.076 86.7754 105.096V84.3902C86.7754 83.4102 87.1654 82.4704 87.8597 81.7775C88.554 81.0846 89.4957 80.6953 90.4776 80.6953V80.6953Z" fill="white"/>
<path d="M161.421 109.039H90.4783C89.4313 109.037 88.4278 108.622 87.6874 107.883C86.9471 107.144 86.5305 106.142 86.5293 105.097V84.3923C86.5306 83.3474 86.9471 82.3457 87.6874 81.6069C88.4278 80.868 89.4313 80.4525 90.4783 80.4512H161.421C162.468 80.4525 163.471 80.868 164.211 81.6069C164.952 82.3457 165.368 83.3474 165.37 84.3923V105.098C165.368 106.143 164.952 107.144 164.211 107.883C163.471 108.622 162.468 109.037 161.421 109.039ZM90.4783 80.9437C89.5622 80.9449 88.6841 81.3088 88.0363 81.9552C87.3886 82.6017 87.0243 83.4781 87.0231 84.3923V105.098C87.0243 106.012 87.3886 106.889 88.0363 107.535C88.6841 108.182 89.5622 108.545 90.4783 108.547H161.421C162.337 108.545 163.215 108.182 163.863 107.535C164.51 106.889 164.875 106.012 164.876 105.098V84.3923C164.875 83.4781 164.51 82.6017 163.863 81.9552C163.215 81.3088 162.337 80.9449 161.421 80.9437H90.4783Z" fill="#4D4D4F"/>
<path d="M120.446 89.2246H157.839C158.12 89.2246 158.39 89.3362 158.589 89.5349C158.789 89.7336 158.9 90.0031 158.9 90.2841C158.9 90.5651 158.789 90.8346 158.589 91.0333C158.39 91.232 158.12 91.3436 157.839 91.3436H120.446C120.165 91.3436 119.895 91.232 119.696 91.0333C119.497 90.8346 119.385 90.5651 119.385 90.2841V90.2841C119.385 90.0031 119.497 89.7336 119.696 89.5349C119.895 89.3362 120.165 89.2246 120.446 89.2246V89.2246Z" fill="#4D4D4F"/>
<path d="M120.446 98.4785H157.839C158.12 98.4785 158.39 98.5901 158.589 98.7888C158.789 98.9875 158.9 99.257 158.9 99.538C158.9 99.819 158.789 100.089 158.589 100.287C158.39 100.486 158.12 100.598 157.839 100.598H120.446C120.165 100.598 119.895 100.486 119.696 100.287C119.497 100.089 119.385 99.819 119.385 99.538V99.538C119.385 99.257 119.497 98.9875 119.696 98.7888C119.895 98.5901 120.165 98.4785 120.446 98.4785V98.4785Z" fill="#4D4D4F"/>
<path d="M90.4776 135.945H161.421C162.403 135.945 163.344 136.335 164.039 137.028C164.733 137.72 165.123 138.66 165.123 139.64V160.346C165.123 161.326 164.733 162.266 164.039 162.959C163.344 163.652 162.403 164.041 161.421 164.041H90.4776C89.4957 164.041 88.554 163.652 87.8597 162.959C87.1654 162.266 86.7754 161.326 86.7754 160.346V139.64C86.7754 138.66 87.1654 137.72 87.8597 137.028C88.554 136.335 89.4957 135.945 90.4776 135.945V135.945Z" fill="white"/>
<path d="M161.421 164.287H90.4783C89.4313 164.286 88.4277 163.87 87.6874 163.131C86.9472 162.392 86.5307 161.391 86.5293 160.346V139.64C86.5307 138.596 86.9472 137.594 87.6874 136.855C88.4277 136.116 89.4313 135.701 90.4783 135.699H161.421C162.468 135.701 163.471 136.116 164.211 136.855C164.952 137.594 165.368 138.596 165.37 139.64V160.346C165.368 161.391 164.952 162.392 164.211 163.131C163.471 163.87 162.468 164.286 161.421 164.287ZM90.4777 136.191C89.5616 136.192 88.6835 136.556 88.0357 137.202C87.388 137.849 87.0234 138.725 87.0222 139.639V160.345C87.0234 161.259 87.388 162.135 88.0357 162.782C88.6835 163.428 89.5616 163.792 90.4777 163.793H161.421C162.337 163.792 163.215 163.428 163.863 162.782C164.51 162.135 164.875 161.259 164.876 160.345V139.639C164.875 138.725 164.51 137.849 163.863 137.202C163.215 136.556 162.337 136.192 161.421 136.191H90.4777Z" fill="#4D4D4F"/>
<path d="M122.915 144.143H160.308C160.589 144.143 160.859 144.254 161.058 144.453C161.257 144.652 161.369 144.921 161.369 145.202C161.369 145.483 161.257 145.753 161.058 145.951C160.859 146.15 160.589 146.262 160.308 146.262H122.915C122.634 146.262 122.364 146.15 122.164 145.951C121.965 145.753 121.854 145.483 121.854 145.202V145.202C121.854 144.921 121.965 144.652 122.164 144.453C122.364 144.254 122.634 144.143 122.915 144.143V144.143Z" fill="#4D4D4F"/>
<path d="M122.915 153.395H160.308C160.589 153.395 160.859 153.506 161.058 153.705C161.257 153.904 161.369 154.173 161.369 154.454C161.369 154.735 161.257 155.005 161.058 155.203C160.859 155.402 160.589 155.514 160.308 155.514H122.915C122.634 155.514 122.364 155.402 122.164 155.203C121.965 155.005 121.854 154.735 121.854 154.454V154.454C121.854 154.173 121.965 153.904 122.164 153.705C122.364 153.506 122.634 153.395 122.915 153.395V153.395Z" fill="#4D4D4F"/>
<path d="M90.4776 190.863H161.421C162.403 190.863 163.344 191.253 164.039 191.945C164.733 192.638 165.123 193.578 165.123 194.558V215.264C165.123 216.244 164.733 217.184 164.039 217.877C163.344 218.57 162.403 218.959 161.421 218.959H90.4776C89.4957 218.959 88.554 218.57 87.8597 217.877C87.1654 217.184 86.7754 216.244 86.7754 215.264V194.558C86.7754 193.578 87.1654 192.638 87.8597 191.945C88.554 191.253 89.4957 190.863 90.4776 190.863V190.863Z" fill="white"/>
<path d="M161.421 219.207H90.4783C89.4313 219.206 88.4277 218.79 87.6874 218.051C86.9472 217.312 86.5307 216.311 86.5293 215.266V194.56C86.5305 193.515 86.9471 192.514 87.6874 191.775C88.4278 191.036 89.4313 190.62 90.4783 190.619H161.421C162.468 190.62 163.471 191.036 164.212 191.775C164.952 192.514 165.368 193.515 165.37 194.56V215.266C165.368 216.311 164.952 217.312 164.211 218.051C163.471 218.79 162.468 219.206 161.421 219.207ZM90.4783 191.112C89.5622 191.113 88.6841 191.477 88.0363 192.123C87.3886 192.77 87.0243 193.646 87.0231 194.56V215.266C87.0243 216.18 87.3886 217.056 88.0363 217.703C88.6841 218.349 89.5622 218.713 90.4783 218.714H161.421C162.337 218.713 163.215 218.349 163.863 217.703C164.51 217.056 164.875 216.18 164.876 215.266V194.56C164.875 193.646 164.51 192.77 163.863 192.123C163.215 191.477 162.337 191.113 161.421 191.112H90.4783Z" fill="#4D4D4F"/>
<path d="M123.081 199.021H160.474C160.755 199.021 161.025 199.133 161.224 199.332C161.423 199.531 161.535 199.8 161.535 200.081C161.535 200.362 161.423 200.631 161.224 200.83C161.025 201.029 160.755 201.14 160.474 201.14H123.081C122.8 201.14 122.53 201.029 122.33 200.83C122.131 200.631 122.02 200.362 122.02 200.081V200.081C122.02 199.8 122.131 199.531 122.33 199.332C122.53 199.133 122.8 199.021 123.081 199.021V199.021Z" fill="#4D4D4F"/>
<path d="M123.081 208.275H160.474C160.755 208.275 161.025 208.387 161.224 208.586C161.423 208.784 161.535 209.054 161.535 209.335C161.535 209.616 161.423 209.885 161.224 210.084C161.025 210.283 160.755 210.394 160.474 210.394H123.081C122.8 210.394 122.53 210.283 122.33 210.084C122.131 209.885 122.02 209.616 122.02 209.335V209.335C122.02 209.054 122.131 208.784 122.33 208.586C122.53 208.387 122.8 208.275 123.081 208.275V208.275Z" fill="#4D4D4F"/>
<path d="M87.0168 120.219C101.114 120.219 112.542 108.814 112.542 94.7454C112.542 80.6766 101.114 69.2715 87.0168 69.2715C72.92 69.2715 61.4922 80.6766 61.4922 94.7454C61.4922 108.814 72.92 120.219 87.0168 120.219Z" fill="white"/>
<path d="M87.0172 120.465C81.9201 120.465 76.9377 118.957 72.6997 116.131C68.4616 113.305 65.1585 109.288 63.2079 104.588C61.2573 99.8883 60.7469 94.7169 61.7412 89.7278C62.7356 84.7386 65.19 80.1556 68.7941 76.5586C72.3982 72.9616 76.9902 70.5121 81.9893 69.5197C86.9884 68.5272 92.1701 69.0365 96.8792 70.9831C101.588 72.9297 105.613 76.2263 108.445 80.4559C111.277 84.6854 112.788 89.6581 112.788 94.7451C112.781 101.564 110.063 108.102 105.232 112.923C100.4 117.745 93.8498 120.458 87.0172 120.465ZM87.0172 69.5177C82.0177 69.5176 77.1305 70.9971 72.9735 73.7691C68.8166 76.5412 65.5764 80.4812 63.6632 85.091C61.7499 89.7007 61.2495 94.7732 62.2248 99.6669C63.2002 104.561 65.6075 109.056 69.1427 112.584C72.6779 116.112 77.1819 118.515 82.0854 119.488C86.9888 120.462 92.0714 119.962 96.6903 118.053C101.309 116.143 105.257 112.91 108.035 108.761C110.812 104.612 112.295 99.7346 112.295 94.7451C112.287 88.0567 109.621 81.6443 104.883 76.9149C100.144 72.1855 93.7188 69.5253 87.0172 69.5177Z" fill="#4D4D4F"/>
<path d="M87.2161 179.439C92.2644 179.439 97.1993 180.933 101.397 183.733C105.594 186.532 108.866 190.51 110.798 195.165C112.73 199.82 113.235 204.942 112.25 209.883C111.265 214.825 108.834 219.364 105.265 222.926C101.695 226.489 97.147 228.915 92.1957 229.898C87.2444 230.881 82.1122 230.376 77.4482 228.448C72.7842 226.52 68.7978 223.255 65.9931 219.066C63.1884 214.877 61.6914 209.952 61.6914 204.913C61.6914 198.157 64.3806 191.678 69.1674 186.901C73.9542 182.123 80.4465 179.439 87.2161 179.439V179.439Z" fill="white"/>
<path d="M87.2161 230.633C82.119 230.633 77.1366 229.125 72.8986 226.299C68.6606 223.472 65.3577 219.455 63.4071 214.756C61.4566 210.056 60.9461 204.885 61.9405 199.895C62.9349 194.906 65.3894 190.323 68.9936 186.726C72.5978 183.129 77.19 180.68 82.1891 179.688C87.1882 178.695 92.3697 179.204 97.0787 181.151C101.788 183.098 105.813 186.394 108.645 190.624C111.476 194.854 112.988 199.826 112.988 204.913C112.98 211.732 110.262 218.27 105.431 223.092C100.599 227.913 94.0487 230.626 87.2161 230.633ZM87.2161 179.686C82.2166 179.686 77.3296 181.166 73.1728 183.938C69.0159 186.71 65.7761 190.65 63.863 195.26C61.9499 199.869 61.4495 204.942 62.4249 209.835C63.4004 214.729 65.8076 219.224 69.3428 222.752C72.878 226.28 77.3821 228.683 82.2855 229.656C87.1889 230.63 92.2715 230.13 96.8904 228.221C101.509 226.311 105.457 223.078 108.235 218.929C111.012 214.78 112.495 209.903 112.495 204.913C112.487 198.225 109.821 191.812 105.082 187.083C100.343 182.353 93.918 179.693 87.2161 179.686Z" fill="#4D4D4F"/>
<path d="M87.0188 124.52C92.0671 124.52 97.002 126.014 101.2 128.813C105.397 131.612 108.669 135.59 110.601 140.245C112.532 144.9 113.038 150.022 112.053 154.963C111.068 159.905 108.637 164.444 105.067 168.006C101.498 171.569 96.9497 173.995 91.9984 174.978C87.0471 175.961 81.915 175.456 77.2509 173.528C72.5869 171.6 68.6005 168.335 65.7958 164.146C62.9911 159.957 61.4941 155.032 61.4941 149.993C61.4941 143.237 64.1833 136.758 68.9701 131.981C73.7569 127.203 80.2492 124.52 87.0188 124.52V124.52Z" fill="white"/>
<path d="M87.0192 175.713C81.9221 175.713 76.9395 174.205 72.7014 171.379C68.4634 168.553 65.1602 164.536 63.2097 159.836C61.2591 155.136 60.7489 149.965 61.7433 144.976C62.7377 139.987 65.192 135.404 68.7961 131.807C72.4003 128.21 76.9925 125.76 81.9916 124.768C86.9907 123.775 92.1725 124.285 96.8815 126.231C101.591 128.178 105.615 131.475 108.447 135.704C111.279 139.934 112.79 144.907 112.79 149.994C112.783 156.812 110.065 163.35 105.234 168.172C100.402 172.993 93.8517 175.706 87.0192 175.713ZM87.0192 124.766C82.0198 124.766 77.1327 126.245 72.9759 129.017C68.819 131.789 65.579 135.729 63.6658 140.339C61.7526 144.949 61.2521 150.021 62.2275 154.915C63.2028 159.808 65.6102 164.303 69.1453 167.831C72.6804 171.36 77.1844 173.762 82.0877 174.736C86.9911 175.709 92.0735 175.21 96.6923 173.3C101.311 171.391 105.259 168.157 108.037 164.009C110.814 159.86 112.297 154.983 112.297 149.994C112.289 143.305 109.623 136.893 104.885 132.163C100.146 127.434 93.7209 124.774 87.0192 124.766Z" fill="#4D4D4F"/>
<path d="M220.602 20.6843H220.6C221.746 18.5587 222.315 16.1715 222.252 13.7588C222.189 11.3461 221.497 8.99159 220.242 6.92821C218.988 4.86483 217.215 3.16405 215.099 1.99435C212.984 0.824655 210.599 0.226509 208.181 0.259075C205.763 0.291641 203.395 0.95379 201.312 2.18003C199.23 3.40626 197.503 5.15413 196.305 7.25055C195.107 9.34696 194.478 11.7193 194.48 14.1329C194.483 16.5464 195.117 18.9173 196.32 21.0113H196.318L196.337 21.04C196.631 21.5487 196.956 22.0382 197.312 22.5059L208.713 39.6301L219.646 22.205C219.989 21.7281 220.302 21.23 220.582 20.7136L220.602 20.6843Z" fill="#43B966"/>
<path d="M208.72 40.0845L197.108 22.6426C196.749 22.1712 196.421 21.6775 196.125 21.1646L195.859 20.7665H195.902C194.759 18.6313 194.186 16.2385 194.238 13.8183C194.289 11.3981 194.964 9.03195 196.197 6.94741C197.431 4.86287 199.181 3.13017 201.279 1.91583C203.377 0.701488 205.753 0.0464165 208.178 0.0136719C208.243 0.0136719 208.308 0.0136719 208.372 0.0136719C210.782 0.0139976 213.153 0.629561 215.258 1.80172C217.362 2.97388 219.132 4.66376 220.398 6.71077C221.664 8.75778 222.385 11.0938 222.491 13.497C222.598 15.9003 222.086 18.2909 221.006 20.4414H221.049L220.791 20.8484C220.509 21.3692 220.194 21.8714 219.848 22.3522L208.72 40.0845ZM196.542 20.9019V20.9036C196.834 21.4077 197.157 21.893 197.509 22.3568L208.708 39.1753L219.438 22.0742C219.779 21.6016 220.088 21.108 220.366 20.5963L220.383 20.5676C221.508 18.4798 222.067 16.1352 222.006 13.7654C221.944 11.3956 221.264 9.08291 220.031 7.05626C218.799 5.02961 217.058 3.35923 214.98 2.21036C212.903 1.06148 210.56 0.473917 208.185 0.5059C205.81 0.537883 203.485 1.18832 201.439 2.39272C199.393 3.59713 197.697 5.31379 196.52 7.37289C195.343 9.43198 194.726 11.7621 194.728 14.1327C194.731 16.5033 195.353 18.832 196.534 20.8887L196.542 20.9019Z" fill="#43B966"/>
<path d="M218.648 13.6849C218.676 15.7138 218.099 17.7053 216.993 19.4075C215.886 21.1097 214.299 22.446 212.431 23.2477C210.563 24.0495 208.499 24.2806 206.5 23.9117C204.501 23.5427 202.657 22.5903 201.2 21.1751C199.743 19.7598 198.739 17.9452 198.315 15.9607C197.892 13.9761 198.067 11.9108 198.82 10.0258C199.573 8.14091 200.868 6.52113 202.543 5.37117C204.218 4.2212 206.198 3.59278 208.23 3.56538C210.956 3.52887 213.585 4.57439 215.539 6.47214C217.493 8.36988 218.611 10.9644 218.648 13.6849Z" fill="white"/>
<path d="M217.058 13.7052C217.081 15.4202 216.594 17.1036 215.659 18.5425C214.724 19.9814 213.382 21.1111 211.803 21.7889C210.224 22.4667 208.479 22.662 206.789 22.3501C205.099 22.0383 203.54 21.2333 202.308 20.0369C201.077 18.8406 200.228 17.3067 199.87 15.6291C199.512 13.9515 199.661 12.2057 200.297 10.6123C200.933 9.01892 202.029 7.64969 203.445 6.67762C204.861 5.70555 206.534 5.17429 208.252 5.15117C210.556 5.12034 212.778 6.00413 214.43 7.60825C216.081 9.21237 217.026 11.4055 217.058 13.7052Z" fill="#43B966"/>
<path d="M216.262 13.7172C216.283 15.2752 215.841 16.8046 214.991 18.1118C214.141 19.4189 212.922 20.4452 211.488 21.0609C210.054 21.6766 208.468 21.854 206.933 21.5707C205.398 21.2874 203.981 20.556 202.863 19.4692C201.744 18.3824 200.973 16.9888 200.648 15.4648C200.323 13.9408 200.458 12.3547 201.036 10.9072C201.613 9.45973 202.608 8.21575 203.895 7.33265C205.181 6.44955 206.701 5.96705 208.262 5.94602C210.356 5.91799 212.374 6.72099 213.875 8.17834C215.375 9.63569 216.234 11.628 216.262 13.7172Z" fill="#43B966"/>
<path d="M208.368 21.9474C206.217 21.9496 204.152 21.102 202.625 19.5899C201.098 18.0777 200.233 16.0238 200.219 13.8771C200.205 11.7303 201.042 9.66517 202.549 8.13285C204.056 6.60052 206.109 5.72556 208.26 5.69922H208.372C210.511 5.69999 212.565 6.54135 214.087 8.04129C215.61 9.54122 216.48 11.5792 216.509 13.7144C216.536 15.8682 215.705 17.9446 214.2 19.4881C212.694 21.0316 210.637 21.9161 208.479 21.9477L208.368 21.9474ZM208.372 6.1913H208.266C206.246 6.21688 204.319 7.03917 202.904 8.47849C201.489 9.9178 200.703 11.8573 200.717 13.8733C200.73 15.8893 201.542 17.8181 202.976 19.2385C204.41 20.6589 206.348 21.4554 208.368 21.4541H208.473C210.5 21.4244 212.433 20.5936 213.847 19.1438C215.261 17.6939 216.041 15.7435 216.016 13.7202C215.989 11.7145 215.172 9.79998 213.741 8.39099C212.311 6.98199 210.382 6.19176 208.372 6.1913Z" fill="#43B966"/>
<path d="M325.2 139.374C325.199 142.647 324.226 145.847 322.403 148.568C320.58 151.289 317.99 153.409 314.96 154.661C311.929 155.913 308.595 156.24 305.378 155.601C302.162 154.962 299.207 153.385 296.889 151.07C294.57 148.756 292.991 145.807 292.351 142.596C291.712 139.386 292.041 136.058 293.296 133.034C294.551 130.011 296.677 127.426 299.404 125.608C302.131 123.789 305.337 122.819 308.617 122.819C310.798 122.807 312.96 123.228 314.978 124.056C316.995 124.884 318.828 126.103 320.37 127.642C321.913 129.182 323.134 131.012 323.963 133.025C324.792 135.039 325.212 137.197 325.2 139.374Z" fill="white"/>
<path d="M308.616 156.17C304.79 156.174 301.077 154.877 298.088 152.494C295.099 150.111 293.011 146.784 292.169 143.06C291.327 139.335 291.78 135.436 293.454 132.003C295.128 128.57 297.923 125.807 301.379 124.17C304.835 122.533 308.747 122.119 312.47 122.996C316.193 123.873 319.507 125.989 321.865 128.995C324.223 132.002 325.486 135.72 325.445 139.538C325.404 143.355 324.063 147.046 321.641 150.001C320.065 151.931 318.079 153.486 315.826 154.553C313.573 155.62 311.11 156.172 308.616 156.17ZM308.616 123.064C305.386 123.065 302.229 124.021 299.543 125.812C296.858 127.603 294.765 130.149 293.529 133.127C292.293 136.105 291.969 139.382 292.599 142.544C293.229 145.705 294.784 148.61 297.068 150.889C299.351 153.169 302.261 154.722 305.428 155.352C308.596 155.981 311.88 155.66 314.864 154.427C317.848 153.195 320.4 151.107 322.196 148.427C323.991 145.748 324.95 142.597 324.952 139.374C324.948 135.05 323.226 130.905 320.163 127.848C317.1 124.79 312.948 123.07 308.616 123.064V123.064Z" fill="#4D4D4F"/>
<path d="M321.451 149.844C319.897 151.744 317.939 153.274 315.719 154.325C313.499 155.377 311.073 155.922 308.616 155.923C306.158 155.923 303.732 155.379 301.511 154.328C299.291 153.278 297.332 151.748 295.777 149.849C297.379 146.605 301.406 144.16 306.337 143.576V141.289C304.467 140.273 303.168 138.06 303.168 135.487C303.168 131.956 305.607 129.096 308.617 129.096C311.621 129.096 314.061 131.956 314.061 135.487C314.061 138.06 312.762 140.275 310.897 141.289V143.576C315.822 144.16 319.849 146.605 321.451 149.844Z" fill="#43B966"/>
<path d="M308.618 156.17C306.123 156.173 303.659 155.622 301.405 154.556C299.151 153.489 297.163 151.935 295.587 150.006L295.486 149.883L295.557 149.74C297.194 146.425 301.218 143.992 306.091 143.358V141.434C304.161 140.316 302.922 138.001 302.922 135.487C302.922 131.827 305.477 128.85 308.618 128.85C311.759 128.85 314.308 131.827 314.308 135.487C314.308 138 313.072 140.315 311.145 141.434V143.358C316.013 143.992 320.035 146.423 321.673 149.735L321.744 149.877L321.644 150.001C320.07 151.932 318.084 153.488 315.83 154.556C313.576 155.623 311.112 156.174 308.618 156.17ZM296.071 149.817C297.604 151.651 299.522 153.127 301.69 154.14C303.858 155.153 306.222 155.678 308.616 155.677C311.009 155.677 313.373 155.151 315.541 154.138C317.708 153.124 319.626 151.647 321.158 149.812C319.523 146.672 315.6 144.382 310.868 143.821L310.651 143.795V141.144L310.779 141.074C312.623 140.07 313.815 137.877 313.815 135.488C313.815 132.099 311.483 129.342 308.617 129.342C305.752 129.342 303.415 132.099 303.415 135.488C303.415 137.879 304.608 140.071 306.454 141.073L306.583 141.144V143.795L306.366 143.821C301.631 144.382 297.705 146.673 296.071 149.817Z" fill="#4D4D4F"/>
<path d="M224.726 63.0225C224.725 66.2957 223.751 69.4952 221.928 72.2162C220.105 74.9373 217.515 77.0578 214.485 78.3097C211.455 79.5616 208.12 79.8887 204.904 79.2495C201.687 78.6103 198.733 77.0337 196.414 74.7189C194.095 72.404 192.516 69.4551 191.877 66.2447C191.237 63.0343 191.566 59.7069 192.821 56.6829C194.077 53.659 196.202 51.0744 198.929 49.2561C201.656 47.4377 204.862 46.467 208.142 46.467C210.324 46.4556 212.485 46.8761 214.503 47.7041C216.52 48.5321 218.353 49.7512 219.896 51.2908C221.438 52.8305 222.659 54.6602 223.488 56.6739C224.317 58.6876 224.738 60.8455 224.726 63.0225Z" fill="white"/>
<path d="M208.141 79.8186C204.316 79.822 200.603 78.5255 197.613 76.1427C194.624 73.7599 192.537 70.4326 191.695 66.7083C190.852 62.9839 191.305 59.0844 192.979 55.6512C194.653 52.218 197.448 49.4558 200.904 47.8188C204.361 46.1819 208.272 45.7678 211.995 46.6448C215.719 47.5217 219.032 49.6374 221.39 52.6438C223.749 55.6502 225.011 59.3682 224.971 63.186C224.93 67.0038 223.588 70.6941 221.166 73.6497C219.591 75.5791 217.604 77.134 215.351 78.2011C213.098 79.2682 210.635 79.8208 208.141 79.8186ZM208.141 46.7126C204.911 46.7132 201.754 47.6694 199.069 49.4606C196.383 51.2517 194.29 53.7973 193.054 56.7755C191.818 59.7536 191.495 63.0307 192.125 66.1923C192.754 69.3539 194.309 72.2582 196.593 74.5379C198.876 76.8177 201.786 78.3704 204.954 79.0001C208.121 79.6298 211.405 79.3081 214.389 78.0755C217.374 76.843 219.925 74.755 221.721 72.0756C223.517 69.3961 224.476 66.2455 224.477 63.022C224.473 58.6987 222.751 54.5537 219.688 51.4963C216.626 48.4388 212.473 46.7185 208.141 46.7129V46.7126Z" fill="#4D4D4F"/>
<path d="M220.975 73.4927C219.42 75.392 217.462 76.9226 215.242 77.9739C213.022 79.0252 210.596 79.5709 208.139 79.5713C205.682 79.5718 203.255 79.0272 201.035 77.9768C198.815 76.9263 196.856 75.3963 195.301 73.4976C196.903 70.2532 200.93 67.8081 205.86 67.224V64.9378C203.99 63.9217 202.691 61.7089 202.691 59.1357C202.691 55.6044 205.131 52.7441 208.14 52.7441C211.144 52.7441 213.584 55.6044 213.584 59.1357C213.584 61.7089 212.285 63.923 210.421 64.9378V67.224C215.346 67.8081 219.372 70.2533 220.975 73.4927Z" fill="#43B966"/>
<path d="M208.141 79.8182C205.647 79.8218 203.183 79.2704 200.929 78.2041C198.674 77.1378 196.687 75.5835 195.11 73.6542L195.01 73.5311L195.08 73.3887C196.718 70.0738 200.742 67.6406 205.614 67.0069V65.082C203.684 63.9646 202.446 61.649 202.446 59.1359C202.446 55.4758 205.001 52.498 208.142 52.498C211.283 52.498 213.832 55.4758 213.832 59.1359C213.832 61.6481 212.595 63.9634 210.668 65.082V67.0069C215.537 67.6406 219.559 70.0718 221.197 73.3836L221.268 73.5258L221.167 73.649C219.593 75.5805 217.607 77.1368 215.353 78.2041C213.1 79.2714 210.636 79.8229 208.141 79.8182ZM195.595 73.4651C197.127 75.2999 199.045 76.7759 201.213 77.7887C203.381 78.8015 205.745 79.3263 208.139 79.3258C210.533 79.3254 212.897 78.7997 215.064 77.7861C217.232 76.7726 219.149 75.2959 220.682 73.4606C219.046 70.3199 215.123 68.0304 210.392 67.4691L210.174 67.4435V64.792L210.303 64.7221C212.146 63.7183 213.338 61.5259 213.338 59.1362C213.338 55.7477 211.007 52.9907 208.141 52.9907C205.275 52.9907 202.938 55.7477 202.938 59.1362C202.938 61.5271 204.131 63.7196 205.978 64.7218L206.107 64.792V67.4435L205.889 67.4691C201.154 68.0304 197.229 70.3214 195.595 73.4651Z" fill="#4D4D4F"/>
<path d="M103.169 94.7374C103.168 98.0105 102.194 101.21 100.372 103.931C98.5488 106.652 95.9586 108.773 92.9283 110.025C89.8979 111.276 86.5636 111.604 83.347 110.964C80.1305 110.325 77.1761 108.749 74.8573 106.434C72.5386 104.119 70.9597 101.17 70.3202 97.9595C69.6808 94.7492 70.0095 91.4217 71.2648 88.3978C72.5201 85.3738 74.6457 82.7893 77.3728 80.9709C80.0998 79.1525 83.3059 78.1819 86.5856 78.1819C88.7669 78.1704 90.9288 78.5909 92.9463 79.4189C94.9638 80.2469 96.7968 81.466 98.3391 83.0057C99.8813 84.5453 101.102 86.375 101.931 88.3888C102.76 90.4025 103.181 92.5603 103.169 94.7374Z" fill="white"/>
<path d="M86.5846 111.533C82.759 111.537 79.0459 110.24 76.0568 107.858C73.0676 105.475 70.9802 102.147 70.138 98.4231C69.2957 94.6987 69.7488 90.7992 71.4227 87.366C73.0965 83.9328 75.8915 81.1706 79.3477 79.5337C82.8039 77.8967 86.7153 77.4827 90.4387 78.3596C94.1621 79.2366 97.4755 81.3523 99.8338 84.3587C102.192 87.3651 103.455 91.083 103.414 94.9008C103.373 98.7187 102.031 102.409 99.6096 105.365C98.0342 107.294 96.0475 108.849 93.7945 109.916C91.5414 110.983 89.0786 111.536 86.5846 111.533ZM86.5846 78.4274C83.3547 78.428 80.1974 79.3843 77.512 81.1754C74.8266 82.9666 72.7337 85.5122 71.4977 88.4903C70.2617 91.4684 69.938 94.7455 70.5679 97.9071C71.1978 101.069 72.7528 103.973 75.0363 106.253C77.3198 108.533 80.2293 110.085 83.397 110.715C86.5647 111.345 89.8483 111.023 92.8327 109.79C95.8172 108.558 98.3687 106.47 100.164 103.79C101.96 101.111 102.919 97.9603 102.921 94.7368C102.917 90.4136 101.194 86.2686 98.1318 83.2111C95.0692 80.1536 90.9165 78.4334 86.5846 78.4277V78.4274Z" fill="#4D4D4F"/>
<path d="M99.4181 105.208C97.8637 107.107 95.9057 108.637 93.6858 109.689C91.4658 110.74 89.0395 111.286 86.5823 111.286C84.1251 111.287 81.6986 110.742 79.4782 109.692C77.2579 108.641 75.2993 107.111 73.7441 105.212C75.3463 101.968 79.3729 99.5229 84.3034 98.9388V96.6527C82.4337 95.6366 81.1347 93.4237 81.1347 90.8506C81.1347 87.3192 83.5739 84.459 86.5838 84.459C89.5879 84.459 92.0275 87.3192 92.0275 90.8506C92.0275 93.4237 90.7283 95.6378 88.864 96.6527V98.9388C93.7891 99.5229 97.8156 101.968 99.4181 105.208Z" fill="#43B966"/>
<path d="M86.5844 111.533C84.09 111.537 81.626 110.985 79.3719 109.919C77.1178 108.853 75.1303 107.298 73.5538 105.369L73.4531 105.246L73.5236 105.104C75.1612 101.789 79.1851 99.3554 84.0575 98.7217V96.7969C82.1278 95.6795 80.8889 93.3639 80.8889 90.8508C80.8889 87.1907 83.444 84.2129 86.585 84.2129C89.7261 84.2129 92.2752 87.1907 92.2752 90.8508C92.2752 93.363 91.0383 95.6783 89.1113 96.7969V98.7217C93.9801 99.3554 98.0022 101.787 99.6401 105.098L99.7109 105.241L99.6106 105.364C98.0367 107.295 96.0503 108.852 93.7967 109.919C91.543 110.986 89.079 111.538 86.5844 111.533ZM74.0379 105.18C75.5707 107.015 77.4888 108.491 79.6566 109.504C81.8245 110.516 84.1887 111.041 86.5823 111.041C88.9759 111.04 91.3403 110.515 93.5077 109.501C95.6752 108.487 97.5928 107.011 99.1249 105.175C97.4898 102.035 93.5665 99.7452 88.8351 99.1839L88.6175 99.1583V96.5069L88.7462 96.437C90.5896 95.4332 91.7813 93.2407 91.7813 90.8511C91.7813 87.4626 89.45 84.7056 86.5841 84.7056C83.7183 84.7056 81.3818 87.4626 81.3818 90.8511C81.3818 93.2419 82.5747 95.4344 84.4212 96.4367L84.5501 96.5069V99.1583L84.3326 99.1839C79.5978 99.7452 75.6721 102.036 74.0379 105.18Z" fill="#4D4D4F"/>
<path d="M103.169 149.853C103.168 153.126 102.194 156.325 100.372 159.046C98.5488 161.767 95.9586 163.888 92.9283 165.14C89.8979 166.392 86.5636 166.719 83.347 166.08C80.1305 165.44 77.1761 163.864 74.8573 161.549C72.5386 159.234 70.9597 156.285 70.3202 153.075C69.6808 149.864 70.0095 146.537 71.2648 143.513C72.5201 140.489 74.6457 137.905 77.3728 136.086C80.0998 134.268 83.3059 133.297 86.5856 133.297C88.7669 133.286 90.9288 133.706 92.9463 134.534C94.9638 135.362 96.7968 136.581 98.3391 138.121C99.8813 139.661 101.102 141.49 101.931 143.504C102.76 145.518 103.181 147.676 103.169 149.853Z" fill="white"/>
<path d="M86.5846 166.649C82.759 166.652 79.0459 165.356 76.0568 162.973C73.0676 160.59 70.9802 157.263 70.138 153.538C69.2957 149.814 69.7488 145.914 71.4227 142.481C73.0965 139.048 75.8915 136.286 79.3477 134.649C82.8039 133.012 86.7153 132.598 90.4387 133.475C94.1621 134.352 97.4755 136.468 99.8338 139.474C102.192 142.48 103.455 146.198 103.414 150.016C103.373 153.834 102.031 157.524 99.6096 160.48C98.0342 162.409 96.0475 163.964 93.7945 165.031C91.5414 166.098 89.0786 166.651 86.5846 166.649ZM86.5846 133.543C83.3547 133.543 80.1974 134.5 77.512 136.291C74.8266 138.082 72.7337 140.627 71.4977 143.606C70.2617 146.584 69.938 149.861 70.5679 153.022C71.1978 156.184 72.7528 159.088 75.0363 161.368C77.3198 163.648 80.2293 165.201 83.397 165.83C86.5647 166.46 89.8483 166.138 92.8327 164.906C95.8172 163.673 98.3687 161.585 100.164 158.906C101.96 156.226 102.919 153.076 102.921 149.852C102.917 145.529 101.194 141.384 98.1318 138.326C95.0692 135.269 90.9165 133.549 86.5846 133.543V133.543Z" fill="#4D4D4F"/>
<path d="M99.4181 160.323C97.8637 162.222 95.9057 163.753 93.6858 164.804C91.4658 165.855 89.0395 166.401 86.5823 166.401C84.1251 166.402 81.6986 165.857 79.4782 164.807C77.2579 163.756 75.2993 162.226 73.7441 160.328C75.3463 157.083 79.3729 154.638 84.3034 154.054V151.768C82.4337 150.752 81.1347 148.539 81.1347 145.966C81.1347 142.434 83.5739 139.574 86.5838 139.574C89.5879 139.574 92.0275 142.434 92.0275 145.966C92.0275 148.539 90.7283 150.753 88.864 151.768V154.054C93.7891 154.638 97.8156 157.083 99.4181 160.323Z" fill="#43B966"/>
<path d="M86.5844 166.648C84.09 166.652 81.626 166.1 79.3719 165.034C77.1178 163.968 75.1303 162.414 73.5538 160.484L73.4531 160.361L73.5236 160.219C75.1612 156.904 79.1851 154.471 84.0575 153.837V151.912C82.1278 150.795 80.8889 148.479 80.8889 145.966C80.8889 142.306 83.444 139.328 86.585 139.328C89.7261 139.328 92.2752 142.306 92.2752 145.966C92.2752 148.478 91.0383 150.793 89.1113 151.912V153.837C93.9801 154.471 98.0022 156.902 99.6401 160.214L99.7109 160.356L99.6106 160.479C98.0367 162.411 96.0503 163.967 93.7967 165.034C91.543 166.102 89.079 166.653 86.5844 166.648ZM74.0379 160.295C75.5707 162.13 77.4888 163.606 79.6566 164.619C81.8245 165.632 84.1887 166.156 86.5823 166.156C88.9759 166.155 91.3403 165.63 93.5077 164.616C95.6752 163.603 97.5928 162.126 99.1249 160.291C97.4898 157.15 93.5665 154.86 88.8351 154.299L88.6175 154.274V151.622L88.7462 151.552C90.5896 150.548 91.7813 148.356 91.7813 145.966C91.7813 142.578 89.45 139.821 86.5841 139.821C83.7183 139.821 81.3818 142.578 81.3818 145.966C81.3818 148.357 82.5747 150.55 84.4212 151.552L84.5501 151.622V154.274L84.3326 154.299C79.5978 154.86 75.6721 157.151 74.0379 160.295Z" fill="#4D4D4F"/>
<path d="M103.169 204.659C103.168 207.932 102.194 211.132 100.372 213.853C98.5488 216.574 95.9586 218.694 92.9283 219.946C89.8979 221.198 86.5636 221.525 83.347 220.886C80.1305 220.247 77.1761 218.67 74.8573 216.356C72.5386 214.041 70.9597 211.092 70.3202 207.881C69.6808 204.671 70.0095 201.344 71.2648 198.32C72.5201 195.296 74.6457 192.711 77.3728 190.893C80.0998 189.074 83.3059 188.104 86.5856 188.104C88.7669 188.092 90.9288 188.513 92.9463 189.341C94.9638 190.169 96.7968 191.388 98.3391 192.928C99.8813 194.467 101.102 196.297 101.931 198.311C102.76 200.324 103.181 202.482 103.169 204.659Z" fill="white"/>
<path d="M86.5846 221.455C82.759 221.459 79.0459 220.162 76.0568 217.779C73.0676 215.397 70.9802 212.069 70.138 208.345C69.2957 204.621 69.7488 200.721 71.4227 197.288C73.0965 193.855 75.8915 191.092 79.3477 189.456C82.8039 187.819 86.7153 187.405 90.4387 188.282C94.1621 189.158 97.4755 191.274 99.8338 194.281C102.192 197.287 103.455 201.005 103.414 204.823C103.373 208.641 102.031 212.331 99.6096 215.286C98.0342 217.216 96.0475 218.771 93.7945 219.838C91.5414 220.905 89.0786 221.457 86.5846 221.455ZM86.5846 188.349C83.3547 188.35 80.1974 189.306 77.512 191.097C74.8266 192.888 72.7337 195.434 71.4977 198.412C70.2617 201.39 69.938 204.667 70.5679 207.829C71.1978 210.991 72.7528 213.895 75.0363 216.175C77.3198 218.454 80.2293 220.007 83.397 220.637C86.5647 221.267 89.8483 220.945 92.8327 219.712C95.8172 218.48 98.3687 216.392 100.164 213.712C101.96 211.033 102.919 207.882 102.921 204.659C102.917 200.335 101.194 196.19 98.1318 193.133C95.0692 190.075 90.9165 188.355 86.5846 188.35V188.349Z" fill="#4D4D4F"/>
<path d="M99.4181 215.129C97.8637 217.029 95.9057 218.559 93.6858 219.611C91.4658 220.662 89.0395 221.208 86.5823 221.208C84.1251 221.209 81.6986 220.664 79.4782 219.613C77.2579 218.563 75.2993 217.033 73.7441 215.134C75.3463 211.89 79.3729 209.445 84.3034 208.861V206.575C82.4337 205.558 81.1347 203.346 81.1347 200.772C81.1347 197.241 83.5739 194.381 86.5838 194.381C89.5879 194.381 92.0275 197.241 92.0275 200.772C92.0275 203.346 90.7283 205.56 88.864 206.575V208.861C93.7891 209.445 97.8156 211.89 99.4181 215.129Z" fill="#43B966"/>
<path d="M86.5844 221.455C84.09 221.458 81.626 220.907 79.3719 219.841C77.1178 218.775 75.1303 217.22 73.5538 215.291L73.4531 215.168L73.5236 215.025C75.1612 211.711 79.1851 209.277 84.0575 208.644V206.719C82.1278 205.601 80.8889 203.286 80.8889 200.773C80.8889 197.113 83.444 194.135 86.585 194.135C89.7261 194.135 92.2752 197.113 92.2752 200.773C92.2752 203.285 91.0383 205.6 89.1113 206.719V208.644C93.9801 209.277 98.0022 211.708 99.6401 215.02L99.7109 215.163L99.6106 215.286C98.0367 217.217 96.0503 218.773 93.7967 219.841C91.543 220.908 89.079 221.46 86.5844 221.455ZM74.0379 215.102C75.5707 216.937 77.4888 218.413 79.6566 219.425C81.8245 220.438 84.1887 220.963 86.5823 220.963C88.9759 220.962 91.3403 220.436 93.5077 219.423C95.6752 218.409 97.5928 216.933 99.1249 215.097C97.4898 211.957 93.5665 209.667 88.8351 209.106L88.6175 209.08V206.429L88.7462 206.359C90.5896 205.355 91.7813 203.163 91.7813 200.773C91.7813 197.384 89.45 194.627 86.5841 194.627C83.7183 194.627 81.3818 197.384 81.3818 200.773C81.3818 203.164 82.5747 205.356 84.4212 206.359L84.5501 206.429V209.08L84.3326 209.106C79.5978 209.667 75.6721 211.958 74.0379 215.102Z" fill="#4D4D4F"/>
<path d="M320.85 97.0085H320.848C321.994 94.8829 322.563 92.4956 322.5 90.0829C322.438 87.6702 321.745 85.3157 320.49 83.2523C319.236 81.1889 317.463 79.4883 315.348 78.3186C313.232 77.1489 310.848 76.5507 308.43 76.5833C306.011 76.6159 303.644 77.278 301.561 78.5042C299.478 79.7305 297.752 81.4782 296.553 83.5746C295.355 85.671 294.726 88.0434 294.729 90.4569C294.731 92.8705 295.365 95.2416 296.568 97.3355H296.566L296.585 97.3638C296.879 97.8726 297.205 98.3624 297.561 98.8301L308.961 115.954L319.894 98.5292C320.237 98.0523 320.55 97.5539 320.83 97.0374L320.85 97.0085Z" fill="#43B966"/>
<path d="M308.969 116.407L297.357 98.9652C296.997 98.494 296.669 98.0004 296.373 97.4873L296.107 97.0892H296.15C295.007 94.9535 294.434 92.5599 294.486 90.1391C294.538 87.7182 295.213 85.3514 296.447 83.2665C297.681 81.1816 299.432 79.4489 301.531 78.2349C303.63 77.021 306.007 76.3668 308.433 76.3352C310.86 76.3036 313.253 76.8957 315.383 78.0547C317.513 79.2136 319.309 80.9002 320.597 82.9523C321.885 85.0044 322.622 87.3528 322.737 89.7715C322.852 92.1902 322.342 94.5978 321.255 96.7625H321.295L321.041 97.1689C320.758 97.6899 320.442 98.1926 320.096 98.6737L308.969 116.407ZM296.791 97.225C297.082 97.7291 297.405 98.2143 297.757 98.6779L308.957 115.497L319.687 98.3955C320.027 97.9229 320.337 97.4293 320.615 96.9177L320.631 96.8886C321.756 94.8008 322.316 92.456 322.254 90.086C322.193 87.716 321.512 85.403 320.28 83.3761C319.048 81.3492 317.307 79.6786 315.229 78.5296C313.151 77.3806 310.808 76.793 308.433 76.825C306.058 76.857 303.732 77.5074 301.686 78.712C299.64 79.9165 297.945 81.6334 296.768 83.6927C295.591 85.7521 294.973 88.0825 294.976 90.4533C294.978 92.8241 295.601 95.153 296.782 97.2098L296.791 97.225Z" fill="#43B966"/>
<path d="M318.896 90.0093C318.923 92.0382 318.348 94.0295 317.241 95.7317C316.134 97.4339 314.547 98.7704 312.679 99.5721C310.812 100.374 308.748 100.605 306.748 100.236C304.749 99.8669 302.904 98.9147 301.448 97.4995C299.991 96.0842 298.987 94.2695 298.563 92.2849C298.14 90.3004 298.316 88.2351 299.068 86.3502C299.821 84.4653 301.117 82.8454 302.792 81.6954C304.467 80.5454 306.446 79.917 308.479 79.8896C311.205 79.8529 313.834 80.8984 315.787 82.7962C317.741 84.694 318.859 87.2887 318.896 90.0093Z" fill="white"/>
<path d="M317.305 90.0294C317.328 91.7444 316.842 93.4278 315.906 94.8666C314.971 96.3054 313.629 97.435 312.05 98.1127C310.472 98.7904 308.727 98.9858 307.037 98.6739C305.347 98.3621 303.788 97.557 302.556 96.3607C301.325 95.1644 300.476 93.6306 300.118 91.9531C299.76 90.2756 299.909 88.5298 300.545 86.9365C301.181 85.3432 302.276 83.9739 303.692 83.0018C305.108 82.0298 306.781 81.4986 308.499 81.4754C310.804 81.4444 313.026 82.3283 314.677 83.9325C316.329 85.5366 317.274 87.7297 317.305 90.0294Z" fill="#43B966"/>
<path d="M316.511 90.0416C316.532 91.5997 316.089 93.129 315.24 94.4363C314.39 95.7435 313.171 96.77 311.737 97.3857C310.302 98.0015 308.717 98.179 307.182 97.8957C305.646 97.6124 304.23 96.8811 303.111 95.7942C301.992 94.7073 301.221 93.3137 300.896 91.7896C300.571 90.2655 300.705 88.6794 301.283 87.2318C301.861 85.7842 302.856 84.5402 304.143 83.657C305.429 82.7739 306.949 82.2913 308.51 82.2702C310.604 82.242 312.623 83.045 314.123 84.5024C315.623 85.9598 316.482 87.9523 316.511 90.0416Z" fill="#43B966"/>
<path d="M308.615 98.2716C306.464 98.2738 304.4 97.4261 302.873 95.9139C301.346 94.4017 300.481 92.3479 300.467 90.2011C300.453 88.0544 301.29 85.9892 302.797 84.4569C304.303 82.9246 306.357 82.0498 308.507 82.0234H308.621C310.76 82.0245 312.813 82.8658 314.336 84.3657C315.859 85.8655 316.728 87.9032 316.758 90.0382C316.784 92.1919 315.953 94.2682 314.448 95.8117C312.943 97.3551 310.885 98.2398 308.727 98.2716H308.615ZM308.621 82.5151H308.514C306.498 82.5461 304.575 83.3708 303.165 84.8095C301.755 86.2482 300.972 88.1844 300.985 90.1969C300.998 92.2094 301.808 94.1352 303.237 95.555C304.666 96.9749 306.599 97.774 308.616 97.7783H308.721C310.748 97.7486 312.68 96.9176 314.095 95.4677C315.509 94.0178 316.289 92.0672 316.264 90.044C316.237 88.0385 315.42 86.1242 313.989 84.7152C312.559 83.3062 310.63 82.5159 308.621 82.5151Z" fill="#43B966"/>
<path d="M379.311 297.398L378.798 297.279C378.813 297.218 380.249 290.889 379.693 280.54C379.181 270.989 376.821 255.962 368.49 238.609L368.964 238.383C377.339 255.824 379.708 270.933 380.22 280.535C380.775 290.952 379.325 297.334 379.311 297.398Z" fill="#4D4D4F"/>
<path d="M379.826 276.338L379.404 275.773C379.314 275.653 370.272 263.648 362.27 259.229L362.524 258.77C366.764 261.11 371.244 265.526 374.255 268.818C376.708 271.499 378.613 273.891 379.414 274.922C380.368 266.033 387.768 249.417 387.845 249.246L388.325 249.462C388.247 249.636 380.498 267.036 379.877 275.637L379.826 276.338Z" fill="#4D4D4F"/>
<path d="M375.907 256.721C375.907 256.721 360.771 250.045 364.751 230.848C364.751 230.848 381.638 236.124 375.907 256.721Z" fill="#43B966"/>
<path d="M376.078 257.084L375.8 256.961C375.643 256.892 371.92 255.22 368.631 251.148C365.597 247.392 362.416 240.812 364.493 230.796L364.552 230.512L364.829 230.598C367.841 231.688 370.536 233.505 372.674 235.886C378.548 242.411 377.812 250.857 376.16 256.793L376.078 257.084ZM364.948 231.196C363.035 240.846 366.107 247.188 369.041 250.819C370.874 253.096 373.152 254.976 375.735 256.348C377.939 248.157 376.753 241.216 372.297 236.254C370.271 234.025 367.755 232.294 364.948 231.196H364.948Z" fill="#43B966"/>
<path d="M383.406 261.481C383.406 261.481 376.959 247.136 391.489 236.801C391.488 236.801 400.011 251.343 383.406 261.481Z" fill="#43B966"/>
<path d="M383.288 261.86L383.167 261.588C382.083 258.861 381.595 255.935 381.737 253.005C381.926 248.496 383.745 241.987 391.336 236.587L391.571 236.42L391.716 236.666C393.137 239.338 393.898 242.31 393.938 245.334C394.03 253.562 388.336 258.777 383.543 261.703L383.288 261.86ZM391.4 237.188C384.194 242.422 382.45 248.668 382.263 253.005C382.148 255.758 382.58 258.508 383.532 261.094C390.151 256.968 393.476 251.678 393.413 245.363C393.36 242.523 392.672 239.73 391.4 237.188Z" fill="#43B966"/>
<path d="M372.816 267.829C372.816 267.829 357.116 269.124 352.184 252.011C352.184 252.011 368.76 248.827 372.816 267.829Z" fill="#43B966"/>
<path d="M372.029 268.116C369.364 268.091 366.726 267.571 364.252 266.582C360.054 264.904 354.509 261.026 351.931 252.085L351.852 251.808L352.134 251.753C355.131 251.305 358.192 251.576 361.063 252.546C365.372 254.008 370.953 257.838 373.073 267.774L373.135 268.065L372.837 268.09C372.796 268.094 372.509 268.116 372.029 268.116ZM352.521 252.225C355.074 260.761 360.404 264.478 364.448 266.094C367.006 267.114 369.739 267.619 372.493 267.582C370.815 260.076 366.808 255.051 360.894 253.044C358.198 252.153 355.338 251.873 352.52 252.225H352.521Z" fill="#43B966"/>
<path d="M395.739 323.398H363.589L360.908 285.438H398.419L395.739 323.398Z" fill="white"/>
<path d="M395.968 323.645H363.357L363.342 323.416L360.643 285.191H398.683L395.968 323.645ZM363.818 323.152H395.508L398.153 285.684H361.173L363.818 323.152Z" fill="#3DA8C0"/>
<path d="M349.314 168.314H401.284V201.605H349.314V168.314Z" fill="#43B966"/>
<path d="M349.314 177.074H401.284V181.862H349.314V177.074Z" fill="white"/>
<path d="M357.391 190.158H378.225V194.987H357.391V190.158Z" fill="#3DA8C0"/>
<path d="M389.871 187.725C390.832 187.725 391.771 188.009 392.57 188.542C393.368 189.074 393.991 189.831 394.359 190.717C394.726 191.603 394.822 192.578 394.635 193.518C394.448 194.458 393.985 195.322 393.306 196C392.626 196.678 391.761 197.14 390.819 197.327C389.876 197.514 388.9 197.418 388.012 197.051C387.125 196.684 386.366 196.063 385.832 195.265C385.299 194.468 385.014 193.531 385.014 192.572C385.014 191.287 385.525 190.054 386.436 189.144C387.347 188.235 388.583 187.725 389.871 187.725V187.725Z" fill="#3DA8C0"/>
<path d="M248.76 155.84C255.775 155.84 262.502 158.621 267.462 163.571C272.423 168.522 275.209 175.236 275.209 182.237V260.064H222.311V182.237C222.311 175.236 225.097 168.522 230.057 163.571C235.018 158.621 241.745 155.84 248.76 155.84V155.84Z" fill="white"/>
<path d="M275.455 260.311H222.062V182.237C222.062 175.171 224.875 168.394 229.882 163.397C234.888 158.401 241.679 155.594 248.759 155.594C255.839 155.594 262.63 158.401 267.636 163.397C272.643 168.394 275.455 175.171 275.455 182.237V260.311ZM222.557 259.818H274.962V182.237C274.938 175.317 272.167 168.689 267.256 163.804C262.344 158.919 255.693 156.176 248.759 156.176C241.825 156.176 235.174 158.919 230.263 163.804C225.352 168.689 222.58 175.317 222.557 182.237V259.818Z" fill="#4D4D4F"/>
<path d="M280.385 271.317L300.712 361.32H306.077L281.889 261.021C281.889 261.021 279.922 268.894 280.385 271.317Z" fill="#4D4D4F"/>
<path d="M224.296 266.183C223.098 266.183 221.937 266.601 221.014 267.363C220.092 268.125 219.464 269.185 219.241 270.36L203.996 360.155H198.631L217.737 260.064C217.737 260.064 227.056 266.183 224.296 266.183Z" fill="#4D4D4F"/>
<path d="M272.47 275.606H225.709C218.902 275.606 213.383 270.318 213.383 263.794C213.383 257.271 218.902 251.982 225.709 251.982H272.47C279.277 251.982 284.796 257.271 284.796 263.794C284.797 270.318 279.278 275.606 272.47 275.606Z" fill="white"/>
<path d="M272.47 275.853H225.71C218.777 275.853 213.137 270.443 213.137 263.794C213.137 257.145 218.777 251.736 225.71 251.736H272.47C279.404 251.736 285.044 257.146 285.044 263.794C285.044 270.443 279.404 275.853 272.47 275.853ZM225.71 252.229C219.049 252.229 213.63 257.417 213.63 263.794C213.63 270.172 219.049 275.36 225.71 275.36H272.47C279.131 275.36 284.549 270.171 284.549 263.794C284.549 257.417 279.131 252.229 272.47 252.229H225.71Z" fill="#4D4D4F"/>
<path d="M237.198 322.533L237.111 356.43L261.96 359.327L260.836 322.207C260.75 319.378 259.648 316.674 257.731 314.588C255.813 312.502 253.208 311.174 250.391 310.845C248.737 310.652 247.06 310.811 245.471 311.31C243.883 311.808 242.417 312.637 241.172 313.74C239.926 314.844 238.928 316.198 238.244 317.713C237.559 319.228 237.203 320.871 237.198 322.533Z" fill="white"/>
<path d="M262.215 359.605L236.863 356.649L236.951 322.533H237.198H236.951C236.959 319.373 238.211 316.342 240.438 314.095C242.664 311.848 245.686 310.564 248.852 310.521C252.018 310.477 255.075 311.677 257.363 313.862C259.65 316.046 260.986 319.041 261.082 322.2L262.215 359.605ZM237.358 356.211L261.704 359.049L260.588 322.215C260.5 319.183 259.22 316.308 257.025 314.21C254.831 312.112 251.897 310.96 248.859 311.001C245.82 311.043 242.92 312.276 240.784 314.434C238.649 316.592 237.449 319.501 237.444 322.534L237.358 356.211Z" fill="#3DA8C0"/>
<path d="M249.535 348.11C248.167 346.638 246.509 345.464 244.665 344.661C242.821 343.859 240.831 343.445 238.819 343.447C236.897 343.447 234.995 343.825 233.219 344.559C231.444 345.293 229.83 346.369 228.471 347.725C227.112 349.081 226.035 350.691 225.299 352.463C224.564 354.235 224.186 356.134 224.186 358.052V361.969H263.22V351.167C263.22 350.963 263.177 350.761 263.093 350.575C263.009 350.388 262.886 350.222 262.732 350.087C262.578 349.953 262.397 349.852 262.201 349.793C262.006 349.733 261.799 349.717 261.596 349.743C256.079 350.494 249.535 348.11 249.535 348.11Z" fill="white"/>
<path d="M263.466 362.216H223.938V358.054C223.937 355.076 224.834 352.167 226.511 349.704C228.188 347.241 230.569 345.339 233.344 344.244C236.118 343.149 239.159 342.911 242.07 343.563C244.982 344.215 247.63 345.725 249.67 347.898C250.291 348.115 256.424 350.201 261.562 349.499C261.8 349.467 262.042 349.487 262.272 349.556C262.501 349.626 262.713 349.744 262.893 349.901C263.074 350.059 263.218 350.254 263.317 350.472C263.415 350.69 263.466 350.927 263.466 351.166V362.216ZM224.432 361.723H262.973V351.167C262.973 350.997 262.936 350.829 262.865 350.674C262.795 350.519 262.692 350.38 262.563 350.268C262.437 350.158 262.288 350.076 262.127 350.027C261.966 349.979 261.796 349.966 261.629 349.988C256.576 350.674 250.614 348.742 249.601 348.395L249.528 348.467L249.354 348.28C247.386 346.167 244.827 344.695 242.009 344.054C239.191 343.414 236.245 343.636 233.555 344.691C230.865 345.745 228.556 347.585 226.929 349.969C225.302 352.352 224.432 355.17 224.432 358.054L224.432 361.723Z" fill="#3DA8C0"/>
<path d="M230.634 335.364L267.62 334.549L262.393 253.781V253.778L262.164 250.251V250.245C261.481 246.328 259.403 242.79 256.312 240.282C253.222 237.774 249.327 236.465 245.346 236.597C241.365 236.729 237.566 238.292 234.648 240.998C231.731 243.705 229.891 247.373 229.47 251.326C229.47 251.328 229.468 251.335 229.47 251.338L229.524 255.253V255.259L230.634 335.364Z" fill="#3DA8C0"/>
<path d="M230.39 335.616L230.387 335.368L229.219 251.337L229.223 251.296C229.652 247.284 231.518 243.562 234.48 240.815C237.441 238.068 241.298 236.482 245.338 236.349C249.379 236.216 253.331 237.545 256.468 240.09C259.604 242.636 261.713 246.227 262.406 250.202L262.41 250.235L267.883 334.789L230.39 335.616ZM229.767 255.227V255.256L230.876 335.113L267.356 334.308L261.916 250.267C261.239 246.415 259.191 242.937 256.15 240.471C253.109 238.005 249.277 236.717 245.361 236.844C241.444 236.972 237.706 238.505 234.831 241.164C231.957 243.822 230.141 247.426 229.716 251.314L229.719 251.326L229.712 251.363L229.767 255.227Z" fill="#4D4D4F"/>
<path d="M229.836 255.211V255.218C230.378 259.22 232.4 262.875 235.506 265.464C238.612 268.052 242.576 269.387 246.619 269.205C250.661 269.023 254.489 267.338 257.349 264.482C260.209 261.625 261.894 257.803 262.073 253.768V253.766C262.123 252.608 262.048 251.448 261.848 250.306V250.3C261.178 246.459 259.14 242.989 256.109 240.529C253.079 238.07 249.259 236.786 245.355 236.915C241.45 237.044 237.724 238.577 234.863 241.232C232.001 243.886 230.198 247.483 229.784 251.36C229.784 251.363 229.783 251.369 229.784 251.373C229.648 252.65 229.665 253.938 229.836 255.211Z" fill="#4D4D4F"/>
<path d="M208.37 319.877L194.364 350.757L170.549 343.107L186.999 309.795C188.253 307.256 190.379 305.252 192.991 304.148C195.602 303.043 198.524 302.913 201.224 303.78C202.81 304.29 204.269 305.128 205.508 306.24C206.746 307.351 207.735 308.712 208.409 310.231C209.084 311.751 209.429 313.396 209.422 315.059C209.416 316.721 209.057 318.363 208.37 319.877Z" fill="white"/>
<path d="M194.495 351.058L170.199 343.252L186.775 309.686C188.174 306.849 190.634 304.675 193.625 303.632C196.615 302.59 199.897 302.763 202.761 304.114C205.625 305.465 207.842 307.886 208.933 310.853C210.025 313.821 209.903 317.099 208.595 319.978L194.495 351.058ZM170.894 342.958L194.226 350.454L208.144 319.775C209.396 317.014 209.51 313.872 208.463 311.028C207.416 308.183 205.29 305.863 202.545 304.568C199.799 303.273 196.654 303.107 193.787 304.105C190.92 305.103 188.56 307.186 187.217 309.904L170.894 342.958Z" fill="#3DA8C0"/>
<path d="M201.153 337.142L195.394 350.102C195.22 350.494 194.906 350.808 194.514 350.984C194.121 351.159 193.678 351.183 193.268 351.052L151.754 337.716C151.52 337.64 151.304 337.516 151.121 337.352C150.939 337.187 150.793 336.985 150.693 336.761C150.594 336.536 150.544 336.293 150.545 336.047C150.546 335.802 150.599 335.559 150.701 335.335C152.421 331.561 155.472 328.548 159.272 326.872C163.072 325.195 167.357 324.97 171.312 326.241L178.007 328.392C180.943 331.244 184.472 333.415 188.344 334.751C192.216 336.088 196.335 336.556 200.409 336.124C200.536 336.11 200.664 336.13 200.781 336.182C200.898 336.234 201 336.315 201.075 336.419C201.15 336.522 201.197 336.643 201.211 336.77C201.225 336.897 201.204 337.025 201.153 337.142Z" fill="white"/>
<path d="M193.805 351.383C193.597 351.383 193.391 351.35 193.193 351.287L151.679 337.951C151.411 337.865 151.165 337.723 150.957 337.535C150.748 337.348 150.582 337.118 150.468 336.861C150.355 336.605 150.297 336.327 150.299 336.047C150.3 335.767 150.361 335.49 150.478 335.235C152.219 331.402 155.313 328.343 159.17 326.641C163.026 324.939 167.375 324.714 171.388 326.007L178.14 328.176L178.181 328.216C181.087 331.047 184.585 333.203 188.423 334.528C192.262 335.853 196.346 336.314 200.384 335.88C200.554 335.862 200.726 335.889 200.883 335.958C201.039 336.028 201.175 336.137 201.276 336.275C201.376 336.413 201.439 336.575 201.457 336.745C201.475 336.915 201.448 337.087 201.379 337.243L195.62 350.203C195.465 350.554 195.211 350.852 194.889 351.062C194.566 351.271 194.19 351.383 193.805 351.383ZM166.111 325.67C162.907 325.669 159.771 326.59 157.078 328.322C154.385 330.055 152.25 332.525 150.927 335.437C150.84 335.629 150.794 335.838 150.792 336.049C150.791 336.26 150.834 336.469 150.92 336.662C151.005 336.855 151.13 337.028 151.287 337.169C151.444 337.31 151.629 337.417 151.83 337.482L193.344 350.818C193.695 350.932 194.076 350.912 194.414 350.761C194.751 350.61 195.02 350.34 195.169 350.003L200.928 337.043C200.962 336.966 200.975 336.881 200.966 336.797C200.957 336.713 200.926 336.633 200.877 336.565C200.827 336.497 200.76 336.443 200.683 336.409C200.605 336.374 200.52 336.361 200.436 336.37C196.336 336.811 192.188 336.344 188.289 335.003C184.39 333.661 180.835 331.478 177.878 328.609L171.238 326.476C169.581 325.942 167.852 325.67 166.111 325.67Z" fill="#3DA8C0"/>
<path d="M204.575 255.966L204.574 255.972C203.327 259.814 203.565 263.983 205.243 267.658C206.921 271.333 209.917 274.248 213.64 275.829C217.364 277.411 221.545 277.544 225.362 276.203C229.179 274.863 232.355 272.144 234.265 268.584V268.581C234.813 267.559 235.248 266.481 235.563 265.366L235.565 265.36C236.626 261.608 236.293 257.599 234.626 254.073C232.96 250.546 230.073 247.74 226.497 246.17C222.921 244.601 218.897 244.374 215.166 245.532C211.436 246.69 208.251 249.154 206.197 252.471C206.197 252.474 206.192 252.479 206.191 252.482C205.515 253.574 204.972 254.744 204.575 255.966Z" fill="#4D4D4F"/>
<path d="M279.857 249.423C279.858 245.09 278.393 240.885 275.701 237.487C273.008 234.089 269.246 231.697 265.022 230.698C260.798 229.699 256.36 230.152 252.426 231.984C248.492 233.815 245.293 236.918 243.345 240.79L218.621 244.326L215.151 245.032C211.324 246.314 208.064 248.885 205.928 252.303C205.928 252.306 205.922 252.311 205.921 252.314L205.731 252.724C205.339 253.429 204.998 254.163 204.713 254.918L204.273 255.867L204.271 255.873L175.162 320.539L210.436 331.87L232.218 274.83L262.028 268.605C266.875 268.241 271.406 266.062 274.713 262.504C278.019 258.947 279.857 254.275 279.857 249.423Z" fill="#3DA8C0"/>
<path d="M210.583 332.176L174.824 320.689L204.489 254.815C204.776 254.054 205.119 253.315 205.515 252.604L205.718 252.173C206.155 251.468 206.644 250.795 207.182 250.163C209.237 247.649 211.979 245.785 215.075 244.797L218.571 244.086L243.182 240.565C244.73 237.535 247.046 234.963 249.899 233.103C252.752 231.244 256.043 230.162 259.445 229.964C262.847 229.767 266.241 230.462 269.291 231.979C272.34 233.497 274.939 235.785 276.828 238.615C278.717 241.445 279.831 244.72 280.06 248.113C280.288 251.506 279.623 254.9 278.13 257.957C276.637 261.014 274.369 263.628 271.55 265.539C268.732 267.45 265.461 268.592 262.064 268.851L232.401 275.045L210.583 332.176ZM175.5 320.389L210.289 331.564L232.035 274.618L232.167 274.59L262.01 268.361C265.328 268.111 268.522 266.997 271.274 265.13C274.025 263.264 276.239 260.71 277.693 257.724C279.148 254.737 279.792 251.422 279.563 248.11C279.333 244.797 278.237 241.602 276.385 238.844C274.532 236.086 271.987 233.861 269.004 232.39C266.021 230.92 262.704 230.255 259.383 230.463C256.062 230.672 252.854 231.745 250.079 233.576C247.304 235.408 245.058 237.933 243.565 240.901L243.508 241.016L218.656 244.571L215.2 245.273C213.368 245.86 211.654 246.768 210.141 247.955C209.191 248.698 208.326 249.544 207.563 250.477C207.047 251.085 206.577 251.729 206.157 252.405L206.138 252.436L205.956 252.827C205.566 253.528 205.229 254.256 204.946 255.005L204.498 255.974L175.5 320.389Z" fill="#4D4D4F"/>
<path d="M275.961 186.943C278.306 186.943 280.598 187.637 282.548 188.938C284.498 190.238 286.018 192.086 286.916 194.249C287.813 196.411 288.048 198.79 287.59 201.086C287.133 203.381 286.003 205.49 284.345 207.145C282.687 208.8 280.574 209.927 278.274 210.383C275.974 210.84 273.59 210.606 271.423 209.71C269.257 208.814 267.405 207.298 266.102 205.352C264.799 203.406 264.104 201.118 264.104 198.777C264.104 195.639 265.353 192.629 267.576 190.409C269.8 188.19 272.816 186.943 275.961 186.943V186.943Z" fill="#3DA8C0"/>
<path d="M268.732 208.168L282.473 188.878L310.874 209.029L297.133 228.318L268.732 208.168Z" fill="#43B966"/>
<path d="M297.168 228.533L268.516 208.205L282.435 188.664L311.088 208.993L297.168 228.533ZM268.946 208.132L297.095 228.104L310.657 209.066L282.508 189.093L268.946 208.132Z" fill="#43B966"/>
<path d="M223.269 186.943C225.615 186.943 227.907 187.637 229.857 188.938C231.807 190.238 233.327 192.086 234.224 194.249C235.122 196.411 235.356 198.79 234.899 201.086C234.441 203.381 233.312 205.49 231.654 207.145C229.996 208.8 227.883 209.927 225.583 210.383C223.283 210.84 220.898 210.606 218.732 209.71C216.565 208.814 214.713 207.298 213.41 205.352C212.108 203.406 211.412 201.118 211.412 198.777C211.412 195.639 212.661 192.629 214.885 190.409C217.109 188.19 220.125 186.943 223.269 186.943V186.943Z" fill="#3DA8C0"/>
<path d="M202.098 228.316L188.357 209.027L216.757 188.876L230.498 208.166L202.098 228.316Z" fill="#43B966"/>
<path d="M202.061 228.532L201.973 228.406L188.143 208.991L188.268 208.902L216.795 188.662L216.883 188.787L230.713 208.203L230.588 208.292L202.061 228.532ZM188.573 209.064L202.134 228.102L230.283 208.13L216.722 189.091L188.573 209.064Z" fill="#43B966"/>
<path d="M275.422 231.465H223.649L217.155 200.558C216.73 198.095 217.043 195.562 218.054 193.276C219.768 189.508 223.169 186.941 227.085 186.941H272.036C275.953 186.941 279.354 189.508 281.067 193.276C282.078 195.561 282.391 198.093 281.968 200.554L275.422 231.465Z" fill="#43B966"/>
<path d="M275.547 231.62H223.526L223.5 231.497L217.006 200.589C216.571 198.095 216.888 195.527 217.915 193.212C219.717 189.249 223.231 186.787 227.087 186.787H272.038C275.895 186.787 279.407 189.25 281.209 193.212C282.236 195.524 282.553 198.087 282.122 200.579L275.547 231.62ZM223.775 231.312H275.298L281.818 200.523C282.237 198.094 281.927 195.595 280.927 193.34C279.175 189.488 275.769 187.096 272.037 187.096H227.085C223.352 187.096 219.946 189.488 218.195 193.34C217.193 195.598 216.884 198.101 217.307 200.534L223.775 231.312Z" fill="#43B966"/>
<path d="M223.421 186.943H275.696C278.877 186.943 281.928 188.204 284.177 190.449C286.426 192.694 287.69 195.738 287.69 198.913C287.69 202.087 286.426 205.132 284.177 207.377C281.928 209.621 278.877 210.882 275.696 210.882H223.421C220.24 210.882 217.19 209.621 214.941 207.377C212.691 205.132 211.428 202.087 211.428 198.913V198.913C211.428 195.738 212.691 192.694 214.941 190.449C217.19 188.204 220.24 186.943 223.421 186.943V186.943Z" fill="#43B966"/>
<path d="M275.697 211.036H223.422C221.821 211.044 220.235 210.736 218.754 210.131C217.274 209.525 215.927 208.633 214.792 207.507C213.658 206.38 212.758 205.041 212.144 203.566C211.529 202.091 211.213 200.51 211.213 198.912C211.213 197.315 211.529 195.734 212.144 194.259C212.758 192.784 213.658 191.445 214.792 190.318C215.927 189.192 217.274 188.3 218.754 187.694C220.235 187.089 221.821 186.781 223.422 186.789H275.697C278.909 186.805 281.983 188.09 284.247 190.362C286.512 192.633 287.784 195.708 287.784 198.912C287.784 202.117 286.512 205.192 284.247 207.463C281.983 209.735 278.909 211.02 275.697 211.036ZM223.422 187.097C221.862 187.089 220.316 187.389 218.873 187.979C217.429 188.569 216.117 189.438 215.011 190.536C213.905 191.634 213.028 192.939 212.429 194.377C211.83 195.814 211.522 197.356 211.522 198.912C211.522 200.469 211.83 202.011 212.429 203.448C213.028 204.885 213.905 206.191 215.011 207.289C216.117 208.387 217.429 209.256 218.873 209.846C220.316 210.436 221.862 210.736 223.422 210.728H275.697C278.827 210.712 281.823 209.46 284.03 207.246C286.237 205.032 287.476 202.036 287.476 198.912C287.476 195.789 286.237 192.793 284.03 190.579C281.823 188.365 278.827 187.113 275.697 187.097H223.422Z" fill="#43B966"/>
<path d="M279.159 243.465L219.914 244.484C219.914 228.11 233.177 213.816 249.535 213.816C257.403 213.828 264.944 216.957 270.5 222.518C276.055 228.078 279.17 235.613 279.159 243.465Z" fill="#43B966"/>
<path d="M219.76 244.64V244.483C219.76 227.777 233.396 213.662 249.536 213.662C265.955 213.662 279.314 227.031 279.314 243.464V243.616L279.162 243.618L219.76 244.64ZM249.536 213.97C233.614 213.97 220.154 227.856 220.069 244.327L279.005 243.313C278.923 227.119 265.734 213.97 249.535 213.97H249.536Z" fill="#43B966"/>
<path d="M244.037 177.752H255.085V186.283C255.086 187.007 254.943 187.724 254.665 188.393C254.387 189.062 253.981 189.67 253.468 190.182C252.955 190.694 252.346 191.1 251.675 191.377C251.005 191.654 250.287 191.796 249.561 191.796C248.836 191.796 248.117 191.654 247.447 191.377C246.777 191.1 246.168 190.694 245.655 190.182C245.142 189.67 244.735 189.062 244.458 188.393C244.18 187.724 244.037 187.007 244.037 186.283V177.752Z" fill="white"/>
<path d="M249.56 192.043C248.03 192.041 246.564 191.433 245.482 190.354C244.401 189.274 243.793 187.81 243.791 186.283V177.506H255.332V186.283C255.331 187.811 254.722 189.275 253.64 190.355C252.558 191.434 251.09 192.042 249.56 192.043ZM244.285 177.999V186.283C244.285 187.68 244.84 189.02 245.83 190.008C246.82 190.995 248.162 191.55 249.562 191.55C250.962 191.55 252.304 190.995 253.294 190.008C254.283 189.02 254.839 187.68 254.839 186.283V177.999H244.285Z" fill="#4D4D4F"/>
<path d="M243.459 142.039H255.663C257.633 142.039 259.583 142.426 261.402 143.178C263.222 143.931 264.875 145.033 266.268 146.423C267.661 147.813 268.765 149.463 269.519 151.279C270.273 153.095 270.661 155.041 270.661 157.007V175.878H247.37C242.355 175.878 237.546 173.89 234 170.351C230.454 166.812 228.461 162.012 228.461 157.007C228.461 153.037 230.041 149.23 232.854 146.423C235.666 143.616 239.481 142.039 243.459 142.039V142.039Z" fill="#4D4D4F"/>
<path d="M249.559 151.191C251.122 151.191 252.67 151.499 254.114 152.096C255.559 152.693 256.871 153.568 257.976 154.671C259.081 155.774 259.958 157.083 260.556 158.525C261.155 159.966 261.462 161.511 261.462 163.071V170.206C261.462 173.356 260.208 176.378 257.976 178.606C255.744 180.834 252.716 182.085 249.56 182.085C247.996 182.085 246.449 181.778 245.004 181.181C243.56 180.584 242.248 179.709 241.143 178.606C240.037 177.503 239.161 176.193 238.562 174.752C237.964 173.311 237.656 171.766 237.656 170.206V163.071C237.656 159.92 238.91 156.899 241.143 154.671C243.375 152.443 246.402 151.191 249.559 151.191V151.191Z" fill="white"/>
<path d="M249.56 182.332C246.339 182.328 243.251 181.05 240.973 178.776C238.695 176.503 237.414 173.421 237.41 170.206V163.071C237.41 159.855 238.69 156.771 240.969 154.497C243.248 152.223 246.338 150.945 249.56 150.945C252.783 150.945 255.873 152.223 258.152 154.497C260.43 156.771 261.711 159.855 261.711 163.071V170.205C261.707 173.421 260.426 176.503 258.148 178.776C255.87 181.05 252.781 182.328 249.56 182.332ZM249.56 151.438C246.47 151.442 243.507 152.668 241.322 154.849C239.137 157.03 237.908 159.987 237.904 163.071V170.205C237.904 173.291 239.132 176.25 241.318 178.431C243.504 180.613 246.469 181.839 249.56 181.839C252.652 181.839 255.617 180.613 257.803 178.431C259.989 176.25 261.217 173.291 261.217 170.205V163.071C261.213 159.987 259.984 157.03 257.799 154.849C255.613 152.668 252.65 151.442 249.56 151.438Z" fill="#4D4D4F"/>
<path d="M247.451 143.9C248.218 144.519 248.855 145.283 249.326 146.148C249.797 147.012 250.093 147.961 250.197 148.94C250.301 149.919 250.21 150.908 249.931 151.852C249.651 152.796 249.188 153.676 248.568 154.441L243.137 161.144C242.517 161.909 241.752 162.545 240.886 163.015C240.019 163.485 239.069 163.781 238.088 163.884C237.107 163.988 236.115 163.897 235.17 163.618C234.224 163.339 233.342 162.877 232.575 162.258C231.027 161.008 230.039 159.196 229.829 157.219C229.62 155.242 230.206 153.263 231.458 151.718L236.889 145.015C238.141 143.47 239.958 142.484 241.939 142.275C243.919 142.066 245.902 142.65 247.451 143.9V143.9Z" fill="#4D4D4F"/>
<path d="M267.452 162.179C266.691 162.806 265.815 163.278 264.872 163.567C263.929 163.856 262.939 163.957 261.957 163.864C260.975 163.771 260.021 163.486 259.15 163.025C258.279 162.564 257.507 161.936 256.878 161.177L251.376 154.534C250.748 153.775 250.275 152.9 249.986 151.959C249.696 151.018 249.595 150.03 249.688 149.05C249.782 148.07 250.067 147.118 250.529 146.248C250.991 145.379 251.62 144.608 252.38 143.981C253.916 142.715 255.892 142.109 257.875 142.297C259.858 142.485 261.684 143.451 262.953 144.983L268.456 151.627C269.725 153.159 270.332 155.132 270.143 157.111C269.955 159.09 268.987 160.913 267.452 162.179V162.179Z" fill="#4D4D4F"/>
<path d="M266.174 165.003V168.275C266.174 168.894 265.927 169.488 265.488 169.926C265.049 170.364 264.453 170.61 263.832 170.61C263.212 170.61 262.616 170.364 262.177 169.926C261.738 169.487 261.491 168.893 261.491 168.273V165.003C261.491 164.383 261.738 163.789 262.177 163.35C262.616 162.912 263.212 162.666 263.832 162.666V162.666C264.453 162.666 265.049 162.912 265.488 163.35C265.927 163.789 266.174 164.383 266.174 165.003V165.003Z" fill="white"/>
<path d="M263.833 170.858C263.147 170.857 262.489 170.584 262.004 170.1C261.518 169.616 261.245 168.96 261.244 168.275V165.002C261.241 164.66 261.305 164.321 261.433 164.005C261.562 163.688 261.752 163.4 261.992 163.157C262.233 162.914 262.52 162.722 262.835 162.59C263.151 162.458 263.49 162.391 263.832 162.391C264.175 162.391 264.513 162.458 264.829 162.59C265.145 162.722 265.432 162.914 265.673 163.157C265.913 163.4 266.103 163.688 266.232 164.005C266.36 164.321 266.424 164.66 266.42 165.002V168.274C266.42 168.958 266.147 169.615 265.662 170.1C265.177 170.584 264.519 170.857 263.833 170.858ZM263.833 162.914C263.278 162.915 262.745 163.135 262.353 163.527C261.96 163.919 261.739 164.45 261.738 165.004V168.276C261.735 168.552 261.787 168.827 261.89 169.084C261.994 169.34 262.148 169.573 262.343 169.77C262.538 169.967 262.769 170.123 263.025 170.23C263.281 170.337 263.555 170.392 263.833 170.392C264.11 170.392 264.384 170.337 264.64 170.23C264.896 170.123 265.128 169.967 265.323 169.77C265.518 169.573 265.671 169.34 265.775 169.084C265.879 168.827 265.931 168.552 265.927 168.276V165.002C265.926 164.448 265.705 163.917 265.312 163.526C264.92 163.134 264.388 162.914 263.833 162.913V162.914Z" fill="#4D4D4F"/>
<path d="M237.697 165.003V168.275C237.697 168.894 237.45 169.488 237.011 169.926C236.572 170.364 235.977 170.61 235.356 170.61C234.735 170.61 234.139 170.364 233.7 169.926C233.261 169.487 233.015 168.893 233.015 168.273V165.003C233.015 164.383 233.261 163.789 233.7 163.35C234.139 162.912 234.735 162.666 235.356 162.666V162.666C235.977 162.666 236.572 162.912 237.012 163.35C237.451 163.789 237.697 164.383 237.697 165.003V165.003Z" fill="white"/>
<path d="M235.355 170.858C234.669 170.857 234.012 170.585 233.527 170.101C233.041 169.617 232.769 168.96 232.768 168.276V165.003C232.768 164.318 233.04 163.661 233.526 163.176C234.011 162.692 234.669 162.42 235.355 162.42C236.042 162.42 236.7 162.692 237.185 163.176C237.671 163.661 237.943 164.318 237.943 165.003V168.274C237.943 168.959 237.67 169.616 237.185 170.1C236.7 170.585 236.042 170.857 235.355 170.858ZM235.355 162.914C234.8 162.915 234.268 163.136 233.875 163.528C233.483 163.919 233.262 164.451 233.261 165.005V168.277C233.257 168.553 233.309 168.828 233.413 169.084C233.517 169.341 233.67 169.574 233.865 169.771C234.06 169.968 234.292 170.124 234.548 170.231C234.804 170.337 235.078 170.392 235.355 170.392C235.633 170.392 235.907 170.337 236.163 170.231C236.419 170.124 236.65 169.968 236.845 169.771C237.04 169.574 237.194 169.341 237.298 169.084C237.401 168.828 237.453 168.553 237.45 168.277V165.003C237.448 164.449 237.227 163.918 236.835 163.526C236.442 163.135 235.91 162.914 235.355 162.914V162.914Z" fill="#4D4D4F"/>
<path d="M242.962 188.359H256.109C256.724 188.359 257.313 188.603 257.748 189.037C258.182 189.471 258.427 190.059 258.427 190.672V221.577C258.427 222.191 258.182 222.779 257.748 223.213C257.313 223.647 256.724 223.89 256.109 223.89H242.962C242.347 223.89 241.758 223.647 241.323 223.213C240.889 222.779 240.645 222.191 240.645 221.577V190.672C240.645 190.059 240.889 189.471 241.323 189.037C241.758 188.603 242.347 188.359 242.962 188.359Z" fill="#3DA8C0"/>
<path d="M244.28 190.495C245.131 191.61 243.869 192.87 242.752 192.021C241.901 190.907 243.164 189.646 244.28 190.495Z" fill="white"/>
<path d="M244.28 193.103C245.131 194.218 243.869 195.477 242.752 194.629C241.901 193.516 243.164 192.253 244.28 193.103Z" fill="white"/>
<path d="M246.725 191.689C247.576 192.803 246.313 194.063 245.196 193.215C244.347 192.1 245.61 190.84 246.725 191.689Z" fill="white"/>
<path d="M248.805 214.514L240.794 214.682C240.803 214.419 240.801 214.156 240.794 213.894L249.198 211.502C249.566 211.398 249.909 211.222 250.209 210.985C250.508 210.748 250.758 210.454 250.944 210.121C251.129 209.788 251.247 209.421 251.291 209.042C251.335 208.663 251.304 208.28 251.199 207.913C251.094 207.546 250.918 207.204 250.681 206.905C250.443 206.606 250.149 206.357 249.815 206.171C249.481 205.986 249.114 205.868 248.734 205.824C248.355 205.781 247.97 205.812 247.603 205.916L239.201 208.307C239.053 208.053 238.895 207.804 238.728 207.56L245.65 203.47C246.314 203.077 246.795 202.438 246.986 201.692C247.178 200.945 247.065 200.154 246.672 199.491C246.477 199.163 246.219 198.876 245.914 198.647C245.608 198.418 245.26 198.252 244.89 198.157C244.52 198.063 244.135 198.042 243.756 198.096C243.378 198.149 243.014 198.277 242.685 198.472L234.059 203.569C231.963 202.567 229.616 202.204 227.314 202.527L227.312 202.511L192.799 207.31V207.321C189.777 207.854 187.08 209.536 185.275 212.013C183.47 214.491 182.698 217.57 183.121 220.604C183.545 223.638 185.131 226.389 187.546 228.28C189.961 230.17 193.016 231.052 196.069 230.74L196.072 230.751L230.059 226.025C231.82 225.861 233.522 225.305 235.039 224.398C236.557 223.491 237.851 222.256 238.828 220.783C238.883 220.699 238.934 220.614 238.987 220.529L248.927 220.321C249.698 220.305 250.432 219.984 250.966 219.428C251.5 218.872 251.791 218.127 251.775 217.357C251.759 216.587 251.437 215.855 250.88 215.322C250.323 214.789 249.577 214.498 248.805 214.514H248.805Z" fill="white"/>
<path d="M194.835 231.05C191.832 231.041 188.94 229.919 186.72 227.901C184.5 225.883 183.112 223.114 182.823 220.131C182.535 217.148 183.369 214.164 185.161 211.76C186.954 209.356 189.579 207.704 192.524 207.123L192.522 207.112L192.764 207.067L227.519 202.234L227.521 202.252C229.75 201.985 232.01 202.344 234.046 203.291L242.559 198.261C242.916 198.047 243.311 197.905 243.723 197.844C244.135 197.784 244.555 197.805 244.958 197.907C245.362 198.008 245.741 198.189 246.075 198.438C246.408 198.686 246.689 198.999 246.901 199.356C247.113 199.714 247.252 200.109 247.31 200.521C247.369 200.932 247.345 201.351 247.24 201.753C247.135 202.155 246.952 202.533 246.701 202.864C246.449 203.195 246.135 203.473 245.775 203.682L239.077 207.64C239.159 207.766 239.239 207.892 239.316 208.019L247.535 205.679C248.338 205.457 249.196 205.56 249.923 205.967C250.65 206.374 251.186 207.051 251.415 207.851C251.643 208.651 251.546 209.509 251.143 210.237C250.741 210.965 250.066 211.505 249.266 211.739L241.045 214.079C241.046 214.202 241.047 214.318 241.045 214.43L248.798 214.268C249.212 214.26 249.625 214.332 250.011 214.483C250.397 214.633 250.75 214.858 251.049 215.144C251.348 215.43 251.588 215.773 251.755 216.152C251.921 216.531 252.011 216.938 252.02 217.352C252.029 217.766 251.956 218.177 251.805 218.562C251.655 218.948 251.43 219.3 251.143 219.599C250.856 219.897 250.513 220.137 250.133 220.303C249.754 220.469 249.345 220.559 248.93 220.568L239.125 220.773C239.094 220.822 239.064 220.871 239.033 220.92C238.037 222.423 236.716 223.685 235.167 224.611C233.618 225.537 231.88 226.104 230.082 226.27L195.859 231.029L195.856 231.007C195.514 231.036 195.173 231.05 194.835 231.05ZM192.972 207.535L192.843 207.564C189.885 208.088 187.245 209.735 185.479 212.16C183.713 214.586 182.958 217.6 183.373 220.569C183.787 223.539 185.339 226.232 187.702 228.083C190.066 229.934 193.056 230.799 196.044 230.495L196.282 230.471V230.474L230.024 225.782C231.751 225.623 233.42 225.08 234.908 224.191C236.396 223.303 237.665 222.092 238.621 220.648C238.656 220.595 238.689 220.542 238.721 220.489L238.848 220.286L248.921 220.076C249.62 220.058 250.283 219.766 250.769 219.264C251.254 218.762 251.522 218.089 251.515 217.391C251.508 216.693 251.226 216.026 250.73 215.534C250.234 215.042 249.564 214.764 248.865 214.761H248.809L240.537 214.933L240.545 214.673C240.554 214.439 240.554 214.187 240.545 213.901L240.54 213.71L249.13 211.266C249.471 211.174 249.791 211.016 250.07 210.8C250.349 210.585 250.583 210.315 250.757 210.009C250.931 209.702 251.042 209.364 251.084 209.013C251.126 208.663 251.098 208.309 251.001 207.969C250.904 207.63 250.741 207.314 250.52 207.039C250.299 206.763 250.026 206.534 249.716 206.365C249.406 206.197 249.065 206.091 248.714 206.055C248.362 206.018 248.007 206.052 247.669 206.154L239.082 208.598L238.986 208.432C238.843 208.186 238.687 207.939 238.523 207.7L238.374 207.483L245.523 203.259C245.824 203.081 246.087 202.846 246.297 202.566C246.506 202.287 246.659 201.969 246.746 201.631C246.833 201.293 246.852 200.941 246.802 200.595C246.753 200.25 246.635 199.917 246.457 199.617C246.279 199.317 246.043 199.054 245.763 198.845C245.483 198.636 245.165 198.483 244.826 198.397C244.487 198.31 244.135 198.291 243.788 198.341C243.442 198.39 243.109 198.507 242.808 198.685L234.069 203.849L233.95 203.792C231.897 202.809 229.6 202.455 227.346 202.772L227.104 202.806L227.102 202.79L192.972 207.535Z" fill="#3DA8C0"/>
<path d="M306.429 207.323L306.431 207.312L271.919 202.513L271.917 202.529C269.615 202.207 267.269 202.57 265.174 203.572L256.546 198.474C256.217 198.279 255.853 198.151 255.474 198.098C255.096 198.044 254.711 198.065 254.341 198.159C253.971 198.254 253.622 198.42 253.317 198.649C253.011 198.878 252.754 199.165 252.559 199.493C252.364 199.821 252.236 200.184 252.182 200.562C252.128 200.94 252.149 201.324 252.244 201.694C252.339 202.063 252.506 202.41 252.735 202.715C252.964 203.021 253.251 203.277 253.58 203.472L260.503 207.562C260.335 207.806 260.178 208.055 260.03 208.309L251.627 205.918C251.26 205.814 250.876 205.783 250.496 205.826C250.116 205.87 249.749 205.988 249.415 206.173C249.081 206.359 248.787 206.608 248.55 206.907C248.313 207.206 248.137 207.548 248.032 207.915C247.927 208.282 247.896 208.665 247.939 209.044C247.983 209.423 248.101 209.79 248.287 210.123C248.472 210.456 248.722 210.75 249.022 210.987C249.321 211.224 249.664 211.4 250.032 211.504L258.437 213.896C258.429 214.158 258.427 214.419 258.437 214.684L250.426 214.516C249.655 214.5 248.908 214.791 248.351 215.324C247.794 215.857 247.472 216.589 247.456 217.359C247.44 218.129 247.731 218.874 248.265 219.43C248.799 219.986 249.532 220.307 250.304 220.323L260.244 220.531C260.297 220.616 260.348 220.701 260.404 220.785C261.38 222.258 262.674 223.493 264.192 224.4C265.709 225.307 267.411 225.863 269.172 226.027L303.16 230.753L303.161 230.742C306.215 231.054 309.27 230.172 311.685 228.282C314.1 226.391 315.686 223.64 316.11 220.606C316.533 217.572 315.762 214.493 313.957 212.015C312.152 209.538 309.454 207.856 306.432 207.323H306.429Z" fill="white"/>
<path d="M304.394 231.051C304.056 231.051 303.715 231.037 303.372 231.008V231.019L303.125 230.996L269.138 226.27C267.342 226.103 265.606 225.536 264.058 224.61C262.511 223.684 261.192 222.424 260.198 220.921C260.165 220.872 260.136 220.823 260.105 220.774L250.3 220.569C249.886 220.561 249.477 220.471 249.097 220.304C248.718 220.138 248.375 219.899 248.088 219.6C247.801 219.302 247.575 218.95 247.425 218.564C247.274 218.179 247.201 217.767 247.21 217.354C247.218 216.94 247.309 216.532 247.475 216.153C247.642 215.774 247.882 215.432 248.181 215.146C248.48 214.859 248.833 214.634 249.219 214.484C249.605 214.334 250.017 214.261 250.432 214.27L258.185 214.431C258.185 214.319 258.185 214.202 258.185 214.08L249.964 211.74C249.566 211.627 249.193 211.436 248.869 211.179C248.544 210.922 248.273 210.603 248.071 210.242C247.87 209.88 247.741 209.483 247.694 209.072C247.646 208.661 247.68 208.244 247.794 207.846C247.908 207.448 248.099 207.077 248.356 206.753C248.614 206.428 248.933 206.158 249.295 205.957C249.657 205.756 250.056 205.628 250.468 205.58C250.88 205.533 251.297 205.567 251.696 205.68L259.915 208.02C259.992 207.893 260.071 207.767 260.153 207.641L253.455 203.684C252.735 203.258 252.213 202.564 252.005 201.755C251.797 200.945 251.92 200.087 252.347 199.368C252.774 198.649 253.469 198.128 254.28 197.921C255.091 197.713 255.951 197.836 256.672 198.262L265.187 203.293C267.22 202.348 269.477 201.988 271.705 202.253V202.251L271.951 202.269L306.708 207.102L306.705 207.124C309.65 207.705 312.275 209.358 314.067 211.762C315.86 214.166 316.694 217.149 316.405 220.132C316.117 223.115 314.728 225.884 312.509 227.902C310.289 229.92 307.396 231.043 304.394 231.051V231.051ZM303.052 230.489L303.184 230.496C303.586 230.537 303.989 230.558 304.393 230.558C307.293 230.55 310.085 229.459 312.219 227.499C314.354 225.54 315.676 222.854 315.926 219.971C316.176 217.087 315.335 214.215 313.569 211.919C311.804 209.623 309.241 208.07 306.386 207.565L306.152 207.524V207.522L272.129 202.791L271.882 202.772C269.629 202.456 267.332 202.811 265.28 203.794L265.161 203.851L256.42 198.685C255.812 198.326 255.086 198.222 254.402 198.397C253.718 198.572 253.131 199.011 252.771 199.617C252.411 200.224 252.307 200.948 252.483 201.631C252.658 202.314 253.097 202.9 253.705 203.259L260.854 207.484L260.706 207.701C260.543 207.938 260.387 208.184 260.243 208.432L260.146 208.598L251.559 206.155C250.884 205.975 250.165 206.067 249.558 206.411C248.95 206.755 248.502 207.323 248.311 207.994C248.119 208.664 248.199 209.383 248.534 209.995C248.868 210.607 249.43 211.063 250.098 211.266L258.689 213.71L258.682 213.902C258.674 214.185 258.673 214.438 258.682 214.672L258.691 214.932L250.419 214.759C250.07 214.752 249.722 214.814 249.396 214.94C249.07 215.067 248.773 215.257 248.52 215.499C248.268 215.74 248.066 216.029 247.925 216.349C247.785 216.668 247.708 217.012 247.701 217.361C247.694 217.71 247.756 218.057 247.883 218.383C248.01 218.708 248.2 219.005 248.442 219.257C248.684 219.509 248.973 219.71 249.294 219.851C249.614 219.991 249.959 220.067 250.308 220.074L260.38 220.284L260.505 220.484C260.539 220.538 260.572 220.593 260.608 220.646C261.563 222.089 262.83 223.299 264.316 224.187C265.802 225.076 267.469 225.62 269.194 225.779L303.052 230.489Z" fill="#3DA8C0"/>
<path d="M245.961 233.086H253.451V367.582H245.961V233.086Z" fill="#4D4D4F"/>
<path d="M201.316 235.09H306.941V240.301H201.316V235.09Z" fill="#4D4D4F"/>
<path d="M321.399 235.49H183.646C182.367 235.489 181.142 234.983 180.238 234.081C179.334 233.179 178.826 231.955 178.826 230.68H326.219C326.219 231.311 326.094 231.937 325.852 232.52C325.61 233.104 325.255 233.634 324.807 234.081C324.36 234.527 323.828 234.882 323.244 235.123C322.659 235.365 322.032 235.49 321.399 235.49Z" fill="white"/>
<path d="M321.4 235.736H183.646C182.303 235.735 181.015 235.201 180.066 234.254C179.116 233.306 178.582 232.02 178.58 230.68V230.434H326.466V230.68C326.464 232.02 325.93 233.306 324.981 234.254C324.031 235.201 322.743 235.735 321.4 235.736ZM179.08 230.926C179.145 232.092 179.654 233.188 180.503 233.991C181.352 234.794 182.477 235.242 183.646 235.243H321.4C322.569 235.242 323.694 234.794 324.543 233.991C325.392 233.188 325.901 232.092 325.966 230.926H179.08Z" fill="#4D4D4F"/>
</g>
<defs>
<clipPath id="clip0_3180_42879">
<rect width="463" height="368" fill="white"/>
</clipPath>
</defs>
</svg>
