<svg xmlns="http://www.w3.org/2000/svg" width="70.614" height="28.18" viewBox="0 0 70.614 28.18"><defs><style>.a{fill:#fff;}</style></defs><g transform="translate(-0.058 -0.434)"><g transform="translate(-1095 -541)"><g transform="translate(910 539)"><g transform="translate(185.058 2.434)"><path class="a" d="M12.769,0s6.369,5.542,12.769,5.511c0,5.448-.255,10.677-2.643,14.779a18.183,18.183,0,0,1-10.126,7.89A17.717,17.717,0,0,1,2.388,20.352C.032,16.25,0,10.959,0,5.542,6.4,5.542,12.769,0,12.769,0Zm0,7.057a3.975,3.975,0,0,0-3.975,3.975v1.834H8.488a1.223,1.223,0,0,0-1.216,1.1l-.006.125v4.283a3.669,3.669,0,0,0,.93,2.44q2.239,2.512,4.573,2.512t4.574-2.511a3.669,3.669,0,0,0,.925-2.219l.007-.225V14.09a1.224,1.224,0,0,0-1.1-1.217l-.125-.006h-.306V11.032A3.975,3.975,0,0,0,12.769,7.057Zm0,8.256a1.223,1.223,0,0,1,.612,2.282v1.387H12.158V17.6a1.223,1.223,0,0,1,.613-2.282Zm0-6.421a2.14,2.14,0,0,1,2.14,2.14v1.834H10.628V11.032A2.14,2.14,0,0,1,12.769,8.892Z"/><path class="a" d="M37.359,19.035q.419.21.883.472a4.559,4.559,0,0,1,.853.621,3.187,3.187,0,0,1,.636.808,2.109,2.109,0,0,1,.247,1.033q0,.165-.022.4a4.388,4.388,0,0,1-.082.517,3.86,3.86,0,0,1-.172.569,2.866,2.866,0,0,1-.292.561,2.927,2.927,0,0,1-2.62,1.228,4.117,4.117,0,0,1-.973-.12,3.684,3.684,0,0,1-.936-.367,3.151,3.151,0,0,1-.786-.621,2.509,2.509,0,0,1-.524-.9.089.089,0,0,1,.045-.12l1.377-1.183a.117.117,0,0,1,.195.03q.03.06.067.142t.1.2a1.812,1.812,0,0,0,.539.636,1.309,1.309,0,0,0,.823.292,1.354,1.354,0,0,0,.367-.052,1.189,1.189,0,0,0,.352-.165.869.869,0,0,0,.27-.3.922.922,0,0,0,.1-.457.756.756,0,0,0-.157-.464,1.611,1.611,0,0,0-.389-.367,2.947,2.947,0,0,0-.494-.269q-.262-.112-.487-.2-.509-.21-1.01-.472a4.563,4.563,0,0,1-.936-.651,2.6,2.6,0,0,1-.913-1.946,2.482,2.482,0,0,1,.292-1.228,2.71,2.71,0,0,1,.771-.876,3.507,3.507,0,0,1,1.078-.531,4.2,4.2,0,0,1,1.213-.18,3.05,3.05,0,0,1,2.874,2.006.121.121,0,0,1-.045.165l-1.332.928q-.075.045-.15-.045a3.479,3.479,0,0,0-.749-.816,1.339,1.339,0,0,0-.808-.262,1.879,1.879,0,0,0-.3.03,1.372,1.372,0,0,0-.344.1.894.894,0,0,0-.285.2.471.471,0,0,0-.12.337.606.606,0,0,0,.2.449,2.228,2.228,0,0,0,.494.352,5.117,5.117,0,0,0,.606.277Q37.134,18.93,37.359,19.035Zm9.032,0q.419.21.883.472a4.558,4.558,0,0,1,.853.621,3.185,3.185,0,0,1,.636.808,2.109,2.109,0,0,1,.247,1.033q0,.165-.022.4a4.388,4.388,0,0,1-.082.517,3.86,3.86,0,0,1-.172.569,2.866,2.866,0,0,1-.292.561,2.927,2.927,0,0,1-2.62,1.228,4.117,4.117,0,0,1-.973-.12,3.684,3.684,0,0,1-.936-.367,3.151,3.151,0,0,1-.786-.621,2.511,2.511,0,0,1-.524-.9.089.089,0,0,1,.045-.12l1.377-1.183a.117.117,0,0,1,.195.03q.03.06.067.142t.1.2a1.812,1.812,0,0,0,.539.636,1.309,1.309,0,0,0,.823.292,1.354,1.354,0,0,0,.367-.052,1.189,1.189,0,0,0,.352-.165.869.869,0,0,0,.27-.3.921.921,0,0,0,.1-.457.756.756,0,0,0-.157-.464,1.609,1.609,0,0,0-.389-.367,2.947,2.947,0,0,0-.494-.269q-.262-.112-.486-.2-.509-.21-1.011-.472a4.563,4.563,0,0,1-.936-.651,2.6,2.6,0,0,1-.913-1.946,2.482,2.482,0,0,1,.292-1.228,2.71,2.71,0,0,1,.771-.876,3.507,3.507,0,0,1,1.078-.531,4.2,4.2,0,0,1,1.213-.18,3.05,3.05,0,0,1,2.874,2.006.121.121,0,0,1-.045.165l-1.332.928q-.075.045-.15-.045a3.479,3.479,0,0,0-.749-.816,1.339,1.339,0,0,0-.808-.262,1.879,1.879,0,0,0-.3.03,1.372,1.372,0,0,0-.344.1.894.894,0,0,0-.285.2.471.471,0,0,0-.12.337.606.606,0,0,0,.2.449,2.228,2.228,0,0,0,.494.352,5.117,5.117,0,0,0,.606.277Q46.167,18.93,46.391,19.035Zm7.49-3.818a.119.119,0,0,1,.135.135v7.86H57.25a.119.119,0,0,1,.135.135v1.617a.119.119,0,0,1-.135.135H52.175q-.12,0-.12-.135V15.352q0-.135.12-.135Z"/><path class="a" d="M37.62,12.711a1.574,1.574,0,0,1-.807.658,2.982,2.982,0,0,1-1.7.1,2.548,2.548,0,0,1-.647-.246,2.265,2.265,0,0,1-.538-.406,1.665,1.665,0,0,1-.361-.561l.87-.744.057.115a1.969,1.969,0,0,0,.521.578,1.178,1.178,0,0,0,.727.246,1.073,1.073,0,0,0,.738-.269.883.883,0,0,0,.3-.693.818.818,0,0,0-.1-.418,1.17,1.17,0,0,0-.269-.315,1.822,1.822,0,0,0-.384-.24q-.217-.1-.458-.195-.355-.137-.761-.343a3.41,3.41,0,0,1-.738-.5,1.771,1.771,0,0,1-.63-1.328,1.631,1.631,0,0,1,.212-.841,1.928,1.928,0,0,1,.549-.6,2.573,2.573,0,0,1,.756-.366,2.865,2.865,0,0,1,.83-.126,1.959,1.959,0,0,1,1.173.349,2.488,2.488,0,0,1,.784.967l-.824.572a2.834,2.834,0,0,0-.578-.59,1.174,1.174,0,0,0-.715-.223,1.462,1.462,0,0,0-.355.046,1.091,1.091,0,0,0-.326.137.858.858,0,0,0-.24.229.54.54,0,0,0-.1.321.624.624,0,0,0,.16.424,1.618,1.618,0,0,0,.389.321,3.557,3.557,0,0,0,.5.246q.269.109.475.212.309.137.641.326a3.514,3.514,0,0,1,.612.441,2.231,2.231,0,0,1,.458.567,1.409,1.409,0,0,1,.177.7,4.133,4.133,0,0,1-.069.658A2.017,2.017,0,0,1,37.62,12.711ZM41.25,9.3h2.026v1.019H41.25v2.118h2.576v1H40.162V6.311h3.663v1H41.25Zm7.27-1.992h-.137a1.142,1.142,0,0,0-.973.424,1.438,1.438,0,0,0-.195.424,2.149,2.149,0,0,0-.069.584v2.267a1.5,1.5,0,0,0,.4,1.145,1.262,1.262,0,0,0,.836.286h.137a1.413,1.413,0,0,0,.555-.109A1.067,1.067,0,0,0,49.5,12a1.21,1.21,0,0,0,.212-.446,2.262,2.262,0,0,0,.063-.549v-.24h1.076v.607a2.786,2.786,0,0,1-.166,1.025,1.655,1.655,0,0,1-.475.675,1.841,1.841,0,0,1-.75.366,4.2,4.2,0,0,1-1,.109,2.809,2.809,0,0,1-1.8-.5,2.035,2.035,0,0,1-.618-1.677V8.361a2.7,2.7,0,0,1,.166-1.007,1.661,1.661,0,0,1,.475-.67,1.841,1.841,0,0,1,.756-.366,4.323,4.323,0,0,1,1.019-.109,2.752,2.752,0,0,1,1.8.5,2.047,2.047,0,0,1,.6,1.654v.126H49.767V8.418a1.184,1.184,0,0,0-.1-.521.921.921,0,0,0-.28-.343,1.141,1.141,0,0,0-.4-.189A1.859,1.859,0,0,0,48.519,7.307Zm9.422,4.064a2.621,2.621,0,0,1-.189,1.065,1.67,1.67,0,0,1-.515.67,1.955,1.955,0,0,1-.761.344,4.595,4.595,0,0,1-1.935-.012,1.841,1.841,0,0,1-.756-.366,1.66,1.66,0,0,1-.475-.67,2.774,2.774,0,0,1-.166-1.03V6.311h1.088v4.694a1.553,1.553,0,0,0,.32,1.093,1.218,1.218,0,0,0,.927.338h.137q1.248,0,1.248-1.431V6.311h1.076Zm5.426,2.061-.916-2H61.5v2H60.425V6.311H62.68a1.768,1.768,0,0,1,1.351.509,1.864,1.864,0,0,1,.481,1.334V9.6a2.493,2.493,0,0,1-.183.945,1.163,1.163,0,0,1-.607.647l-.206.1,1,2.141ZM62.406,7.4h-.9v2.965h.744a2.934,2.934,0,0,0,.486-.034.792.792,0,0,0,.361-.16.721.721,0,0,0,.286-.424,2.27,2.27,0,0,0,.057-.5V8.5Q63.436,7.4,62.406,7.4Zm5.632,1.9h2.026v1.019H68.038v2.118h2.576v1H66.951V6.311h3.663v1H68.038Z"/></g></g></g></g></svg>