<svg xmlns="http://www.w3.org/2000/svg" viewBox="0 0 388.04 117.87"><defs><style>.cls-1{fill:#fff;}.cls-2{fill:#47abc3;}.cls-3{fill:#424143;}.cls-4{fill:#919395;}</style></defs><g id="Layer_2" data-name="Layer 2"><g id="Layer_1-2" data-name="Layer 1"><circle class="cls-1" cx="329.1" cy="58.94" r="57.97"/><path class="cls-2" d="M329.1,0A58.94,58.94,0,1,0,388,58.94,59,59,0,0,0,329.1,0Zm0,115.72a56.79,56.79,0,1,1,56.8-56.78A56.86,56.86,0,0,1,329.1,115.72Z"/><path class="cls-2" d="M329.1,6.34a52.6,52.6,0,1,0,52.6,52.6A52.61,52.61,0,0,0,329.1,6.34Zm29.67,73.15a18.66,18.66,0,0,1-4.95,7.43,16.65,16.65,0,0,1-8,4.17q-4.4.91-10.48-1h-.12v0h0l.07-.07,2.56-7.06q7.35,2.3,11.34-1.42a10.41,10.41,0,0,0,2.9-4.16,10.83,10.83,0,0,0,.49-5.4,9.47,9.47,0,0,0-2.13-4.81,9.71,9.71,0,0,0-4.08-2.82,8.62,8.62,0,0,0-6.55.42c-.34.14-1.86,1-4.56,2.61q-11.69,7-21.13,3.61c-2.26-.82-11.8-3.48-16.52-16.12a27.54,27.54,0,0,1-.11-18.64l.5-1.33,6.07,2.85c-2.1,5.65-.86,11.12,1.2,15.45,4.54,9.48,15.64,14.2,27.47,6.93A36.71,36.71,0,0,1,338,57.23,14.87,14.87,0,0,1,348.77,57a16,16,0,0,1,9.66,9.23A17.65,17.65,0,0,1,358.77,79.49ZM356,60c-1.79-2.91-5-4.29-7.61-5.29a12.61,12.61,0,0,0-8.06-.39,36.54,36.54,0,0,0-7.82,3.59,39.16,39.16,0,0,1-5.27,2.63,15,15,0,0,1-10.78,0A16.15,16.15,0,0,1,307,51.17a17.16,17.16,0,0,1-.1-13.11,18,18,0,0,1,5.06-7.18A16.35,16.35,0,0,1,320,27q4.41-.78,10.44,1.31h.12v0h0l-.08.08-2.67,6.87q-7.29-2.46-11.33,1.09a10.21,10.21,0,0,0-3,4,10.59,10.59,0,0,0-.58,5.28,9.16,9.16,0,0,0,2,4.82,9.92,9.92,0,0,0,4,2.89,8.67,8.67,0,0,0,6.54-.24q.51-.19,4.6-2.45,11.79-6.59,21.12-3a20.66,20.66,0,0,1,6.42,3.83,22.41,22.41,0,0,1,4.09,5.63Z"/><path class="cls-3" d="M234.84,59.49V60.8a5.17,5.17,0,1,1-10.34,0V43.4h-6.57V59.24h0V60.8a5.17,5.17,0,1,1-10.34,0V59.24h0V43.4H201V60.8a5.12,5.12,0,0,1-5.17,5.25v0H153.69v0a5.11,5.11,0,0,1-5.17-5.25V43.4H142V60.8a5.17,5.17,0,1,1-10.34,0V43.4h-6.56V59.24h0V76.86a5.12,5.12,0,0,1-5.17,5.25v6.3a11.54,11.54,0,0,0,11.71-11.8l0-1.31V71.14a12.08,12.08,0,0,0,5.17,1.21,11.75,11.75,0,0,0,8.45-3.54,11.78,11.78,0,0,0,8.46,3.54h42.17a11.77,11.77,0,0,0,8.45-3.54,11.86,11.86,0,0,0,16.9,0,11.78,11.78,0,0,0,8.46,3.54,11.54,11.54,0,0,0,11.71-11.8l0-1.31V43.4h-6.56Z"/><path class="cls-3" d="M108.14,29.47V60.8A5.11,5.11,0,0,1,103,66.05v0H98.05V55.76A16.89,16.89,0,0,0,81.52,39h-.45A16,16,0,0,0,69.7,44.09a16.34,16.34,0,0,0-4.6,11.62,16.62,16.62,0,0,0,5,12,15.37,15.37,0,0,0,11.32,4.6H91.5c0,1.23,0,2.46-.07,3a8.26,8.26,0,0,1-2.65,4.74,9.67,9.67,0,0,1-12.56.74l-4.47,4.21a16.64,16.64,0,0,0,9.87,3.49l.73,0A16.64,16.64,0,0,0,93,84.82a12.69,12.69,0,0,0,4.93-8.88s.05-1.88.09-3.59h5a11.54,11.54,0,0,0,11.72-11.8l0-1.31V29.47Zm-16.59,31v5.62h-10a9.51,9.51,0,0,1-6.92-2.94A9.9,9.9,0,0,1,71.6,56a10,10,0,0,1,2.78-7.24,9.53,9.53,0,0,1,6.84-3.32l.51,0a8.87,8.87,0,0,1,6.78,3,10.1,10.1,0,0,1,3,7.58C91.52,57.65,91.55,60.46,91.55,60.46Z"/><path class="cls-3" d="M51.23,59.49V60.8a5.17,5.17,0,1,1-10.34,0V57.47a13.65,13.65,0,0,0-4.21-10A14.4,14.4,0,0,0,26.24,43.4H0V50H26.66a7.52,7.52,0,0,1,5.52,2.33,7.22,7.22,0,0,1,2.15,5.18h0v1.1h0v.67h0V60.8a5.12,5.12,0,0,1-5.17,5.25v0H0v9.83H.06a12.86,12.86,0,0,0,3.73,8.67,13,13,0,0,0,9.45,3.92l1.31,0H28.32V81.7H14.55l-1.31,0a6.47,6.47,0,0,1-4.75-1.89,5.83,5.83,0,0,1-1.67-4.58V72.35H29.16a11.75,11.75,0,0,0,8.45-3.54,11.77,11.77,0,0,0,8.45,3.54,11.54,11.54,0,0,0,11.72-11.8l0-1.31V43.4H51.23Z"/><circle class="cls-3" cx="204.31" cy="34.11" r="4.64"/><circle class="cls-3" cx="128.33" cy="34.11" r="4.64"/><circle class="cls-3" cx="54.52" cy="34.11" r="4.64"/><circle class="cls-3" cx="221.21" cy="34.11" r="4.64"/><circle class="cls-3" cx="238.12" cy="34.11" r="4.64"/><path class="cls-3" d="M138.91,79.12a4.65,4.65,0,1,0,4.64,4.64A4.65,4.65,0,0,0,138.91,79.12Z"/><path class="cls-3" d="M37.61,79.12a4.65,4.65,0,1,0,4.64,4.64A4.64,4.64,0,0,0,37.61,79.12Z"/><path class="cls-3" d="M148.73,79.12a4.65,4.65,0,1,0,4.64,4.64A4.65,4.65,0,0,0,148.73,79.12Z"/><path class="cls-4" d="M48,104.63a1.22,1.22,0,0,0,.88-.27,1.55,1.55,0,0,0,.27-1.06v-.37a1.73,1.73,0,0,0-.28-1.1,1.13,1.13,0,0,0-.94-.35h-.34l1-1.12a.78.78,0,0,0,.08-.16s0-.09-.08-.16l-.48-.43c-.11-.1-.22-.09-.33,0l-1.51,1.79-.09.11a.37.37,0,0,0,0,.18v.45a.25.25,0,0,0,.28.28h.92a1,1,0,0,1,.62.12,1,1,0,0,1,.14.66.59.59,0,0,1-.07.31c0,.07-.16.1-.33.1h-2c-.13,0-.19.07-.19.2v.58c0,.14.06.2.19.2Z"/><path class="cls-4" d="M52.53,96.85c-.13,0-.19.06-.19.2v9.25c0,.34,0,.63,0,.87a2.3,2.3,0,0,1-.11.6.64.64,0,0,1-.28.34,1.19,1.19,0,0,1-.55.11H44.1a3.75,3.75,0,0,1-1.39-.18c-.26-.12-.39-.4-.39-.86v-3.71c0-.13-.06-.19-.2-.19h-1.8a.17.17,0,0,0-.19.19v4.22a2.86,2.86,0,0,0,.52,1.89,2.26,2.26,0,0,0,1.77.6h9.76a2.32,2.32,0,0,0,1.81-.6,2.73,2.73,0,0,0,.54-1.87V97.05c0-.14-.06-.2-.19-.2Z"/><path class="cls-4" d="M71.23,108.22a3.24,3.24,0,0,1-.42-.23,2.36,2.36,0,0,1-.51-.46,3.18,3.18,0,0,1-.43-.71,2.51,2.51,0,0,1-.19-1,2.23,2.23,0,0,1,.54-1.58,2,2,0,0,1,1.54-.59,2.72,2.72,0,0,1,2.08.94.17.17,0,0,0,.28,0l1-1.1a.17.17,0,0,0,.06-.27,4,4,0,0,0-1.41-1.11,5,5,0,0,0-2.2-.44,4.93,4.93,0,0,0-2,.37,3.9,3.9,0,0,0-1.32,1,3.41,3.41,0,0,0-.71,1.29,4.59,4.59,0,0,0-.22,1.4,3.74,3.74,0,0,0,.26,1.46,3.84,3.84,0,0,0,.64,1.06H66a2,2,0,0,1-1.18-.32,1,1,0,0,1-.43-.87v-1.84a3.35,3.35,0,0,0-1-2.68,3.87,3.87,0,0,0-2.61-.82h-3a.18.18,0,0,0-.2.2v1.56c0,.14.06.2.2.2h2.35a2.37,2.37,0,0,1,1.5.41,1.6,1.6,0,0,1,.5,1.31v1.31a4.87,4.87,0,0,1,0,.72,1,1,0,0,1-.22.48.93.93,0,0,1-.48.26,3.72,3.72,0,0,1-.84.08H57c-.13,0-.19.06-.19.2V110c0,.13.06.2.19.2h4.4A4.88,4.88,0,0,0,63,110a1.87,1.87,0,0,0,1-.9,1.61,1.61,0,0,0,.92.91,4.07,4.07,0,0,0,1.42.22h9.14c.13,0,.19-.07.19-.2v-1.56c0-.14-.06-.2-.19-.2Z"/><rect class="cls-4" x="114.3" y="97.99" width="2.27" height="2.1" rx="0.2"/><path class="cls-4" d="M128.6,102.8a4.35,4.35,0,0,0-1.62-1.17,6.4,6.4,0,0,0-2.57-.45,8.53,8.53,0,0,0-4,1,.19.19,0,0,0-.1.16,1,1,0,0,0,0,.18l.47,1.19a.11.11,0,0,0,.12.08.43.43,0,0,0,.2-.08,6.51,6.51,0,0,1,1.48-.47,7.72,7.72,0,0,1,1.4-.14,3.37,3.37,0,0,1,2.53.86,3.18,3.18,0,0,1,.82,2.31,5.84,5.84,0,0,1-.06.89,1.52,1.52,0,0,1-.23.62,1.07,1.07,0,0,1-.49.36,2.31,2.31,0,0,1-.81.12,3.5,3.5,0,0,0,.15-.69,5.59,5.59,0,0,0,0-.68,2.7,2.7,0,0,0-.82-2.18,3,3,0,0,0-2-.71,3.49,3.49,0,0,0-1.08.17,2.39,2.39,0,0,0-.9.52,2.3,2.3,0,0,0-.62.89,3.45,3.45,0,0,0-.23,1.31,3.25,3.25,0,0,0,.28,1.37h-2.43a2,2,0,0,1-1.19-.32,1,1,0,0,1-.44-.89v-4.77c0-.13-.06-.2-.19-.2h-1.81c-.13,0-.19.07-.19.2v4.14c0,.34,0,.63,0,.86a2,2,0,0,1-.11.57.59.59,0,0,1-.29.31,1.11,1.11,0,0,1-.53.1h-.94l-.08,0,0,0H112a2,2,0,0,1-1.18-.32,1,1,0,0,1-.44-.89v-4.77a.18.18,0,0,0-.2-.2h-1.8a.18.18,0,0,0-.2.2v4.06a8.86,8.86,0,0,1,0,1,1.18,1.18,0,0,1-.19.59.77.77,0,0,1-.42.27,2.9,2.9,0,0,1-.73.07,1.6,1.6,0,0,1-1-.29,1,1,0,0,1-.37-.89v-3.27a.18.18,0,0,0-.2-.2h-1.8a.18.18,0,0,0-.2.2v2.51c0,.42,0,.75,0,1a1.21,1.21,0,0,1-.17.59.67.67,0,0,1-.42.28,3.24,3.24,0,0,1-.78.07,1.52,1.52,0,0,1-1-.3,1.19,1.19,0,0,1-.32-.92v-3.23a.18.18,0,0,0-.2-.2h-1.8a.18.18,0,0,0-.2.2v2.51c0,.35,0,.65,0,.89a2,2,0,0,1-.09.6.68.68,0,0,1-.28.34,1.09,1.09,0,0,1-.54.11H80.94a1,1,0,0,1-.72-.23,1.14,1.14,0,0,1-.22-.81V97.05a.18.18,0,0,0-.2-.2H78c-.13,0-.19.06-.19.2v10.66a2.78,2.78,0,0,0,.52,1.87,2.23,2.23,0,0,0,1.75.6H98a3.34,3.34,0,0,0,1.39-.24,1.68,1.68,0,0,0,.79-.81,1.9,1.9,0,0,0,1.9,1.05H103a3.58,3.58,0,0,0,1.4-.23,1.6,1.6,0,0,0,.8-.8,1.73,1.73,0,0,0,.73.76,2.35,2.35,0,0,0,1.17.27h.84a3.58,3.58,0,0,0,1.4-.23,1.54,1.54,0,0,0,.79-.78,1.64,1.64,0,0,0,.89.82,4.1,4.1,0,0,0,1.33.19s0,0,0,0l.07,0H114a3.85,3.85,0,0,0,1.47-.22,1.49,1.49,0,0,0,.81-.79,1.59,1.59,0,0,0,.9.82,4.36,4.36,0,0,0,1.21.17s0,0,0,0h7.9a4.79,4.79,0,0,0,1.57-.22,2.31,2.31,0,0,0,1-.68,2.93,2.93,0,0,0,.58-1.23,8.15,8.15,0,0,0,.17-1.85,6.82,6.82,0,0,0-.23-1.79A4.26,4.26,0,0,0,128.6,102.8ZM124,107.9a1.06,1.06,0,0,1-.77.36H123a1.12,1.12,0,0,1-.77-.36,2,2,0,0,1,0-2,1.07,1.07,0,0,1,.86-.36,1,1,0,0,1,.83.36,1.61,1.61,0,0,1,.28,1A1.63,1.63,0,0,1,124,107.9Z"/><rect class="cls-4" x="136.58" y="107.79" width="2.35" height="2.39" rx="0.2"/><rect class="cls-4" x="141.15" y="107.79" width="2.35" height="2.39" rx="0.2"/><rect class="cls-4" x="194.01" y="97.99" width="2.04" height="2.1" rx="0.2"/><rect class="cls-4" x="196.56" y="97.99" width="2.04" height="2.1" rx="0.2"/><path class="cls-4" d="M195.4,102c-.13,0-.19.07-.19.2v4.94a1.14,1.14,0,0,1-.23.81,1,1,0,0,1-.71.23H173.83a2.11,2.11,0,0,1-1.17-.29.92.92,0,0,1-.44-.81v-1.63a4.27,4.27,0,0,0-.35-1.87,2.48,2.48,0,0,0-1-1.06,4,4,0,0,0-1.47-.48,16.82,16.82,0,0,0-1.85-.14l3.23-3.78a.2.2,0,0,0-.08-.27l-1.27-1.06a.18.18,0,0,0-.25.06l-4.24,5a1.71,1.71,0,0,1-.19.21.37.37,0,0,0-.12.26v1.37a.18.18,0,0,0,.2.2H168c1.34,0,2,.57,2,1.71v1.06a3.9,3.9,0,0,1-.05.74.89.89,0,0,1-.21.47,1,1,0,0,1-.48.25,3.76,3.76,0,0,1-.85.08h-5.21a2,2,0,0,1-1.19-.32,1,1,0,0,1-.44-.9v-10c0-.14-.06-.2-.19-.2h-1.81c-.13,0-.19.06-.19.2v10.13a1.14,1.14,0,0,1-.23.81,1,1,0,0,1-.71.23h-1s0,0-.06,0H157a1.15,1.15,0,0,1-.81-.35,1.62,1.62,0,0,1-.41-1.16,1.73,1.73,0,0,0,0-.32c0-.12,0-.23,0-.35a6.18,6.18,0,0,0-.3-2,3.5,3.5,0,0,0-.84-1.35,3.19,3.19,0,0,0-1.29-.74,5.49,5.49,0,0,0-3.21,0,3.19,3.19,0,0,0-1.29.74A3.38,3.38,0,0,0,148,104a6.18,6.18,0,0,0-.3,2c0,.16,0,.31,0,.44a2.83,2.83,0,0,0,0,.41,1,1,0,0,1-.25.59,2.66,2.66,0,0,1-.47.41c-.18.13-.36.25-.57.38a2.68,2.68,0,0,0-.57.46,2.2,2.2,0,0,0-.43.68,2.84,2.84,0,0,0-.16,1v3.67h2.19v-3.26a1.35,1.35,0,0,1,.14-.68,1.27,1.27,0,0,1,.34-.38l.42-.28a1,1,0,0,0,.38-.38A2.92,2.92,0,0,0,150,110a5,5,0,0,0,1.71.28,5.54,5.54,0,0,0,1.78-.28,2.87,2.87,0,0,0,1.33-.9,2,2,0,0,0,.58.6,2.43,2.43,0,0,0,.68.3,3.4,3.4,0,0,0,.71.12l.68,0h1.64a3.49,3.49,0,0,0,1.39-.23,1.54,1.54,0,0,0,.79-.78,1.59,1.59,0,0,0,.9.82,4.1,4.1,0,0,0,1.33.19h5.79a3.93,3.93,0,0,0,1.52-.25,1.81,1.81,0,0,0,.93-.88,1.64,1.64,0,0,0,.94.91,4.09,4.09,0,0,0,1.43.22h21a2.22,2.22,0,0,0,1.75-.6,2.78,2.78,0,0,0,.52-1.87v-5.47c0-.13-.06-.2-.19-.2Zm-42.27,5.78a1.68,1.68,0,0,1-1.39.55,1.73,1.73,0,0,1-1.39-.54,2.81,2.81,0,0,1-.46-1.81,2.84,2.84,0,0,1,.46-1.76,1.63,1.63,0,0,1,1.39-.61c1.23,0,1.84.79,1.84,2.37A2.88,2.88,0,0,1,153.13,107.82Z"/><path class="cls-4" d="M200.28,96.85h1.81a.19.19,0,0,1,.19.19V110a.2.2,0,0,1-.2.2h-1.81a.2.2,0,0,1-.2-.2V97A.2.2,0,0,1,200.28,96.85Z"/></g></g></svg>