<?xml version="1.0" encoding="utf-8"?>
<!-- Generator: Adobe Illustrator 23.0.5, SVG Export Plug-In . SVG Version: 6.00 Build 0)  -->
<svg version="1.1" id="Layer_1" xmlns="http://www.w3.org/2000/svg" xmlns:xlink="http://www.w3.org/1999/xlink" x="0px" y="0px"
	 viewBox="0 0 388 117.9" style="enable-background:new 0 0 388 117.9;" xml:space="preserve">
<style type="text/css">
	.st0{fill:#FFFFFF;}
</style>
<g id="Layer_1-2">
	<path class="st0" d="M329.1,0c-32.6,0-59,26.3-59,58.9s26.3,59,58.9,59s59-26.3,59-58.9l0,0C388,26.4,361.6,0.1,329.1,0z
		 M329.1,115.7c-31.4,0-56.8-25.4-56.8-56.8s25.4-56.8,56.8-56.8s56.8,25.4,56.8,56.8l0,0C385.9,90.3,360.4,115.7,329.1,115.7z"/>
	<path class="st0" d="M329.1,6.3c-29.1,0-52.6,23.5-52.6,52.6s23.5,52.6,52.6,52.6s52.6-23.5,52.6-52.6
		C381.7,29.9,358.1,6.3,329.1,6.3z M358.8,79.5c-1,2.8-2.7,5.4-5,7.4c-2.2,2.1-5,3.5-8,4.2c-2.9,0.6-6.4,0.3-10.5-1h-0.1l0,0l0,0
		l0.1-0.1l2.6-7.1c4.9,1.5,8.7,1.1,11.3-1.4c1.3-1.1,2.3-2.6,2.9-4.2c0.6-1.7,0.8-3.6,0.5-5.4c-0.2-1.8-1-3.4-2.1-4.8
		c-1.1-1.3-2.5-2.2-4.1-2.8c-2.2-0.7-4.5-0.6-6.5,0.4c-0.3,0.1-1.9,1-4.6,2.6c-7.8,4.7-14.8,5.9-21.1,3.6
		c-2.3-0.8-11.8-3.5-16.5-16.1c-2.2-6-2.2-12.6-0.1-18.6l0.5-1.3l6.1,2.8c-2.1,5.7-0.9,11.1,1.2,15.5c4.5,9.5,15.6,14.2,27.5,6.9
		c1.7-1.1,3.4-2.1,5.3-2.9c3.4-1.4,7.3-1.5,10.8-0.2c4.4,1.5,7.9,4.9,9.7,9.2C360.3,70.4,360.4,75.2,358.8,79.5L358.8,79.5z M356,60
		c-1.8-2.9-5-4.3-7.6-5.3s-5.4-1.1-8.1-0.4c-2.7,0.9-5.4,2.1-7.8,3.6c-1.7,1-3.4,1.9-5.3,2.6c-3.5,1.3-7.3,1.3-10.8,0
		c-4.4-1.6-7.8-5-9.5-9.4c-1.8-4.2-1.8-8.9-0.1-13.1c1.1-2.8,2.8-5.2,5.1-7.2c2.3-2,5.1-3.4,8-3.9s6.4-0.1,10.4,1.3h0.1l0,0l0,0
		l-0.1,0.1l-2.7,6.9c-4.9-1.6-8.6-1.3-11.3,1.1c-1.3,1.1-2.3,2.4-3,4c-0.6,1.7-0.8,3.5-0.6,5.3c0.2,1.8,0.9,3.4,2,4.8
		c1.1,1.3,2.4,2.3,4,2.9c2.1,0.8,4.5,0.7,6.5-0.2c0.3-0.1,1.9-0.9,4.6-2.5c7.9-4.4,14.9-5.4,21.1-3c2.4,0.9,4.5,2.2,6.4,3.8
		c1.6,1.7,3,3.6,4.1,5.6L356,60z"/>
	<path class="st0" d="M234.8,59.5v1.3c0,2.9-2.3,5.2-5.2,5.2s-5.2-2.3-5.2-5.2l0,0V43.4h-6.6v15.8l0,0v1.6c0,2.9-2.3,5.2-5.2,5.2
		s-5.2-2.3-5.2-5.2l0,0v-1.6l0,0V43.4H201v17.4c0.1,2.8-2.2,5.2-5,5.2c-0.1,0-0.1,0-0.2,0l0,0h-42.1l0,0c-2.8,0-5.1-2.2-5.2-5
		c0-0.1,0-0.1,0-0.2V43.4H142v17.4c0,2.9-2.3,5.2-5.2,5.2s-5.2-2.3-5.2-5.2l0,0V43.4H125v15.8l0,0v17.6c0.1,2.8-2.2,5.2-5,5.2
		c-0.1,0-0.1,0-0.2,0v6.3c6.4,0.1,11.6-5,11.7-11.4c0-0.1,0-0.3,0-0.4v-1.3V71c1.6,0.8,3.4,1.2,5.2,1.2c3.2,0,6.2-1.3,8.4-3.5
		c2.2,2.3,5.3,3.6,8.5,3.5h42.2c3.2,0,6.2-1.3,8.4-3.5c4.6,4.7,12.1,4.7,16.8,0.1l0.1-0.1c2.2,2.3,5.3,3.6,8.5,3.5
		c6.4,0.1,11.6-5,11.7-11.4c0-0.1,0-0.3,0-0.4v-1.3V43.4h-6.6L234.8,59.5z"/>
	<path class="st0" d="M108.1,29.5v31.3c0.1,2.8-2.1,5.2-5,5.2c-0.1,0-0.1,0-0.2,0l0,0H98V55.8c0-9.2-7.3-16.6-16.5-16.8h-0.4
		c-4.3,0.1-8.4,1.9-11.4,5.1c-3,3.1-4.7,7.3-4.6,11.6c0,4.5,1.8,8.8,5,12c3,3,7.1,4.7,11.3,4.6h10.1c0,1.2,0,2.5-0.1,3
		c-0.3,1.8-1.3,3.5-2.7,4.7c-3.4,3.3-8.8,3.6-12.6,0.7L71.8,85c2.8,2.2,6.3,3.4,9.9,3.5h0.7c3.9,0.1,7.6-1.2,10.6-3.7
		c2.8-2.1,4.6-5.4,4.9-8.9c0,0,0.1-1.9,0.1-3.6h5c6.4,0.1,11.6-5,11.7-11.4c0-0.1,0-0.3,0-0.4v-1.3V29.5H108.1z M91.6,60.5v5.6h-10
		c-2.6,0-5.1-1.1-6.9-2.9c-1.9-1.9-3-4.5-3-7.2c-0.1-2.7,0.9-5.3,2.8-7.2c1.7-2,4.2-3.2,6.8-3.3h0.5c2.6,0,5.1,1.1,6.8,3
		c2,2,3.1,4.7,3,7.6C91.5,57.6,91.6,60.5,91.6,60.5L91.6,60.5z"/>
	<path class="st0" d="M51.2,59.5v1.3c0,2.9-2.3,5.2-5.2,5.2s-5.2-2.3-5.2-5.2l0,0v-3.3c0-3.8-1.5-7.4-4.2-10
		c-2.8-2.7-6.6-4.2-10.4-4.1H0V50h26.7c2.1,0,4.1,0.8,5.5,2.3c1.4,1.4,2.2,3.2,2.2,5.2l0,0v1.1l0,0v0.7l0,0v1.5
		c0.1,2.8-2.2,5.2-5,5.2c-0.1,0-0.1,0-0.2,0l0,0H0v9.8h0.1c0.1,3.3,1.4,6.4,3.7,8.7c2.5,2.5,5.9,4,9.4,3.9h1.3h13.8v-6.8H14.6h-1.3
		c-1.8,0-3.5-0.6-4.8-1.9c-1.2-1.2-1.8-2.9-1.7-4.6v-2.9h22.3c3.2,0,6.2-1.3,8.5-3.5c2.2,2.3,5.3,3.5,8.5,3.5
		c6.4,0.1,11.6-5,11.7-11.4c0-0.1,0-0.3,0-0.4v-1.3V43.4h-6.6V59.5z"/>
	<circle class="st0" cx="204.3" cy="34.1" r="4.6"/>
	<circle class="st0" cx="128.3" cy="34.1" r="4.6"/>
	<circle class="st0" cx="54.5" cy="34.1" r="4.6"/>
	<circle class="st0" cx="221.2" cy="34.1" r="4.6"/>
	<circle class="st0" cx="238.1" cy="34.1" r="4.6"/>
	<path class="st0" d="M138.9,79.1c-2.6,0-4.7,2.1-4.7,4.6c0,2.6,2.1,4.7,4.6,4.7c2.6,0,4.7-2.1,4.7-4.6l0,0
		C143.5,81.2,141.5,79.1,138.9,79.1z"/>
	<path class="st0" d="M37.6,79.1c-2.6,0-4.7,2.1-4.7,4.6c0,2.6,2.1,4.7,4.6,4.7c2.6,0,4.7-2.1,4.7-4.6l0,0
		C42.3,81.2,40.2,79.1,37.6,79.1z"/>
	<path class="st0" d="M148.7,79.1c-2.6,0-4.7,2.1-4.7,4.6c0,2.6,2.1,4.7,4.6,4.7c2.6,0,4.7-2.1,4.7-4.6l0,0
		C153.4,81.2,151.3,79.1,148.7,79.1z"/>
	<path class="st0" d="M48,104.6c0.3,0,0.6-0.1,0.9-0.3c0.2-0.3,0.3-0.7,0.3-1.1v-0.4c0-0.4-0.1-0.8-0.3-1.1
		c-0.2-0.3-0.6-0.4-0.9-0.3h-0.3l1-1.1c0-0.1,0.1-0.1,0.1-0.2c0,0,0-0.1-0.1-0.2l-0.5-0.4c-0.1-0.1-0.2-0.1-0.3,0l-1.5,1.8l-0.1,0.1
		c0,0.1,0,0.1,0,0.2v0.4c0,0.1,0.1,0.3,0.2,0.3c0,0,0,0,0.1,0h0.9c0.2,0,0.4,0,0.6,0.1c0.1,0.2,0.2,0.4,0.1,0.7c0,0.1,0,0.2-0.1,0.3
		c0,0.1-0.2,0.1-0.3,0.1h-2c-0.1,0-0.2,0.1-0.2,0.2v0.6c0,0.1,0.1,0.2,0.2,0.2L48,104.6z"/>
	<path class="st0" d="M52.5,96.8c-0.1,0-0.2,0.1-0.2,0.2v9.3c0,0.3,0,0.6,0,0.9c0,0.2,0,0.4-0.1,0.6c-0.1,0.1-0.1,0.3-0.3,0.3
		c-0.2,0.1-0.4,0.1-0.5,0.1h-7.3c-0.5,0-0.9,0-1.4-0.2c-0.3-0.1-0.4-0.4-0.4-0.9v-3.7c0-0.1-0.1-0.2-0.2-0.2h-1.8
		c-0.1,0-0.2,0.1-0.2,0.1l0,0v4.2c-0.1,0.7,0.1,1.3,0.5,1.9c0.5,0.4,1.1,0.7,1.8,0.6h9.8c0.7,0.1,1.3-0.1,1.8-0.6
		c0.4-0.5,0.6-1.2,0.5-1.9V97c0-0.1-0.1-0.2-0.2-0.2H52.5z"/>
	<path class="st0" d="M71.2,108.2c-0.1-0.1-0.3-0.1-0.4-0.2c-0.2-0.1-0.4-0.3-0.5-0.5c-0.2-0.2-0.3-0.5-0.4-0.7
		c-0.1-0.3-0.2-0.7-0.2-1c0-0.6,0.2-1.1,0.5-1.6c0.4-0.4,1-0.6,1.5-0.6c0.8,0,1.6,0.3,2.1,0.9c0.1,0.1,0.2,0.1,0.2,0l0,0l1-1.1
		c0.1,0,0.1-0.1,0.1-0.2l0,0c-0.4-0.5-0.9-0.9-1.4-1.1c-0.7-0.3-1.4-0.5-2.2-0.4c-0.7,0-1.4,0.1-2,0.4c-0.5,0.2-1,0.6-1.3,1
		s-0.6,0.8-0.7,1.3s-0.2,0.9-0.2,1.4s0.1,1,0.3,1.5c0.2,0.4,0.4,0.7,0.6,1.1H66c-0.4,0-0.8-0.1-1.2-0.3c-0.3-0.2-0.4-0.5-0.4-0.9
		v-1.8c0.1-1-0.3-2-1-2.7c-0.7-0.6-1.7-0.9-2.6-0.8h-3c-0.1,0-0.2,0.1-0.2,0.2l0,0v1.6c0,0.1,0.1,0.2,0.2,0.2h2.3
		c0.5,0,1.1,0.1,1.5,0.4s0.5,0.8,0.5,1.3v1.3c0,0.2,0,0.5,0,0.7s-0.1,0.3-0.2,0.5c-0.1,0.1-0.3,0.2-0.5,0.3
		c-0.3,0.1-0.6,0.1-0.8,0.1H57c-0.1,0-0.2,0.1-0.2,0.2v1.5c0,0.1,0.1,0.2,0.2,0.2h4.4c0.5,0,1.1,0,1.6-0.2c0.4-0.2,0.8-0.5,1-0.9
		c0.2,0.4,0.5,0.7,0.9,0.9c0.5,0.2,0.9,0.2,1.4,0.2h9.1c0.1,0,0.2-0.1,0.2-0.2v-1.6c0-0.1-0.1-0.2-0.2-0.2L71.2,108.2z"/>
	<path class="st0" d="M114.5,98h1.9c0.1,0,0.2,0.1,0.2,0.2v1.7c0,0.1-0.1,0.2-0.2,0.2h-1.9c-0.1,0-0.2-0.1-0.2-0.2v-1.7
		C114.3,98.1,114.4,98,114.5,98z"/>
	<path class="st0" d="M128.6,102.8c-0.4-0.5-1-0.9-1.6-1.2c-0.8-0.3-1.7-0.5-2.6-0.4c-1.4,0-2.8,0.3-4,1c-0.1,0-0.1,0.1-0.1,0.2
		s0,0.1,0,0.2l0.5,1.2c0,0.1,0.1,0.1,0.1,0.1c0.1,0,0.1,0,0.2-0.1c0.5-0.2,1-0.4,1.5-0.5s0.9-0.1,1.4-0.1c0.9-0.1,1.8,0.2,2.5,0.9
		c0.6,0.6,0.9,1.5,0.8,2.3c0,0.3,0,0.6-0.1,0.9c0,0.2-0.1,0.4-0.2,0.6s-0.3,0.3-0.5,0.4c-0.3,0.1-0.5,0.1-0.8,0.1
		c0.1-0.2,0.1-0.5,0.2-0.7c0-0.2,0-0.5,0-0.7c0.1-0.8-0.2-1.6-0.8-2.2c-0.6-0.5-1.3-0.7-2-0.7c-0.4,0-0.7,0.1-1.1,0.2
		c-0.3,0.1-0.6,0.3-0.9,0.5s-0.5,0.5-0.6,0.9c-0.2,0.4-0.2,0.9-0.2,1.3c0,0.5,0.1,0.9,0.3,1.4h-2.4c-0.4,0-0.8-0.1-1.2-0.3
		c-0.3-0.2-0.5-0.5-0.4-0.9v-4.8c0-0.1-0.1-0.2-0.2-0.2h-1.8c-0.1,0-0.2,0.1-0.2,0.2v4.1c0,0.3,0,0.6,0,0.9c0,0.2,0,0.4-0.1,0.6
		c-0.1,0.1-0.2,0.2-0.3,0.3c-0.2,0.1-0.3,0.1-0.5,0.1h-0.9h-0.1l0,0H112c-0.4,0-0.8-0.1-1.2-0.3c-0.3-0.2-0.5-0.5-0.4-0.9v-4.8
		c0-0.1-0.1-0.2-0.2-0.2l0,0h-1.8c-0.1,0-0.2,0.1-0.2,0.2l0,0v4.1c0,0.3,0,0.7,0,1c0,0.2-0.1,0.4-0.2,0.6c-0.1,0.1-0.3,0.2-0.4,0.3
		c-0.2,0.1-0.5,0.1-0.7,0.1c-0.4,0-0.7-0.1-1-0.3c-0.3-0.2-0.4-0.5-0.4-0.9V104c0-0.1-0.1-0.2-0.2-0.2l0,0h-1.8
		c-0.1,0-0.2,0.1-0.2,0.2l0,0v2.5c0,0.4,0,0.8,0,1s-0.1,0.4-0.2,0.6c-0.1,0.1-0.2,0.2-0.4,0.3c-0.3,0.1-0.5,0.1-0.8,0.1
		c-0.4,0-0.7-0.1-1-0.3c-0.2-0.2-0.3-0.6-0.3-0.9v-3.2c0-0.1-0.1-0.2-0.2-0.2l0,0h-1.8c-0.1,0-0.2,0.1-0.2,0.2l0,0v2.5
		c0,0.3,0,0.7,0,0.9c0,0.2,0,0.4-0.1,0.6c-0.1,0.1-0.2,0.3-0.3,0.3c-0.2,0.1-0.4,0.1-0.5,0.1H80.9c-0.3,0-0.5-0.1-0.7-0.2
		c-0.2-0.2-0.3-0.5-0.2-0.8V97c0-0.1-0.1-0.2-0.2-0.2l0,0H78c-0.1,0-0.2,0.1-0.2,0.2v10.7c-0.1,0.7,0.1,1.3,0.5,1.9
		c0.5,0.4,1.1,0.7,1.8,0.6H98c0.5,0,0.9-0.1,1.4-0.2c0.3-0.2,0.6-0.5,0.8-0.8c0.4,0.7,1.1,1.1,1.9,1.1h0.9c0.5,0,1-0.1,1.4-0.2
		c0.4-0.2,0.6-0.4,0.8-0.8c0.2,0.3,0.4,0.6,0.7,0.8c0.4,0.2,0.8,0.3,1.2,0.3h0.8c0.5,0,1-0.1,1.4-0.2c0.4-0.2,0.6-0.4,0.8-0.8
		c0.2,0.4,0.5,0.7,0.9,0.8c0.4,0.1,0.9,0.2,1.3,0.2l0,0h0.1h1.6c0.5,0,1-0.1,1.5-0.2c0.4-0.1,0.7-0.4,0.8-0.8
		c0.2,0.4,0.5,0.7,0.9,0.8c0.4,0.1,0.8,0.2,1.2,0.2l0,0h7.9c0.5,0,1.1-0.1,1.6-0.2c0.4-0.1,0.7-0.4,1-0.7c0.3-0.4,0.5-0.8,0.6-1.2
		c0.1-0.6,0.2-1.2,0.2-1.8c0-0.6-0.1-1.2-0.2-1.8C129.2,103.8,129,103.3,128.6,102.8z M124,107.9c-0.2,0.2-0.5,0.4-0.8,0.4H123
		c-0.3,0-0.6-0.1-0.8-0.4c-0.4-0.6-0.4-1.4,0-2c0.2-0.2,0.5-0.4,0.9-0.4c0.3,0,0.6,0.1,0.8,0.4c0.2,0.3,0.3,0.6,0.3,1
		C124.2,107.2,124.2,107.6,124,107.9z"/>
	<path class="st0" d="M136.8,107.8h2c0.1,0,0.2,0.1,0.2,0.2v2c0,0.1-0.1,0.2-0.2,0.2h-2c-0.1,0-0.2-0.1-0.2-0.2v-2
		C136.6,107.9,136.7,107.8,136.8,107.8z"/>
	<path class="st0" d="M141.3,107.8h2c0.1,0,0.2,0.1,0.2,0.2v2c0,0.1-0.1,0.2-0.2,0.2h-2c-0.1,0-0.2-0.1-0.2-0.2v-2
		C141.1,107.9,141.2,107.8,141.3,107.8z"/>
	<path class="st0" d="M194.2,98h1.6c0.1,0,0.2,0.1,0.2,0.2v1.7c0,0.1-0.1,0.2-0.2,0.2h-1.6c-0.1,0-0.2-0.1-0.2-0.2v-1.7
		C194,98.1,194.1,98,194.2,98z"/>
	<path class="st0" d="M196.8,98h1.6c0.1,0,0.2,0.1,0.2,0.2v1.7c0,0.1-0.1,0.2-0.2,0.2h-1.6c-0.1,0-0.2-0.1-0.2-0.2v-1.7
		C196.6,98.1,196.6,98,196.8,98z"/>
	<path class="st0" d="M195.4,102c-0.1,0-0.2,0.1-0.2,0.2v4.9c0,0.3-0.1,0.6-0.2,0.8c-0.2,0.2-0.5,0.2-0.7,0.2h-20.4
		c-0.4,0-0.8-0.1-1.2-0.3c-0.3-0.2-0.4-0.5-0.4-0.8v-1.6c0-0.6-0.1-1.3-0.4-1.9c-0.2-0.4-0.6-0.8-1-1.1c-0.5-0.3-1-0.4-1.5-0.5
		c-0.6-0.1-1.2-0.1-1.9-0.1l3.2-3.8c0.1-0.1,0-0.2-0.1-0.3l-1.3-1.1c-0.1-0.1-0.2,0-0.2,0.1l0,0l-4.2,5c-0.1,0.1-0.1,0.1-0.2,0.2
		c-0.1,0.1-0.1,0.2-0.1,0.3v1.4c0,0.1,0.1,0.2,0.2,0.2l0,0h3.2c1.3,0,2,0.6,2,1.7v1.1c0,0.2,0,0.5-0.1,0.7c0,0.2-0.1,0.3-0.2,0.5
		c-0.1,0.1-0.3,0.2-0.5,0.3c-0.3,0.1-0.6,0.1-0.9,0.1h-5.2c-0.4,0-0.8-0.1-1.2-0.3c-0.3-0.2-0.5-0.5-0.4-0.9V97
		c0-0.1-0.1-0.2-0.2-0.2h-1.8c-0.1,0-0.2,0.1-0.2,0.2v10.1c0,0.3-0.1,0.6-0.2,0.8c-0.2,0.2-0.5,0.2-0.7,0.2h-1c0,0,0,0-0.1,0H157
		c-0.3,0-0.6-0.1-0.8-0.3c-0.3-0.3-0.4-0.7-0.4-1.2c0-0.1,0-0.2,0-0.3c0-0.1,0-0.2,0-0.3c0-0.7-0.1-1.4-0.3-2
		c-0.2-0.5-0.5-1-0.8-1.3c-0.4-0.3-0.8-0.6-1.3-0.7c-1-0.3-2.2-0.3-3.2,0c-0.5,0.1-0.9,0.4-1.3,0.7c-0.4,0.4-0.7,0.9-0.9,1.4
		c-0.2,0.6-0.3,1.3-0.3,2c0,0.2,0,0.3,0,0.4s0,0.3,0,0.4c0,0.2-0.1,0.4-0.3,0.6c-0.1,0.2-0.3,0.3-0.5,0.4s-0.4,0.3-0.6,0.4
		c-0.2,0.1-0.4,0.3-0.6,0.5c-0.2,0.2-0.3,0.4-0.4,0.7c-0.1,0.3-0.2,0.7-0.2,1v3.7h2.2v-3.3c0-0.2,0-0.5,0.1-0.7
		c0.1-0.1,0.2-0.3,0.3-0.4l0.4-0.3c0.2-0.1,0.3-0.2,0.4-0.4c0.3,0.4,0.8,0.8,1.3,0.9c0.5,0.2,1.1,0.3,1.7,0.3c0.6,0,1.2-0.1,1.8-0.3
		c0.5-0.2,1-0.5,1.3-0.9c0.1,0.2,0.3,0.4,0.6,0.6c0.2,0.1,0.4,0.2,0.7,0.3c0.2,0.1,0.5,0.1,0.7,0.1h0.7h1.6c0.5,0,0.9-0.1,1.4-0.2
		c0.4-0.2,0.6-0.4,0.8-0.8c0.2,0.4,0.5,0.7,0.9,0.8c0.4,0.1,0.9,0.2,1.3,0.2h5.8c0.5,0,1-0.1,1.5-0.3c0.4-0.2,0.7-0.5,0.9-0.9
		c0.2,0.4,0.5,0.8,0.9,0.9c0.5,0.2,0.9,0.2,1.4,0.2h21c0.6,0.1,1.3-0.2,1.8-0.6c0.4-0.5,0.6-1.2,0.5-1.9V102c0-0.1-0.1-0.2-0.2-0.2
		L195.4,102z M153.1,107.8c-0.4,0.4-0.9,0.6-1.4,0.6s-1-0.2-1.4-0.5c-0.4-0.5-0.5-1.2-0.5-1.8c0-0.6,0.1-1.2,0.5-1.8
		c0.3-0.4,0.9-0.6,1.4-0.6c1.2,0,1.8,0.8,1.8,2.4C153.6,106.6,153.5,107.3,153.1,107.8L153.1,107.8z"/>
	<path class="st0" d="M200.3,96.8h1.8c0.1,0,0.2,0.1,0.2,0.2l0,0v13c0,0.1-0.1,0.2-0.2,0.2h-1.8c-0.1,0-0.2-0.1-0.2-0.2V97
		C200.1,96.9,200.2,96.8,200.3,96.8z"/>
</g>
</svg>
