<svg xmlns="http://www.w3.org/2000/svg" viewBox="0 0 388.05 117.87"><defs><style>.cls-1{fill:#414141;}.cls-2{fill:#919395;}.cls-3{fill:#fff;}.cls-4{fill:#47abc3;}</style></defs><g id="Layer_2" data-name="Layer 2"><g id="Layer_1-2" data-name="Layer 1"><path class="cls-1" d="M162.88,55.35l-4.83-1.5A4.72,4.72,0,0,1,154.34,49,4.85,4.85,0,0,1,156,45.08a5.46,5.46,0,0,1,3.85-1.59h.34a5.65,5.65,0,0,1,5.27,5.68l0,1.32h6.81V49.22a12.17,12.17,0,0,0-12-12.18h-.23a12.08,12.08,0,0,0-8.48,3.41,10.63,10.63,0,0,0-3.67,8.43,11.09,11.09,0,0,0,8,10.95l4.26,1.29c4.24,1.33,6.36,3.48,6.45,6.58a6.13,6.13,0,0,1-1.94,4.75,6.42,6.42,0,0,1-4.66,1.92h-.18a6.17,6.17,0,0,1-4.58-2,6.47,6.47,0,0,1-1.89-4.74l0-1.32h-6.82l0,1.31A13.32,13.32,0,0,0,169.26,77a12.43,12.43,0,0,0,3.85-9.29C173.06,61.62,169.62,57.44,162.88,55.35Z"/><path class="cls-1" d="M191.36,47.49l-.69,0a12.05,12.05,0,0,0-7.31,2.74V37.56H176.8V80.11h6.66V61.3A6.81,6.81,0,0,1,185.61,56a7.68,7.68,0,0,1,5.46-2.19h.18a7.28,7.28,0,0,1,5.31,2.27,7.48,7.48,0,0,1,2.38,5.51V80.11h6.5V62a14.19,14.19,0,0,0-4.38-10.51A13.42,13.42,0,0,0,191.36,47.49Z"/><path class="cls-1" d="M236.75,68.81a9.12,9.12,0,0,1-8.68,5.43h-.21a10,10,0,0,1-6.76-2.54A9.56,9.56,0,0,1,218,66.59H244.3v-3.4a15.43,15.43,0,0,0-4.54-10.84,16.65,16.65,0,0,0-11.12-5.28l-1.06,0A15.82,15.82,0,0,0,216.2,51.9,16.77,16.77,0,0,0,216.29,76a16,16,0,0,0,11.43,4.77H228a16.64,16.64,0,0,0,9.49-3.09,16.19,16.19,0,0,0,6.06-8.19l.24-.66ZM221.27,55.89a10,10,0,0,1,6.42-2.26h.23a10,10,0,0,1,9.53,6.76h-19.3A9.6,9.6,0,0,1,221.27,55.89Z"/><polygon class="cls-1" points="256.48 73.84 270.7 53.75 270.94 53.41 270.94 53 270.94 49.27 270.94 47.98 269.66 47.98 249.59 47.98 248.31 47.98 248.31 49.27 248.31 52.95 248.31 54.23 249.59 54.23 262.34 54.23 247.98 74.39 247.74 74.72 247.74 75.14 247.74 78.82 247.74 80.11 249.03 80.11 270.85 80.11 272.13 80.11 272.13 78.82 272.13 75.14 272.13 73.84 270.85 73.84 256.48 73.84"/><polygon class="cls-1" points="277 37.56 275.7 37.56 275.7 38.85 275.7 78.82 275.7 80.11 277 80.11 280.94 80.11 282.23 80.11 282.23 78.82 282.23 38.85 282.23 37.56 280.94 37.56 277 37.56"/><path class="cls-1" d="M302,47.14h-.64A15.37,15.37,0,0,0,290.08,52a16.92,16.92,0,0,0-.38,23.61,15.71,15.71,0,0,0,11.37,5.07h.63a15.51,15.51,0,0,0,11.3-4.8,16.76,16.76,0,0,0,.39-23.57A15.9,15.9,0,0,0,302,47.14Zm-.28,27.08h-.55A9.3,9.3,0,0,1,294.37,71a10.18,10.18,0,0,1-2.72-7.3,9.94,9.94,0,0,1,3-7.14,9.39,9.39,0,0,1,6.93-2.95h.19a8.94,8.94,0,0,1,6.76,2.92,10.4,10.4,0,0,1,3,7.14,10.21,10.21,0,0,1-3,7.57A8.86,8.86,0,0,1,301.76,74.22Z"/><path class="cls-1" d="M336.18,47.5a13.84,13.84,0,0,0-10.29,4.22,14.35,14.35,0,0,0-4.12,10.44V80.3h6.57V61.74a7.92,7.92,0,0,1,7.84-7.83,7.31,7.31,0,0,1,5.42,2.31A7.54,7.54,0,0,1,344,61.74V80.3h6.57V62.16a14.34,14.34,0,0,0-4.11-10.44A13.83,13.83,0,0,0,336.18,47.5Z"/><path class="cls-1" d="M383,51.86A15.86,15.86,0,0,0,371.52,47h-.45a16,16,0,0,0-11.37,5.12,16.35,16.35,0,0,0-4.6,11.62,16.68,16.68,0,0,0,5,12.05,15.61,15.61,0,0,0,11.33,4.8H372a15.68,15.68,0,0,0,9.55-3.5c0,1-.11,5.13-.15,6.34a8.17,8.17,0,0,1-2.65,4.74,9.62,9.62,0,0,1-12.55.74,8.51,8.51,0,0,1-3.48-4.55l-.26-.94H356l.45,1.63a15.2,15.2,0,0,0,5.32,8.08,16.57,16.57,0,0,0,9.87,3.48c.26,0,.49,0,.74,0A16.66,16.66,0,0,0,383,92.85,12.69,12.69,0,0,0,387.88,84c0-.09.17-6.46.17-6.55V63.78A15.81,15.81,0,0,0,383,51.86Zm-1.55,12.2a10.22,10.22,0,0,1-3,7.13,9,9,0,0,1-6.8,2.92,9.55,9.55,0,0,1-7.07-2.94,9.93,9.93,0,0,1-3-7.15,10.12,10.12,0,0,1,2.78-7.25,9.53,9.53,0,0,1,6.84-3.32l.51,0a8.87,8.87,0,0,1,6.78,3A10,10,0,0,1,381.49,64.06Z"/><polygon class="cls-2" points="193.23 106.62 193.23 111.64 191.2 111.64 191.2 106.49 186.94 97.7 189.18 97.7 192.25 104.4 195.31 97.7 197.55 97.7 193.23 106.62"/><path class="cls-2" d="M196.52,106.38a5.74,5.74,0,0,1,.37-2.09,5.31,5.31,0,0,1,1.11-1.75,5.77,5.77,0,0,1,1.79-1.31,4.87,4.87,0,0,1,2.07-.46,5.35,5.35,0,0,1,3.91,1.63,5.85,5.85,0,0,1,1.19,1.78,5.32,5.32,0,0,1,.42,2.07,5.83,5.83,0,0,1-.39,2.1,5.69,5.69,0,0,1-2.89,3.13,5.17,5.17,0,0,1-2.14.45,5.5,5.5,0,0,1-2.13-.41,5.36,5.36,0,0,1-1.75-1.23,5.76,5.76,0,0,1-1.15-1.81,5.69,5.69,0,0,1-.41-2.1m2,0a3.65,3.65,0,0,0,1,2.63A3.27,3.27,0,0,0,202,110a3.21,3.21,0,0,0,2.46-1.05,3.74,3.74,0,0,0,1-2.65,3.68,3.68,0,0,0-1-2.64,3.44,3.44,0,0,0-4.95,0,3.65,3.65,0,0,0-1,2.64"/><path class="cls-2" d="M217.78,111.64H216v-1.19a3.76,3.76,0,0,1-1.27,1.08,3.52,3.52,0,0,1-1.57.35,3.89,3.89,0,0,1-3.08-1.24,5,5,0,0,1-1.1-3.48V101.1h1.9v5.52a4.48,4.48,0,0,0,.6,2.56,2.09,2.09,0,0,0,1.82.84,2.52,2.52,0,0,0,1.32-.34,2.57,2.57,0,0,0,.93-1,2.93,2.93,0,0,0,.3-1,12.18,12.18,0,0,0,.1-1.79V101.1h1.87Z"/><polygon class="cls-2" points="229.35 111.64 227.32 111.64 227.32 99.58 224.72 99.58 224.72 97.7 231.96 97.7 231.96 99.58 229.35 99.58 229.35 111.64"/><path class="cls-2" d="M240.65,111.64v-1.3a4.69,4.69,0,0,1-1.62,1.14,4.57,4.57,0,0,1-1.91.4,5.32,5.32,0,0,1-4-1.59,5.43,5.43,0,0,1-1.57-4,5.77,5.77,0,0,1,.39-2.11,5.67,5.67,0,0,1,2.86-3,5.6,5.6,0,0,1,2.15-.4,5,5,0,0,1,2,.39,4.68,4.68,0,0,1,1.66,1.16V101.1h1.92v10.54Zm-7.08-5.34a3.66,3.66,0,0,0,1.05,2.68,3.46,3.46,0,0,0,2.6,1.08,3.32,3.32,0,0,0,2.46-1.08,3.5,3.5,0,0,0,1.06-2.54,3.68,3.68,0,0,0-1.05-2.66,3.35,3.35,0,0,0-2.51-1.1,3.57,3.57,0,0,0-3.61,3.62"/><rect class="cls-2" x="244.76" y="97.7" width="1.89" height="13.94"/><polygon class="cls-2" points="248.9 111.64 248.9 97.7 250.78 97.7 250.78 105.99 254.54 101.1 256.74 101.1 252.88 106.1 257.46 111.64 255.02 111.64 250.78 106.28 250.78 111.64 248.9 111.64"/><rect class="cls-2" x="258.98" y="109.28" width="1.92" height="2.35"/><rect class="cls-2" x="264.59" y="109.28" width="1.92" height="2.35"/><polygon class="cls-2" points="273.67 97.7 275.73 97.7 278.76 108.44 281.47 97.7 282.99 97.7 285.69 108.44 288.71 97.7 290.76 97.7 286.55 111.64 284.73 111.64 282.22 101.23 279.69 111.64 277.89 111.64 273.67 97.7"/><path class="cls-2" d="M292.49,107.07a3.57,3.57,0,0,0,1.2,2.14A3.3,3.3,0,0,0,296,110a3.27,3.27,0,0,0,1.71-.45,3.2,3.2,0,0,0,1.23-1.27H301a6.06,6.06,0,0,1-2,2.68,5.07,5.07,0,0,1-3,.93,5.26,5.26,0,0,1-2.13-.41,5,5,0,0,1-1.76-1.24,5.8,5.8,0,0,1-1.57-3.9,5.66,5.66,0,0,1,3.26-5.14,5.31,5.31,0,0,1,2.16-.43,5.48,5.48,0,0,1,2.58.64,5.36,5.36,0,0,1,2.65,3.39,8.15,8.15,0,0,1,.21,2v.3Zm6.79-1.7a3.92,3.92,0,0,0-1.22-2,3.27,3.27,0,0,0-2.1-.71,3.33,3.33,0,0,0-2.15.73,3.7,3.7,0,0,0-1.27,2Z"/><polygon class="cls-2" points="310.73 111.64 308.71 111.64 308.71 97.7 310.73 97.7 310.73 103.61 316.41 103.61 316.41 97.7 318.43 97.7 318.43 111.64 316.41 111.64 316.41 105.59 310.73 105.59 310.73 111.64"/><path class="cls-2" d="M322.18,107.07a3.59,3.59,0,0,0,1.18,2.14,3.35,3.35,0,0,0,2.27.81,3.22,3.22,0,0,0,1.71-.45,3.29,3.29,0,0,0,1.24-1.27h2.12a5.91,5.91,0,0,1-2,2.68,5,5,0,0,1-3,.93,5.22,5.22,0,0,1-2.13-.41,5.11,5.11,0,0,1-1.75-1.24,5.44,5.44,0,0,1-1.15-1.8,5.33,5.33,0,0,1-.43-2.1,5.65,5.65,0,0,1,3.27-5.14,5.31,5.31,0,0,1,2.16-.43,5.44,5.44,0,0,1,2.57.64,5.51,5.51,0,0,1,2,1.81,5.59,5.59,0,0,1,.68,1.58,7.64,7.64,0,0,1,.22,2v.3Zm6.79-1.7a3.86,3.86,0,0,0-1.23-2,3.24,3.24,0,0,0-2.09-.71,3.29,3.29,0,0,0-2.15.73,3.64,3.64,0,0,0-1.27,2Z"/><rect class="cls-2" x="332.69" y="97.7" width="1.88" height="13.94"/><path class="cls-2" d="M338.66,110.36V115h-1.9V101.1h1.92v1.3a5,5,0,0,1,1.62-1.13,4.6,4.6,0,0,1,1.91-.39,5.3,5.3,0,0,1,4,1.58,5.37,5.37,0,0,1,1.58,4,5.76,5.76,0,0,1-.4,2.1,5.66,5.66,0,0,1-1.12,1.77,5.26,5.26,0,0,1-1.74,1.22,5.42,5.42,0,0,1-2.15.4,4.89,4.89,0,0,1-3.67-1.55m-.06-4.06a3.75,3.75,0,0,0,1,2.67,3.35,3.35,0,0,0,2.5,1.09,3.6,3.6,0,0,0,3.61-3.62,3.69,3.69,0,0,0-1.05-2.68,3.46,3.46,0,0,0-2.58-1.08,3.39,3.39,0,0,0-2.46,1.08,3.57,3.57,0,0,0-1.07,2.54"/><circle class="cls-3" cx="58.94" cy="58.68" r="57.97"/><path class="cls-4" d="M58.94,0a58.94,58.94,0,1,0,58.94,58.94A59,59,0,0,0,58.94,0Zm0,115.72a56.79,56.79,0,1,1,56.8-56.78A56.86,56.86,0,0,1,58.94,115.72Z"/><path class="cls-4" d="M58.94,6.34a52.6,52.6,0,1,0,52.6,52.6A52.6,52.6,0,0,0,58.94,6.34ZM88.6,79.49a18.53,18.53,0,0,1-4.94,7.43,16.65,16.65,0,0,1-8,4.17q-4.41.91-10.48-1h-.12v0h0l.07-.07,2.55-7.06Q75,85.18,79,81.46a10.41,10.41,0,0,0,2.9-4.16,10.83,10.83,0,0,0,.48-5.4,9.31,9.31,0,0,0-2.13-4.81,9.61,9.61,0,0,0-4.07-2.82,8.65,8.65,0,0,0-6.56.42c-.33.14-1.85,1-4.55,2.61q-11.7,7-21.13,3.61c-2.26-.82-11.81-3.48-16.52-16.12a27.48,27.48,0,0,1-.11-18.64l.5-1.33,6.06,2.85c-2.09,5.65-.85,11.12,1.21,15.45,4.54,9.48,15.64,14.2,27.46,6.93a37.22,37.22,0,0,1,5.25-2.82A14.87,14.87,0,0,1,78.61,57a16,16,0,0,1,9.66,9.23A17.6,17.6,0,0,1,88.6,79.49ZM85.8,60c-1.79-2.91-5-4.29-7.61-5.29a12.61,12.61,0,0,0-8.06-.39,36.54,36.54,0,0,0-7.82,3.59A39.16,39.16,0,0,1,57,60.56a15,15,0,0,1-10.79,0,16.2,16.2,0,0,1-9.46-9.36,17.16,17.16,0,0,1-.09-13.11,18,18,0,0,1,5.06-7.18,16.35,16.35,0,0,1,8-3.88q4.41-.78,10.44,1.31h.11v0s0,0,0,0l-.08.08L57.63,35.3q-7.29-2.46-11.33,1.09a10.21,10.21,0,0,0-3,4,10.59,10.59,0,0,0-.58,5.28,9.16,9.16,0,0,0,2,4.82,9.92,9.92,0,0,0,4,2.89,8.67,8.67,0,0,0,6.54-.24q.51-.19,4.59-2.45,11.81-6.59,21.13-3a20.77,20.77,0,0,1,6.42,3.83,22.41,22.41,0,0,1,4.09,5.63Z"/></g></g></svg>