<svg xmlns="http://www.w3.org/2000/svg" viewBox="0 0 102 102"><defs><style>.cls-1{fill:#d8eef3;stroke-width:2px;}.cls-1,.cls-3{stroke:#3da8c0;stroke-miterlimit:10;}.cls-2{fill:#e6e9ee;}.cls-3,.cls-5{fill:#fff;}.cls-4{fill:#3da8c0;}</style></defs><title>user 2</title><g id="Layer_2" data-name="Layer 2"><g id="Layer_1-2" data-name="Layer 1"><circle class="cls-1" cx="51" cy="51" r="50"/><g id="Group_729" data-name="Group 729"><path id="Path_267" data-name="Path 267" class="cls-2" d="M51.23,72.5c-.08,0-.16.07-.31.07s-.16-.07-.31-.07Z"/><path id="Path_268" data-name="Path 268" class="cls-3" d="M91.23,80.53a49.93,49.93,0,0,1-80.62,0C17.69,73,27.3,69,35.33,66.91a30.1,30.1,0,0,0,2.36,13.22c3-6.93,13.15-7.55,13.15-7.55s10.16.55,13.23,7.55c.08.16,3.07-7.48,2.36-13.22C74.54,69,84.15,73,91.23,80.53Z"/></g><path id="Path_269" data-name="Path 269" class="cls-4" d="M63.36,61.63h0c0,1-.62,6.46-12.13,10.87h-.62c-11.5-4.41-12.13-9.85-12.13-10.87h0a15.84,15.84,0,0,1,1.42-6c3.15,3.54,6.93,5.9,11,5.9s7.88-2.28,11-5.9A14.57,14.57,0,0,1,63.36,61.63Z"/><path id="Path_270" data-name="Path 270" class="cls-4" d="M57.77,74.31l-2.52,5H46.59l-2.52-5a23.16,23.16,0,0,1,6.85-1.73A22.85,22.85,0,0,1,57.77,74.31Z"/><path id="Path_271" data-name="Path 271" class="cls-4" d="M43.91,100.53A52.55,52.55,0,0,0,51,101a54.23,54.23,0,0,0,7.09-.47L55.33,79.42H46.67Z"/><g id="Group_730" data-name="Group 730"><path id="Path_272" data-name="Path 272" class="cls-5" d="M63.36,61.47s.55,6.3-12.44,11.1c0,0,10.16.56,13.23,7.56C64.23,80.45,70.14,65.17,63.36,61.47Z"/><path id="Path_273" data-name="Path 273" class="cls-5" d="M38.48,61.47c-6.69,3.7-.87,18.9-.71,18.66C40.76,73.2,51,72.57,51,72.57,37.93,67.77,38.48,61.47,38.48,61.47Z"/></g><path id="Path_275" data-name="Path 275" class="cls-5" d="M72.42,51.42c-1.66,2.76-4.18,4.41-6.07,4.1-3.78,7-9.29,12.2-15.43,12.2s-11.65-5.27-15.43-12.2c-1.89.23-4.41-1.34-6.06-4.1-2-3.22-2.05-6.77-.16-8a2.45,2.45,0,0,1,1.5-.31,18.66,18.66,0,0,0,3,5.19c-1.81-10,5.59-11.1,4.33-20.7,0,0,4.64,10.31,17.95,3.07l-1,2C73.6,28.51,67.38,50.4,67.22,51a24.55,24.55,0,0,0,4.25-7.79,1.85,1.85,0,0,1,.94.31C74.47,44.57,74.39,48.2,72.42,51.42Z"/><path id="Path_276" data-name="Path 276" class="cls-4" d="M61.63,17.25a9.26,9.26,0,0,1,3.94,1.18c-6.69-7.64-17.64-2.75-17.64-2.75a10.25,10.25,0,0,1,7-2.84c-15.67-2.36-18.35,7-18.35,7A5.78,5.78,0,0,1,36,16.38c-1.11,1.89.08,5.67.08,5.67-1.11-2.75-5-2.28-5-2.28,3.31.55,3.86,2.6,3.86,2.6C26.68,25.44,28.09,34,28.09,34l2-2.36a19.72,19.72,0,0,0,3.78,16.61c-1.81-10,5.59-11.1,4.33-20.71,0,0,4.65,10.32,18,3.07l-1,2C73.92,28.35,67.31,51,67.31,51A25.48,25.48,0,0,0,73,33.71l.78,3.15C75.88,22.68,61.63,17.25,61.63,17.25Z"/></g></g></svg>