<svg xmlns="http://www.w3.org/2000/svg" xmlns:xlink="http://www.w3.org/1999/xlink" width="353" height="298" fill="none" xmlns:v="https://vecta.io/nano"><style><![CDATA[.B{stroke-miterlimit:10}.C{fill:#fff}.D{stroke:#4d4d4f}.E{fill:#4d4d4f}.F{stroke-width:.1}.G{stroke:#dfdfde}.H{fill:#f7e7dc}.I{stroke-width:.25}.J{fill:#f3bfb2}.K{fill-rule:evenodd}.L{fill:#ecf7fb}.M{stroke-width:2}.N{fill:#8ac3c5}.O{fill:#4d4e4f}]]></style><path d="M353 65.508a238.7 238.7 0 0 0-55.533-6.547A238.76 238.76 0 0 0 58.705 297.723h238.762H353V65.508z" class="K L"/><mask id="A" class="C"><path d="M352.997 40.744c-18.143-3.93-36.784-5.955-55.635-5.955a262.83 262.83 0 0 0-185.849 76.981c-49.291 49.291-76.982 116.143-76.982 185.85h262.831 55.635V40.744z" class="K"/></mask><path d="M352.997 40.744h2v-1.613l-1.577-.342-.423 1.955zm-55.635-5.955v2-2zM111.513 111.77l-1.415-1.414 1.415 1.414zM34.531 297.62h-2v2h2v-2zm262.831 0v2-2zm55.635 0v2h2v-2h-2zm.423-258.831a264.76 264.76 0 0 0-56.058-6v4c18.707 0 37.207 2.01 55.211 5.909l.847-3.909zm-56.058-6c-70.237 0-137.598 27.902-187.264 77.567l2.829 2.829a260.83 260.83 0 0 1 184.435-76.396v-4zm-187.264 77.567C60.433 160.022 32.531 227.382 32.531 297.62h4a260.83 260.83 0 0 1 76.396-184.435l-2.829-2.829zM34.531 299.62h262.831v-4H34.531v4zm262.831 0h55.635v-4h-55.635v4zm57.635-2V40.744h-4V297.62h4z" mask="url(#A)" class="L"/><mask id="B" class="C"><path d="M352.998 5.512C334.703 2.025 316.077.258 297.363.258a297.2 297.2 0 0 0-113.796 22.65C147.49 37.861 114.708 59.779 87.096 87.41a297.57 297.57 0 0 0-64.46 96.534A297.72 297.72 0 0 0 0 297.813h297.363 55.635V5.512z" class="K"/></mask><path d="M352.998 5.512h2V3.857l-1.626-.31-.374 1.965zM297.363.258v-2 2zM87.096 87.41l1.415 1.414-1.415-1.414zm-64.46 96.534l-1.848-.765 1.848.765zM0 297.813h-2v2h2v-2zm297.363 0v-2 2zm55.635 0v2h2v-2h-2zm.374-294.266a299.17 299.17 0 0 0-56.009-5.29v4a295.18 295.18 0 0 1 55.261 5.219l.748-3.929zm-56.009-5.29A299.19 299.19 0 0 0 182.802 21.06l1.531 3.695a295.2 295.2 0 0 1 113.03-22.498v-4zM182.802 21.06a299.34 299.34 0 0 0-97.121 64.936l2.829 2.828c27.427-27.445 59.988-49.215 95.823-64.068l-1.531-3.695zM85.681 85.996a299.56 299.56 0 0 0-64.893 97.183l3.696 1.53A295.56 295.56 0 0 1 88.51 88.824l-2.829-2.828zm-64.893 97.183C5.743 219.522-2 258.475-2 297.813h4C2 259 9.64 220.567 24.483 184.709l-3.696-1.53zM0 299.813h297.363v-4H0v4zm297.363 0h55.635v-4h-55.635v4zm57.635-2V5.512h-4v292.301h4z" mask="url(#B)" class="L"/><g clip-path="url(#C)"><path d="M180.575 235.822H99.96s-7.062.359-8.136-6.27c-1.042-6.63-3.027-51.601 8.853-68.909s32.708-11.431 44.522-85.859c0 0 .162-27.629 39.542-29.654 0 0 27.338-4.246 35.963 34.095 0 0 3.45 20.281 19.788 20.64s47.418.751 48.818 32.789-6.77 79.491-8.56 84.324-16.891 18.289-31.341 19.203c-14.45.948-68.833-.359-68.833-.359z" fill="#c0f3cf"/><path d="M258.555 250.126s1.855-2.972 5.565-1.175 10.317 1.469 14.027-4.148c0 0 1.855-4.768 5.826-3.854s12.107 2.384 15.426-4.147c3.352-6.532 7.323-7.12 7.844-7.12s8.201-.588 9.926-8.001c0 0 .911-5.356-4.621-6.238-5.566-.882-7.681-2.384-8.462-2.678s-3.938-3.266-10.708 0-8.071.882-8.331.588-2.636-1.47-5.826-.882-8.462 4.442-8.462 4.442-6.086 4.768-7.42 9.503c-1.334 4.768-7.941 8.916-7.941 8.916s-3.19.294-2.636 6.826c.488 6.499 5.793 7.968 5.793 7.968z" fill="#69a9a9"/><g class="B G M"><path d="M302.719 219.689s-23.888 4.736-43.09 18.387"/><path d="M283.485 219.918l-4.296 7.413m12.627-.849s-2.278-2.057-4.459-2.351m-19.168 16.525s-2.604-4.572-5.728-4.507"/></g><path d="M258.294 244.478s2.115-3.56 7.941-5.356 14.58-11.594 13.767-23.188c0 0-1.855-6.238 6.053-9.21s15.622-12.769 15.362-19.301-.782-14.859 5.565-21.097 6.086-13.357 6.086-15.741-1.595-8.916-7.681-9.21c0 0-5.012.588-9.796 4.148-4.752 3.559-6.607 2.09-8.462 2.384s-6.346 1.469-10.056 5.65-7.16 11.299-7.941 12.475-2.116 3.266-4.752 3.266-8.722.882-11.912 8.622-2.896 10.091-2.896 10.712c0 .588-3.45 4.768-2.116 14.565s1.595 8.622 1.335 9.798-1.92 10.581-1.628 14.631c.293 4.082.847 7.348 1.367 8.818.489 1.502 3.418 12.802 9.764 8.034z" class="N"/><g class="B G M"><path d="M304.996 151.629s-32.252 29.001-48.687 64.468"/><path d="M275.607 170.57l.456 13.292m18.649-13.291s-5.467-.327-9.112 1.437m-13.67 38.962s-8.396-3.136-13.116 0"/></g><g fill="#c0f3cf"><path d="M113.206 92.517s12.823-13.586 14.352 2.058c1.562 15.644-4.393 29.523-5.142 32.724-.781 3.2-3.873 11.006-8.527 10.712s-9.047 2.286-11.098-1.176-5.402-9.242-6.444-15.317-1.79-6.629 0-11.855 3.71-8.425 5.728-10.744 11.131-6.401 11.131-6.401zm125.62-2.074c3.4-1.054 4.002-8.908 1.343-17.541S232.6 58.125 229.2 59.179s-4.002 8.908-1.344 17.541 7.57 14.778 10.97 13.723z"/></g><path d="M95.144 185.594s-4.556.392-5.63 1.96-5.272.784-7.03-.784-8.429-3.168-11.586-.392-8.787 3.168-8.787 3.168-11.586 2.678 0 12.377c0 0 3.157 1.829 5.272 2.221s4.914 0 9.113 7.087c4.263 7.054 13.376 3.919 13.734 3.919s4.914-2.351 9.113 4.736 4.459 8.883 8.006 8.197 7.779-3.135 9.536-8.426 1.758-10.385-.716-13.945-3.515-8.655-7.355-11.039-6.672-7.87-8.429-7.87-4.557-2.384-5.24-1.209z" fill="#69a9a9"/><g class="B G"><path d="M64.422 196.436s26.459 2.449 47.386 14.99"/><path d="M85.836 194.574l4.556 7.446m-14.027.458s2.604-2.45 5.045-2.972"/><path d="M102.207 215.083s3.027-5.16 6.509-5.421" class="M"/></g><path d="M124.239 211.295l-6.704 6.303h-12.4l-9.243-6.793s-7.29-8.85-5.11-21.652c2.181-12.835-17.998-15.97-18.974-21.424s-2.278-8.328 0-15.709-11.326-14.957-10.219-26.519 7.03-11.822 13.018-9.568c0 0 6.639 6.76 12.009 6.139s9.926 4.899 11.228 6.695c1.302 1.829 11.716 7.773 19.202 6.271s13.213 15.578 10.187 28.608c-3.027 12.998-.228 14.174.813 17.669s1.562 10.548 0 13.716-.911 5.911.065 7.969c1.009 2.025-3.873 8.295-3.873 8.295z" class="N"/><g class="B G"><path d="M73.24 129.062s28.705 29.687 47.028 69.073"/><path d="M98.072 147.318l2.018 15.676m-15.947-13.095s3.938-1.11 6.932.457m16.892 43.86s5.565-4.801 9.568-1.764"/></g><path d="M123.003 257.867H78.35c-8.364 0-15.134-6.793-15.134-15.186V228.54c0-8.394 6.769-15.186 15.134-15.186h44.653c8.364 0 15.133 6.792 15.133 15.186v14.141c0 8.393-6.769 15.186-15.133 15.186z" fill="#517579"/><path d="M81.572 212.569s-11.554 1.96-15.101 9.863c0 0 24.409-.784 35.539-4.931s-1.79-6.891-1.79-6.891-7.192-.392-8.169 0-10.48 1.959-10.48 1.959z" fill="#4f4f50"/><path d="M129.773 213.352H69.336c-1.074 0-1.92-.881-1.92-1.926v-2.417a1.93 1.93 0 0 1 1.92-1.927h60.437c1.074 0 1.92.882 1.92 1.927v2.417c.033 1.045-.846 1.926-1.92 1.926z" fill="#517579"/><path d="M268.448 157.9H88.57v-5.519h179.878c1.27 0 2.279 1.012 2.279 2.286v.947a2.29 2.29 0 0 1-2.279 2.286z" fill="#82bbc5"/><path d="M261.582 157.898H155.939V260.772H261.582V157.898Z" fill="#6c9ca4"/><g fill="#80b9c5"><path d="M226.498 157.898h-70.559v102.874h70.559V157.898z"/><g stroke-width=".5" class="B D"><path d="M221.94 162.242h-62.129v27.597h62.129v-27.597z"/><path d="M221.94 189.84h-62.129v27.596h62.129V189.84z"/><path d="M221.94 217.436h-62.129v27.596h62.129v-27.596z"/></g></g><g fill="#38595d"><path d="M190.86 198.886c1.258 0 2.278-1.141 2.278-2.548s-1.02-2.547-2.278-2.547-2.278 1.141-2.278 2.547 1.02 2.548 2.278 2.548zm0 27.595c1.258 0 2.278-1.14 2.278-2.547s-1.02-2.547-2.278-2.547-2.278 1.14-2.278 2.547 1.02 2.547 2.278 2.547zm0-55.191c1.258 0 2.278-1.14 2.278-2.547s-1.02-2.548-2.278-2.548-2.278 1.141-2.278 2.548 1.02 2.547 2.278 2.547z"/></g><path d="M160.982 122.106v6.433c0 .719.424 1.307 1.009 1.503.131.032.261.065.423.065h13.181l-2.441-2.482v-5.552c0-.327-.097-.621-.227-.882-.261-.424-.684-.718-1.172-.718h-9.341c-.781.032-1.432.751-1.432 1.633z" class="C"/><g class="E"><path d="M161.992 130.042c.261.425.684.719 1.172.719h13.181l-2.441-2.482v-5.552c0-.719-.423-1.306-1.009-1.502.163.261.228.555.228.881v5.552l2.441 2.482h-13.181c-.13 0-.261-.032-.391-.098z"/><use xlink:href="#D"/><path d="M166.971 126.057c.36 0 .651-.336.651-.751s-.291-.751-.651-.751-.651.336-.651.751.292.751.651.751zm-2.474 0c.359 0 .651-.336.651-.751s-.292-.751-.651-.751-.651.336-.651.751.291.751.651.751z"/></g><path d="M211.135 79.128v11.888c0 1.306.781 2.417 1.855 2.809.228.098.488.131.748.131h24.344l-4.491-4.572V79.128a3.26 3.26 0 0 0-.423-1.6c-.456-.784-1.269-1.306-2.181-1.306h-17.249c-1.464-.033-2.603 1.274-2.603 2.907z" class="C"/><g class="E"><path d="M212.957 93.792c.456.784 1.269 1.306 2.181 1.306h24.343l-4.491-4.572V80.272c0-1.306-.781-2.417-1.855-2.809.293.457.423 1.012.423 1.6v10.255l4.491 4.572h-24.343c-.261.033-.521 0-.749-.098zm13.766-7.349c.683 0 1.237-.614 1.237-1.372s-.554-1.372-1.237-1.372-1.237.614-1.237 1.372.554 1.372 1.237 1.372zm-4.555 0c.683 0 1.237-.614 1.237-1.372s-.554-1.372-1.237-1.372-1.236.614-1.236 1.372.553 1.372 1.236 1.372zm-4.556 0c.683 0 1.236-.614 1.236-1.372s-.553-1.372-1.236-1.372-1.237.614-1.237 1.372.554 1.372 1.237 1.372z"/></g><path d="M170.584 223.086l-18.063 22.534s-1.204 1.894-3.417.294l-7.876-5.291s-.716-.391.586 2.319l3.514 6.695 2.311 4.18c.423.752 2.116 2.221 2.116 2.221l27.468-17.701s1.627-.326.293-2.71l-6.932-12.541z" class="H"/><path d="M151.123 255.287s-6.314-6.565-5.956-11.594c0 0-10.252-12.018-6.672-1.502l7.876 14.206c-.033 0 .456 2.482 4.752-1.11z" class="E"/><path d="M223.241 205.58s-18.681-2.286-27.598-1.861c-8.885.424-21.675 15.186-26.264 20.117 0 0 2.701 10.875 7.843 14.729 0 0 25.353-15.349 38.567-11.071 13.213 4.311 7.452-21.914 7.452-21.914z" class="O"/><path d="M208.661 255.646l1.725 27.793-3.547.914-4.166-.13-7.518-.164-2.278-.62 8.429-4.344s2.409-.98 1.4-3.168c-1.009-2.155-7.063-17.407-7.063-17.407l13.018-2.874z" class="H"/><path d="M210.939 260.478s-10.74 1.568-15.947 0c0 0 .749-26.583 3.775-35.303 0 0 .424-3.821 8.885-1.209s6.542 8.786 6.542 8.786l-3.255 27.726z" class="O"/><path d="M198.15 227.331s.684-5.095 5.598-4.213" stroke="#fff" class="B I"/><path d="M197.401 281.445s3.482 2.58 12.986.392c0 0 1.171 4.801-1.335 4.736s-16.207 0-16.207 0-12.4-1.339 4.556-5.128z" class="E"/><path d="M232.941 133.372l-5.272-4.278s-1.855.196.228 2.384l2.083 2.188-4.947-1.47s-1.334 1.339.976 2.286l3.092 1.274-4.491.457s-.846 1.666 1.725 1.405 2.603.065 2.603.065l-3.156 1.568s-.196 1.6 1.594 1.012l1.107-.098s.032.392.488 1.143.944 1.894 2.441 2.123 4.036-.392 4.556-2.45c.521-2.024.619-3.527.13-5.323 0 0-.878-1.274-1.562-4.801-.032.033-1.627-1.437-1.595 2.515z" class="H"/><path d="M217.645 183.798l2.181 27.466s.781 4.572 4.524 4.702 59.102-1.731 59.102-1.731 15.589-46.015 6.151-62.9c-9.471-16.851-53.993-37.589-78.467 10.255 0 0-12.79-4.507-22.456-19.595l-8.787 4.572s10.414 43.436 37.752 37.231z" fill="#43b966"/><path d="M232.908 133.178s-.293 2.612.554 3.723" class="B D I"/><path d="M189.363 131.872l1.953-2.189c.423-.457.456-1.143.065-1.469s-1.041-.229-1.465.228l-1.952 2.189c-.423.457-.456 1.143-.065 1.469.39.359 1.041.261 1.464-.228z" class="J"/><path d="M190.633 130.042s-.586-.065-1.074-.751" class="B D F"/><path d="M183.244 148.429l8.071-2.907c.651-.228 1.009-1.437.781-2.678l-4.686-25.147c-.228-1.241-.977-2.057-1.628-1.829l-8.071 2.907c-.651.229-1.009 1.437-.781 2.678l4.687 25.147c.227 1.274.943 2.057 1.627 1.829z" fill="#122a4c"/><path d="M184.024 148.2l7.225-2.776c.586-.229.912-1.437.684-2.678l-4.589-25.18c-.228-1.241-.879-2.057-1.497-1.828l-7.225 2.776c-.586.228-.911 1.437-.684 2.678l4.589 25.179c.228 1.209.912 2.058 1.497 1.829z" fill="#2b5171"/><path d="M184.188 148.102l7.258-2.743c.488-.196.716-1.143.553-2.123l-4.719-25.474c-.195-.98-.716-1.633-1.204-1.469l-7.258 2.743c-.488.196-.716 1.143-.553 2.123l4.719 25.473c.163 1.013.716 1.666 1.204 1.47z" fill="#eef8f9"/><path d="M182.615 118.048c.003-.27-.111-.491-.255-.492s-.263.217-.265.487.111.491.255.493.263-.217.265-.488z" fill="#2b5171"/><path d="M184.448 139.35l4.003-2.45c.585-.359.683-1.731.26-3.037l-1.074-3.233c-.423-1.339-1.269-2.123-1.823-1.796l-4.003 2.449c-.585.359-.683 1.731-.26 3.037l1.074 3.233c.423 1.339 1.237 2.123 1.823 1.797z" fill="#a9d2dc"/><path d="M183.503 124.49s-1.464-.914-1.432 3.135c0 0 .066 1.437.619 2.45 0 0 .748 1.502-.228 1.992s-.521 2.09-.423 2.286.521.751.195 1.241-.26 1.47.13 1.437c.423-.033 3.906-.686 3.906-.686l.846-3.364s.976-1.502-.423-2.547c0 0-.781-.033-.781-2.515.097-2.514-1.953-4.964-2.409-3.429z" fill="#4f4f50"/><path d="M186.498 133.896s-.684 1.96-2.051 1.209l1.4 6.727 2.571-.979c.032.032-1.107-4.67-1.92-6.957z" class="C"/><path d="M185.815 132.72s-.423-.066-.814-1.829-.976-.196-.976-.196.586 2.351.13 2.645-.097.817-.097.817l.716 1.535s.65.098.748.065 1.074-.751 1.107-.882.195-.653.13-1.045c-.163-.425-.944-1.11-.944-1.11z" fill="#f6e6db"/><g fill="#1ca6bf"><path d="M191.184 139.84s-.943-3.429-2.798-6.205c0 0-.879-1.698-2.572-.915 0 0 1.628 4.703 2.344 8.296l3.026-1.176zm-7.063-6.5s1.497 3.854 1.888 8.458l-3.678 1.372s-.39-3.854-.065-6.434 1.172-3.135 1.855-3.396z"/></g><path d="M184.252 131.153s.358.751.911.424l-.195-.718c-.065-.229-.716.294-.716.294z" fill="#141f2d"/><g fill="#f6e6db"><path d="M183.894 126.156s.196 1.143 1.27 1.405l.358 2.449c.065.882-.358 1.176-.814 1.339s-.944-.131-1.074-.947l-.13-.686s-.391-.131-.391-.784c0 0 .033-.457.261 0 0 0 .032-.359-.033-.784 0 0 .749-.685.553-1.992zm1.368 1.895s.162-.261.195.196c.033.424-.065.62-.065.62l-.13-.816z"/></g><g class="B D F"><path d="M184.909 129.209c.285-.036.456-.545.381-1.135s-.367-1.04-.652-1.003-.456.544-.381 1.135.366 1.039.652 1.003zm-1.106.428c.286-.037.456-.545.381-1.135s-.367-1.04-.652-1.003-.456.544-.381 1.135.367 1.039.652 1.003z"/></g><g fill="#141f2d"><path d="M184.699 128.304c.036-.005.056-.081.044-.17s-.049-.159-.085-.154-.055.081-.044.17.05.159.085.154zm-.88.326c.035-.004.055-.081.044-.17s-.05-.158-.086-.154-.055.081-.044.17.05.159.086.154z"/></g><g class="B D"><path d="M184.285 128.441l-.097.033" class="I"/><g class="F"><path d="M184.838 127.691s-.261-.36-.391.163m-.585.197s-.228-.359-.358.13m1.334 1.862s-.13.392-.391.131m-.195 9.633s-.033 1.175.163 2.58m4.329-4.506s.619 1.274.879 2.547"/><path d="M184.316 128.932s.619.555.261.718"/></g></g><path d="M190.013 134.092l1.237-1.372c.488-.522.553-1.241.163-1.567s-1.107-.196-1.563.326l-1.236 1.372c-.489.522-.554 1.241-.163 1.568.39.359 1.107.195 1.562-.327z" class="J"/><path d="M188.614 133.145l.097-.098 1.042.816c-.033.033-.033.066-.065.098-.326.392-.814.523-1.107.294s-.26-.718.033-1.11z" class="C"/><g class="J"><path d="M190.502 136.541l1.595-1.764c.423-.457.455-1.11.065-1.469-.391-.327-1.042-.229-1.465.228l-1.595 1.764c-.423.457-.455 1.11-.065 1.469.358.327 1.042.229 1.465-.228zm.976 2.287l1.595-1.764c.423-.457.456-1.11.065-1.469-.39-.327-1.041-.229-1.464.228l-1.595 1.764c-.423.457-.456 1.11-.065 1.469.358.327 1.041.229 1.464-.228z"/></g><g class="C"><path d="M189.2 135.496l.097-.098 1.042.817c-.033.033-.033.065-.065.098-.326.392-.814.522-1.107.294s-.26-.719.033-1.111zm.944 2.352l.097-.098 1.042.816c-.033.033-.033.066-.065.098-.326.392-.814.523-1.107.294-.325-.228-.293-.718.033-1.11z"/></g><g class="B D F"><path d="M189.852 132.033s.65.261.943.784m-.652 1.863s.65.196.943.751m-.031 1.372s.748.326 1.106.882"/></g><path d="M180.25 147.514l-2.148-5.748s-.814-3.56-.944-6.662c0 0 .781-3.299 2.734-5.03 0 0 1.627 1.437-.488 4.801l2.278 12.116-1.432.523z" class="J"/><path d="M179.631 130.369s-.912 1.078-1.465 2.123c0 0 .814.522 1.074.49.293 0 .976-1.666.391-2.613z" class="C"/><path d="M179.827 134.223s-.619 1.143-.944 1.175" class="B D F"/><path d="M240.948 97.482s-11.358-2.254-10.349 7.38c0 0-.196 5.748 8.331 9.471l6.997 14.337-.878 6.075s-4.752 4.605-3.938 10.679 3.905 11.659 9.894 12.051c0 0 8.461-2.025 11.846-.915 5.858 1.927 7.42-4.572 8.527-7.086 1.237-2.842 2.994-3.723 11.358-5.846 9.438-2.417 7.388-6.728 1.986-12.28-4.231-4.311-4.882-4.703-9.862-7.152s-9.47-7.609-9.991-12.867-.619-13.064-17.412-14.991c0 0-1.757-2.515-4.296-2.221-3.059.294-2.213 3.364-2.213 3.364z" class="O"/><path d="M237.758 110.088s-2.05 1.796-1.497 7.283c0 0-3.092 2.286-.13 2.384 0 0-2.441 8.948 8.332 9.471l.553 5.519s3.775-2.809 3.385-6.728l-.716-7.054s3.189-1.502 1.432-4.115-4.101-.392-3.938 1.176c.032 0-5.273-1.437-7.421-7.936z" class="H"/><path d="M238.905 124.998c1.019-.103 1.758-1.059 1.65-2.136s-1.022-1.866-2.041-1.763-1.759 1.059-1.651 2.136 1.022 1.866 2.042 1.763z" class="C"/><path d="M240.524 122.856s-2.343-.359-2.246 2.091c0 .032 2.116.293 2.246-2.091z" fill="#d87668"/><path d="M238.323 116.221c.376-.038.648-.389.609-.784s-.376-.684-.752-.646-.648.388-.608.783.376.684.751.647z" class="E"/><g stroke-width=".75" class="B D"><path d="M237.367 112.766s.195 1.339 2.311 1.437m-35.994 43.695s10.056 5.65 16.565 6.63m-4.198 20.184s7.583-2.711 10.512-6.956"/></g><g class="N"><path d="M300.147 282.066l-1.432 12.019s-1.92 2.09-4.036 0l-1.659-10.386 7.127-1.633zm-81.884-2.906l-1.92 10.777s-2.115 2.091-3.905 0l-1.432-10.777h7.257zm104.731-16.166l-1.432 12.018s-2.05 1.241-3.645 0l-.813-5.747 5.89-6.271z"/></g><path d="M325.143 264.007l-27.631 22.828s11.911-99.641 27.631-127.793c0 0 4.035-5.127 27.859-13.03 0 0-29.031 79.229-27.859 117.995z" fill="#a9d2dc"/><g fill="#80b9c5"><path d="M209.704 281.25s11.911-.817 87.84 5.584c0 0 10.252-87.818 27.631-127.792 0 0-22.619-12.182-31.667 1.502s-28.086 48.53-28.086 48.53-61.479-7.25-60.502 7.349c.976 14.631-1.4 15.022 3.84 17.537l.944 47.29z"/><path d="M353.001 146.012s-14.776-10.385-30.951-2.482-15.524 7.25-21.577 11.528c0 0 7.745-4.147 24.669 3.985 0 0 5.012-5.552 27.859-13.031z"/></g><g class="B"><g stroke-width=".5" class="D"><path d="M297.543 238.501s-62.129-9.111-81.168-5.78m108.768-73.678s-10.936-5.225-18.161-4.997m-9.439 132.789l4.654-33.181"/><path d="M250.32 207.77s23.921 1.861 34.01 3.167"/><path d="M265.389 209.076l6.671-12.084"/></g><path d="M188.939 206.07s4.72-2.808 10.415-.784" stroke="#fffefe" class="I"/></g><path d="M94.949 157.998h-6.184v102.874h6.184V157.998z" fill="#6c9ca4"/></g><defs><clipPath id="C"><path transform="translate(57 45)" d="M0 0h296v250H0z" class="C"/></clipPath><path id="D" d="M169.444 126.057c.359 0 .651-.336.651-.751s-.292-.751-.651-.751-.651.336-.651.751.291.751.651.751z"/></defs></svg>